<svg width="139" height="101" viewBox="0 0 139 101" fill="none" xmlns="http://www.w3.org/2000/svg">
<path fill-rule="evenodd" clip-rule="evenodd" d="M20.85 13.9C17.0116 13.9 13.9 17.0116 13.9 20.85V118.15C13.9 121.988 17.0116 125.1 20.85 125.1H118.15C121.988 125.1 125.1 121.988 125.1 118.15V20.85C125.1 17.0116 121.988 13.9 118.15 13.9H20.85ZM0 20.85C0 9.33486 9.33486 0 20.85 0H118.15C129.665 0 139 9.33486 139 20.85V118.15C139 129.665 129.665 139 118.15 139H20.85C9.33486 139 0 129.665 0 118.15V20.85Z" fill="#8A9BA8" fill-opacity="0.15"/>
<path fill-rule="evenodd" clip-rule="evenodd" d="M45.175 41.7001C43.2558 41.7001 41.7 43.2559 41.7 45.1751C41.7 47.0942 43.2558 48.6501 45.175 48.6501C47.0942 48.6501 48.65 47.0942 48.65 45.1751C48.65 43.2559 47.0942 41.7001 45.175 41.7001ZM27.8 45.1751C27.8 35.5791 35.579 27.8001 45.175 27.8001C54.7709 27.8001 62.55 35.5791 62.55 45.1751C62.55 54.771 54.7709 62.55 45.175 62.55C35.579 62.55 27.8 54.771 27.8 45.1751Z" fill="#8A9BA8" fill-opacity="0.15"/>
<path fill-rule="evenodd" clip-rule="evenodd" d="M92.3856 50.6857C95.0997 47.9715 99.5002 47.9715 102.214 50.6857L136.964 85.4356C139.678 88.1498 139.678 92.5503 136.964 95.2644C134.25 97.9786 129.85 97.9786 127.136 95.2644L97.3 65.4288L25.7644 136.964C23.0502 139.679 18.6497 139.679 15.9356 136.964C13.2214 134.25 13.2214 129.85 15.9356 127.136L92.3856 50.6857Z" fill="#8A9BA8" fill-opacity="0.15"/>
</svg>
