<svg width="246" height="173" viewBox="0 0 246 173" fill="none" xmlns="http://www.w3.org/2000/svg">
<rect width="246" height="173" fill="#FCFDFE"/>
<path fill-rule="evenodd" clip-rule="evenodd" d="M106.667 70.3333C105.378 70.3333 104.333 71.378 104.333 72.6666V105.333C104.333 106.622 105.378 107.667 106.667 107.667H139.333C140.622 107.667 141.667 106.622 141.667 105.333V72.6666C141.667 71.378 140.622 70.3333 139.333 70.3333H106.667ZM99.6665 72.6666C99.6665 68.8006 102.801 65.6666 106.667 65.6666H139.333C143.199 65.6666 146.333 68.8006 146.333 72.6666V105.333C146.333 109.199 143.199 112.333 139.333 112.333H106.667C102.801 112.333 99.6665 109.199 99.6665 105.333V72.6666Z" fill="#8A9BA8"/>
<path fill-rule="evenodd" clip-rule="evenodd" d="M114.833 79.6667C114.189 79.6667 113.667 80.189 113.667 80.8333C113.667 81.4777 114.189 82 114.833 82C115.478 82 116 81.4777 116 80.8333C116 80.189 115.478 79.6667 114.833 79.6667ZM109 80.8333C109 77.6117 111.612 75 114.833 75C118.055 75 120.667 77.6117 120.667 80.8333C120.667 84.055 118.055 86.6667 114.833 86.6667C111.612 86.6667 109 84.055 109 80.8333Z" fill="#8A9BA8"/>
<path fill-rule="evenodd" clip-rule="evenodd" d="M130.684 82.6834C131.595 81.7722 133.072 81.7722 133.983 82.6834L145.65 94.3501C146.561 95.2613 146.561 96.7387 145.65 97.6499C144.739 98.5611 143.261 98.5611 142.35 97.6499L132.333 87.6332L108.317 111.65C107.406 112.561 105.928 112.561 105.017 111.65C104.106 110.739 104.106 109.261 105.017 108.35L130.684 82.6834Z" fill="#8A9BA8"/>
</svg>
