<svg width="144" height="28" viewBox="0 0 144 28" fill="none" xmlns="http://www.w3.org/2000/svg">
<path fill-rule="evenodd" clip-rule="evenodd" d="M10.8602 8.99422L3.44602 0L0.287055 3.44614L9.28501 10.6202L7.61046 12.3488L7.24336 14.8496L0 20.8205L3.44614 23.9794L6.45765 20.2023L5.31303 28H10.3387V24.841C10.3387 23.8894 11.1101 23.118 12.0617 23.118C13.0133 23.118 13.7848 23.8894 13.7848 24.841V28H18.954L17.6561 20.1402L20.8207 23.9793L23.9796 20.5331L16.772 14.7865L16.3694 12.3488L14.8484 10.7264L23.9796 3.44614L20.8207 0L13.3214 9.09753L12.0617 7.75391L10.8602 8.99422Z" fill="#30404D" fill-opacity="0.5"/>
<path d="M31.2876 22.5522V22.5042L32.9115 20.9918C33.0569 20.8478 33.1296 20.6558 33.1296 20.4157V7.81241C33.1296 7.57235 33.0569 7.3803 32.9115 7.23626L31.2876 5.72387V5.67585H39.3826C42.1294 5.67585 44.2137 6.39604 45.6356 7.83642C47.0575 9.26079 47.7684 11.2293 47.7684 13.742C47.7684 16.5267 46.9929 18.6952 45.4417 20.2476C43.9067 21.784 41.7335 22.5522 38.9221 22.5522H31.2876ZM38.0254 22.0721H38.5343C40.0693 22.0721 41.1599 21.4159 41.8063 20.1036C42.4687 18.7753 42.7999 16.7667 42.7999 14.078C42.7999 11.4213 42.4768 9.43683 41.8305 8.12449C41.2003 6.81215 40.1582 6.15598 38.704 6.15598H37.9284C37.7507 6.15598 37.6376 6.18799 37.5891 6.252C37.5406 6.30002 37.5164 6.42005 37.5164 6.6121V21.592C37.5164 21.8161 37.5406 21.9521 37.5891 22.0001C37.6537 22.0481 37.7992 22.0721 38.0254 22.0721Z" fill="#30404D"/>
<path d="M57.754 22.7923C55.4435 22.7923 53.7631 22.3362 52.7129 21.424C51.6788 20.4957 51.1617 18.9593 51.1617 16.8148V7.83642C51.1617 7.59635 51.0809 7.4043 50.9194 7.26027L49.4652 5.72387V5.67585H57.2935V5.72387L55.7909 7.26027C55.6293 7.4043 55.5485 7.59635 55.5485 7.83642V16.5507C55.5485 18.4392 55.8555 19.7995 56.4695 20.6317C57.0997 21.464 58.0287 21.8801 59.2567 21.8801C60.42 21.8801 61.3249 21.424 61.9712 20.5117C62.6175 19.5995 62.9406 18.2471 62.9406 16.4547V9.7089C62.9406 9.42083 62.8356 9.15676 62.6256 8.9167L60.2504 5.72387V5.67585H66.1399V5.72387L63.7647 8.9167C63.5546 9.15676 63.4496 9.42083 63.4496 9.7089V16.4066C63.4496 18.4872 63.0053 20.0716 62.1166 21.1599C61.2279 22.2482 59.7737 22.7923 57.754 22.7923Z" fill="#30404D"/>
<path d="M76.6791 20.2476C76.6791 20.5037 76.768 20.7118 76.9457 20.8718L78.7392 22.5042V22.5522H70.2565V22.5042L72.05 20.8718C72.2277 20.6958 72.3166 20.4877 72.3166 20.2476V6.15598H70.9351C70.7412 6.15598 70.6038 6.17999 70.5231 6.228C70.4584 6.26001 70.3857 6.36403 70.3049 6.54008L67.3238 12.1575H67.2754V5.67585H81.7203V12.1575H81.6718L78.6907 6.54008C78.61 6.36403 78.5292 6.26001 78.4484 6.228C78.3837 6.17999 78.2545 6.15598 78.0606 6.15598H76.6791V20.2476Z" fill="#30404D"/>
<path d="M97.5191 5.89191V11.7974H97.4706L93.7866 6.27601C93.6251 6.01994 93.3585 5.89191 92.9868 5.89191H92.6475C90.1916 5.89191 88.9636 8.64463 88.9636 14.1501C88.9636 19.6075 90.2077 22.3362 92.696 22.3362H92.9626C93.3342 22.3362 93.6008 22.2242 93.7624 22.0001L97.4706 16.3346H97.5191V22.3602C95.9356 22.6483 94.2148 22.7923 92.3567 22.7923C89.5453 22.7923 87.4448 22.0321 86.0552 20.5117C84.6657 18.9753 83.9709 16.8548 83.9709 14.1501C83.9709 11.4614 84.6899 9.34081 86.1279 7.7884C87.566 6.22 89.6099 5.43579 92.2598 5.43579C94.0694 5.43579 95.8225 5.58783 97.5191 5.89191Z" fill="#30404D"/>
<path d="M116.467 7.81241V20.4157C116.467 20.6558 116.54 20.8478 116.686 20.9918L118.285 22.5042V22.5522H110.239V22.5042L111.838 20.9918C112 20.8318 112.081 20.6397 112.081 20.4157V14.1501H106.458V20.4157C106.458 20.6558 106.539 20.8478 106.7 20.9918L108.3 22.5042V22.5522H100.229V22.5042L101.853 20.9918C101.998 20.8478 102.071 20.6558 102.071 20.4157V7.81241C102.071 7.57235 101.998 7.3803 101.853 7.23626L100.229 5.72387V5.67585H108.3V5.72387L106.7 7.23626C106.539 7.3803 106.458 7.57235 106.458 7.81241V13.6699H112.081V7.81241C112.081 7.57235 112 7.3803 111.838 7.23626L110.239 5.72387V5.67585H118.285V5.72387L116.686 7.23626C116.54 7.3803 116.467 7.57235 116.467 7.81241Z" fill="#30404D"/>
<path d="M126.557 20.4157C126.557 20.6558 126.638 20.8478 126.799 20.9918L128.399 22.5042V22.5522H120.328V22.5042L121.952 20.9918C122.097 20.8478 122.17 20.6558 122.17 20.4157V7.81241C122.17 7.57235 122.097 7.3803 121.952 7.23626L120.328 5.72387V5.67585H128.399V5.72387L126.799 7.23626C126.638 7.3803 126.557 7.57235 126.557 7.81241V20.4157Z" fill="#30404D"/>
<path d="M143.43 5.67585V11.4854H143.382L140.255 6.54008C140.094 6.28401 139.867 6.15598 139.577 6.15598H137.08C136.902 6.15598 136.789 6.18799 136.741 6.252C136.692 6.30002 136.668 6.42805 136.668 6.6361V13.862H138.316C138.559 13.846 138.769 13.734 138.946 13.5259L141.128 11.0292H141.176V17.1508H141.128L138.946 14.6542C138.752 14.4461 138.534 14.3421 138.292 14.3421H136.668V21.592C136.668 21.8 136.692 21.9361 136.741 22.0001C136.789 22.0481 136.902 22.0721 137.08 22.0721H139.867C140.223 22.0721 140.465 21.9601 140.594 21.736L143.6 16.6467H143.648V22.5522H130.439V22.5042L132.063 20.9918C132.209 20.8478 132.281 20.6558 132.281 20.4157V7.81241C132.281 7.57235 132.209 7.3803 132.063 7.23626L130.439 5.72387V5.67585H143.43Z" fill="#30404D"/>
</svg>
