<svg width="532" height="293" viewBox="0 0 532 293" fill="none" xmlns="http://www.w3.org/2000/svg">
<path fill-rule="evenodd" clip-rule="evenodd" d="M207.53 225.018C207.519 225.065 207.265 225.041 206.938 224.963C206.611 224.885 206.358 224.862 206.347 224.909C206.336 224.954 206.109 224.939 205.837 224.874C205.564 224.809 205.338 224.793 205.327 224.839C205.316 224.884 205.16 224.885 204.98 224.843L204.653 224.765L204.028 227.387C203.623 229.081 203.373 230.003 203.32 229.991C203.27 229.979 203.147 230.354 203.004 230.955C202.86 231.556 202.737 231.931 202.687 231.919C202.641 231.908 202.547 232.145 202.469 232.473C202.39 232.801 202.297 233.039 202.25 233.028C202.205 233.017 202.116 233.227 202.051 233.5C201.986 233.773 201.897 233.983 201.852 233.972C201.807 233.961 201.735 234.1 201.692 234.281C201.649 234.461 201.577 234.6 201.532 234.589C201.487 234.578 201.406 234.754 201.352 234.979C201.299 235.205 201.218 235.38 201.173 235.37C201.128 235.359 201.056 235.498 201.013 235.678C200.97 235.858 200.898 235.997 200.853 235.986C200.808 235.976 200.745 236.077 200.713 236.213C200.68 236.348 200.617 236.45 200.572 236.439C200.527 236.428 200.455 236.567 200.412 236.748C200.369 236.928 200.297 237.067 200.252 237.056C200.207 237.045 200.144 237.147 200.112 237.282C200.08 237.418 200.016 237.519 199.972 237.509C199.927 237.498 199.855 237.637 199.812 237.817C199.769 237.997 199.697 238.136 199.652 238.125C199.607 238.115 199.543 238.217 199.511 238.352C199.479 238.487 199.416 238.589 199.371 238.578C199.326 238.567 199.263 238.669 199.23 238.805C199.198 238.94 199.135 239.042 199.09 239.031C199.045 239.02 198.991 239.085 198.969 239.175C198.948 239.266 198.893 239.331 198.848 239.32C198.803 239.309 198.74 239.411 198.708 239.546C198.676 239.682 198.612 239.783 198.568 239.773C198.523 239.762 198.468 239.827 198.447 239.917C198.425 240.007 198.371 240.072 198.326 240.062C198.281 240.051 198.218 240.153 198.185 240.288C198.153 240.423 198.09 240.525 198.045 240.514C198 240.504 197.946 240.569 197.924 240.659C197.903 240.749 197.848 240.814 197.803 240.803C197.758 240.792 197.695 240.894 197.663 241.03C197.631 241.165 197.567 241.267 197.523 241.256C197.478 241.245 197.423 241.31 197.402 241.4C197.38 241.491 197.326 241.556 197.281 241.545C197.236 241.534 197.182 241.599 197.16 241.689C197.138 241.779 197.084 241.844 197.039 241.834C196.994 241.823 196.94 241.888 196.918 241.978C196.897 242.068 196.842 242.133 196.797 242.123C196.753 242.112 196.691 242.206 196.661 242.331C196.629 242.465 196.528 242.591 196.415 242.638C196.31 242.681 196.208 242.783 196.189 242.863C196.17 242.943 196.117 243 196.072 242.989C196.027 242.978 195.973 243.043 195.952 243.134C195.93 243.224 195.876 243.289 195.831 243.278C195.786 243.267 195.731 243.332 195.71 243.422C195.688 243.513 195.634 243.578 195.589 243.567C195.544 243.556 195.481 243.658 195.449 243.793C195.416 243.929 195.353 244.03 195.308 244.02C195.263 244.009 195.211 244.066 195.192 244.146C195.173 244.226 195.071 244.328 194.965 244.371C194.86 244.415 194.758 244.516 194.739 244.596C194.72 244.676 194.667 244.733 194.622 244.722C194.577 244.712 194.523 244.777 194.501 244.867C194.48 244.957 194.426 245.022 194.381 245.011C194.336 245.001 194.283 245.057 194.264 245.138C194.245 245.218 194.143 245.319 194.038 245.363C193.932 245.406 193.83 245.507 193.811 245.588C193.792 245.668 193.74 245.725 193.695 245.714C193.65 245.703 193.597 245.76 193.578 245.84C193.559 245.92 193.457 246.022 193.352 246.065C193.246 246.109 193.144 246.21 193.125 246.29C193.106 246.37 193.054 246.427 193.009 246.417C192.964 246.406 192.911 246.463 192.892 246.543C192.873 246.623 192.771 246.724 192.666 246.768C192.56 246.811 192.462 246.898 192.447 246.96C192.432 247.022 192.285 247.15 192.12 247.244C191.955 247.338 191.808 247.466 191.793 247.528C191.778 247.59 191.68 247.677 191.575 247.72C191.469 247.764 191.371 247.85 191.356 247.913C191.341 247.975 191.194 248.103 191.029 248.197C190.864 248.291 190.719 248.411 190.706 248.463C190.694 248.515 190.411 248.722 190.078 248.923C189.745 249.124 189.463 249.328 189.452 249.376C189.432 249.462 187.55 250.659 187.467 250.639C187.444 250.633 187.496 250.334 187.582 249.973C187.673 249.591 187.772 249.326 187.82 249.337C187.87 249.349 187.993 248.974 188.136 248.373C188.28 247.772 188.403 247.397 188.453 247.409C188.504 247.421 188.645 246.964 188.828 246.199C189.01 245.434 189.152 244.977 189.203 244.989C189.256 245.002 189.63 243.56 190.282 240.828C190.934 238.096 191.251 236.641 191.198 236.628C191.148 236.616 191.207 236.228 191.349 235.632C191.517 234.927 191.556 234.637 191.49 234.589C191.42 234.539 191.433 234.507 191.543 234.458C191.652 234.409 191.665 234.377 191.595 234.327C191.533 234.282 191.552 234.054 191.658 233.612C191.748 233.234 191.779 232.955 191.731 232.944C191.684 232.933 191.708 232.678 191.786 232.35C191.864 232.023 191.888 231.768 191.841 231.757C191.796 231.746 191.812 231.519 191.877 231.246C191.942 230.973 191.958 230.745 191.913 230.735C191.868 230.724 191.875 230.531 191.929 230.305C191.982 230.08 191.99 229.887 191.945 229.876C191.9 229.865 191.907 229.672 191.961 229.447C192.014 229.221 192.022 229.028 191.977 229.017C191.932 229.007 191.93 228.85 191.973 228.67C192.016 228.49 192.015 228.333 191.97 228.323C191.925 228.312 191.914 228.192 191.947 228.057C191.979 227.922 191.969 227.802 191.924 227.792C191.879 227.781 191.877 227.625 191.92 227.444C191.963 227.264 191.962 227.108 191.917 227.097C191.872 227.086 191.87 226.93 191.913 226.75C191.956 226.569 191.955 226.413 191.91 226.402C191.865 226.392 191.863 226.235 191.906 226.055C191.949 225.875 191.947 225.718 191.903 225.708C191.858 225.697 191.843 225.593 191.871 225.477C191.935 225.208 191.802 224.99 191.534 224.926C191.418 224.899 191.332 224.839 191.343 224.794C191.354 224.749 191.179 224.668 190.954 224.615C190.729 224.561 190.554 224.48 190.565 224.435C190.575 224.39 190.4 224.31 190.176 224.256C189.951 224.202 189.776 224.122 189.787 224.076C189.797 224.031 189.588 223.942 189.316 223.878C189.043 223.813 188.834 223.724 188.845 223.679C188.856 223.632 188.619 223.538 188.292 223.46C187.965 223.382 187.729 223.288 187.74 223.242C187.752 223.192 187.378 223.069 186.778 222.926C186.179 222.783 185.805 222.66 185.817 222.61C185.83 222.557 184.856 222.294 183.058 221.865C181.26 221.436 180.272 221.231 180.259 221.284C180.247 221.336 179.477 221.184 178.115 220.859C176.044 220.365 175.989 220.356 175.951 220.516C175.929 220.606 175.948 220.688 175.993 220.699C176.042 220.711 175.997 221.046 175.879 221.538C175.762 222.03 175.717 222.366 175.766 222.377C175.819 222.39 175.606 223.408 175.163 225.266C174.72 227.124 174.45 228.128 174.397 228.115C174.348 228.103 174.237 228.423 174.119 228.915C174.002 229.407 173.891 229.727 173.842 229.715C173.796 229.704 173.702 229.942 173.624 230.27C173.545 230.597 173.452 230.835 173.405 230.824C173.359 230.813 173.271 231.023 173.206 231.296C173.141 231.569 173.052 231.779 173.007 231.768C172.962 231.758 172.881 231.933 172.827 232.159C172.774 232.384 172.693 232.56 172.648 232.549C172.603 232.538 172.522 232.714 172.468 232.939C172.414 233.165 172.334 233.341 172.289 233.33C172.244 233.319 172.163 233.495 172.109 233.72C172.055 233.946 171.975 234.121 171.93 234.11C171.885 234.1 171.813 234.239 171.77 234.419C171.727 234.599 171.655 234.738 171.61 234.727C171.565 234.716 171.502 234.818 171.469 234.954C171.437 235.089 171.374 235.191 171.329 235.18C171.284 235.169 171.212 235.308 171.169 235.488C171.126 235.669 171.054 235.807 171.009 235.797C170.964 235.786 170.901 235.888 170.869 236.023C170.836 236.158 170.773 236.26 170.728 236.25C170.683 236.239 170.611 236.378 170.568 236.558C170.525 236.738 170.453 236.877 170.408 236.866C170.363 236.856 170.3 236.957 170.268 237.093C170.236 237.228 170.173 237.33 170.128 237.319C170.083 237.308 170.019 237.41 169.987 237.545C169.955 237.681 169.892 237.783 169.847 237.772C169.802 237.761 169.739 237.863 169.706 237.998C169.674 238.134 169.611 238.235 169.566 238.225C169.521 238.214 169.458 238.316 169.426 238.451C169.393 238.586 169.33 238.688 169.285 238.677C169.24 238.667 169.177 238.769 169.145 238.904C169.113 239.039 169.049 239.141 169.004 239.13C168.959 239.12 168.905 239.185 168.884 239.275C168.862 239.365 168.808 239.43 168.763 239.419C168.718 239.408 168.655 239.51 168.622 239.646C168.59 239.781 168.527 239.883 168.482 239.872C168.437 239.861 168.383 239.926 168.361 240.016C168.34 240.107 168.285 240.172 168.24 240.161C168.195 240.15 168.141 240.215 168.119 240.305C168.098 240.395 168.044 240.46 167.999 240.45C167.954 240.439 167.89 240.541 167.858 240.676C167.826 240.811 167.763 240.913 167.718 240.902C167.673 240.892 167.618 240.957 167.597 241.047C167.575 241.137 167.521 241.202 167.476 241.191C167.431 241.181 167.377 241.246 167.355 241.336C167.334 241.426 167.279 241.491 167.234 241.48C167.189 241.469 167.135 241.534 167.114 241.625C167.092 241.715 167.038 241.78 166.993 241.769C166.948 241.758 166.893 241.823 166.872 241.913C166.85 242.004 166.796 242.069 166.751 242.058C166.706 242.047 166.654 242.104 166.634 242.184C166.615 242.264 166.513 242.366 166.408 242.409C166.303 242.453 166.201 242.554 166.182 242.634C166.162 242.714 166.11 242.771 166.065 242.761C166.02 242.75 165.968 242.807 165.949 242.887C165.929 242.967 165.827 243.068 165.722 243.112C165.617 243.155 165.517 243.249 165.5 243.319C165.483 243.389 165.383 243.482 165.278 243.526C165.172 243.569 165.071 243.67 165.051 243.751C165.032 243.831 164.98 243.888 164.935 243.877C164.89 243.866 164.837 243.923 164.818 244.003C164.799 244.084 164.697 244.185 164.592 244.228C164.486 244.272 164.386 244.365 164.37 244.435C164.353 244.506 164.253 244.599 164.148 244.642C164.042 244.686 163.94 244.787 163.921 244.867C163.902 244.947 163.85 245.004 163.805 244.994C163.76 244.983 163.709 245.032 163.692 245.103C163.663 245.227 163.421 245.422 163.325 245.399C163.3 245.393 163.305 245.277 163.337 245.142C163.37 245.007 163.433 244.905 163.478 244.916C163.526 244.927 163.631 244.634 163.735 244.197C163.84 243.76 163.945 243.468 163.993 243.479C164.046 243.492 164.27 242.679 164.622 241.204C164.974 239.728 165.141 238.902 165.088 238.889C165.039 238.877 165.085 238.542 165.202 238.05C165.319 237.558 165.365 237.222 165.316 237.211C165.268 237.199 165.299 236.918 165.391 236.535C165.482 236.153 165.513 235.872 165.465 235.86C165.42 235.849 165.436 235.622 165.501 235.349C165.566 235.076 165.582 234.848 165.537 234.838C165.492 234.827 165.499 234.634 165.553 234.408C165.606 234.183 165.614 233.99 165.569 233.979C165.524 233.968 165.522 233.812 165.565 233.632C165.608 233.451 165.607 233.295 165.562 233.284C165.517 233.273 165.524 233.08 165.578 232.855C165.631 232.629 165.639 232.436 165.594 232.426C165.549 232.415 165.556 232.222 165.61 231.996C165.664 231.771 165.671 231.578 165.626 231.567C165.581 231.556 165.579 231.4 165.622 231.22C165.665 231.039 165.664 230.883 165.619 230.872C165.574 230.861 165.581 230.668 165.635 230.443C165.689 230.217 165.696 230.024 165.651 230.013C165.606 230.003 165.613 229.81 165.667 229.584C165.721 229.359 165.728 229.166 165.683 229.155C165.638 229.144 165.636 228.988 165.679 228.807C165.722 228.627 165.721 228.471 165.676 228.46C165.631 228.449 165.629 228.293 165.672 228.113C165.715 227.932 165.714 227.776 165.669 227.765C165.624 227.755 165.622 227.598 165.665 227.418C165.708 227.238 165.707 227.081 165.662 227.071C165.617 227.06 165.607 226.94 165.639 226.805C165.671 226.67 165.661 226.551 165.616 226.54C165.571 226.529 165.569 226.373 165.612 226.192C165.655 226.012 165.654 225.856 165.609 225.845C165.564 225.834 165.553 225.715 165.586 225.58C165.618 225.444 165.608 225.325 165.563 225.314C165.518 225.304 165.507 225.184 165.54 225.049C165.572 224.914 165.561 224.794 165.516 224.784C165.472 224.773 165.461 224.653 165.493 224.518C165.526 224.383 165.515 224.263 165.47 224.253C165.425 224.242 165.415 224.123 165.447 223.987C165.48 223.852 165.469 223.733 165.424 223.722C165.379 223.711 165.369 223.592 165.401 223.457C165.433 223.321 165.423 223.202 165.378 223.191C165.333 223.18 165.314 223.098 165.335 223.008C165.357 222.918 165.338 222.835 165.293 222.824C165.248 222.814 165.238 222.694 165.27 222.559C165.302 222.424 165.292 222.304 165.247 222.293C165.202 222.283 165.183 222.2 165.204 222.11C165.226 222.02 165.206 221.937 165.161 221.927C165.117 221.916 165.106 221.796 165.138 221.661C165.171 221.526 165.16 221.407 165.115 221.396C165.07 221.385 165.051 221.303 165.073 221.212C165.094 221.122 165.075 221.04 165.03 221.029C164.985 221.018 164.971 220.916 164.998 220.801C165.085 220.435 164.619 219.876 164.438 220.13C164.388 220.2 164.356 220.187 164.307 220.077C164.258 219.967 164.226 219.954 164.176 220.024C164.127 220.093 163.725 220.024 162.564 219.748C161.588 219.515 161.011 219.409 160.999 219.461C160.987 219.51 160.625 219.458 160.08 219.328C159.535 219.198 159.173 219.146 159.161 219.196C159.15 219.244 158.842 219.206 158.406 219.102C157.97 218.998 157.663 218.96 157.651 219.009C157.64 219.057 157.332 219.019 156.896 218.915C156.46 218.811 156.152 218.773 156.141 218.821C156.129 218.869 155.849 218.838 155.467 218.747C155.086 218.656 154.805 218.626 154.794 218.673C154.783 218.72 154.529 218.697 154.202 218.619C153.875 218.541 153.622 218.518 153.611 218.564C153.6 218.611 153.358 218.591 153.054 218.518C152.697 218.433 152.468 218.42 152.372 218.479C152.206 218.582 152.126 218.817 152.248 218.846C152.293 218.856 152.312 218.939 152.29 219.029C152.269 219.119 152.288 219.202 152.333 219.212C152.378 219.223 152.397 219.306 152.376 219.396C152.354 219.486 152.373 219.569 152.418 219.579C152.463 219.59 152.474 219.71 152.441 219.845C152.409 219.98 152.419 220.099 152.464 220.11C152.509 220.121 152.52 220.24 152.487 220.376C152.455 220.511 152.466 220.63 152.51 220.641C152.555 220.652 152.566 220.771 152.534 220.906C152.501 221.042 152.512 221.161 152.557 221.172C152.602 221.182 152.603 221.339 152.56 221.519C152.517 221.699 152.519 221.856 152.564 221.866C152.609 221.877 152.61 222.034 152.567 222.214C152.524 222.394 152.526 222.55 152.571 222.561C152.616 222.572 152.617 222.728 152.574 222.909C152.531 223.089 152.533 223.245 152.578 223.256C152.623 223.267 152.607 223.494 152.542 223.767C152.477 224.04 152.461 224.268 152.506 224.279C152.553 224.29 152.53 224.544 152.451 224.872C152.373 225.2 152.349 225.454 152.396 225.465C152.446 225.477 152.393 225.84 152.263 226.386C152.132 226.933 152.08 227.296 152.129 227.307C152.183 227.32 151.931 228.502 151.409 230.687C150.888 232.873 150.579 234.041 150.526 234.029C150.477 234.017 150.366 234.337 150.249 234.829C150.131 235.321 150.02 235.641 149.971 235.629C149.926 235.618 149.837 235.828 149.772 236.101C149.707 236.374 149.619 236.584 149.573 236.574C149.528 236.563 149.439 236.773 149.374 237.046C149.309 237.319 149.22 237.529 149.175 237.518C149.13 237.507 149.041 237.717 148.976 237.99C148.911 238.264 148.822 238.474 148.777 238.463C148.73 238.452 148.636 238.689 148.558 239.017C148.48 239.345 148.386 239.582 148.34 239.571C148.291 239.56 148.186 239.852 148.082 240.289C147.978 240.727 147.873 241.019 147.824 241.008C147.779 240.997 147.698 241.173 147.645 241.398C147.591 241.623 147.51 241.799 147.465 241.788C147.42 241.778 147.41 241.658 147.442 241.523C147.474 241.388 147.464 241.268 147.419 241.257C147.374 241.247 147.381 241.054 147.435 240.828C147.489 240.603 147.496 240.41 147.451 240.399C147.406 240.388 147.405 240.232 147.448 240.051C147.491 239.871 147.489 239.715 147.444 239.704C147.399 239.693 147.398 239.537 147.441 239.357C147.484 239.176 147.482 239.02 147.437 239.009C147.392 238.999 147.382 238.879 147.414 238.744C147.446 238.609 147.436 238.489 147.391 238.479C147.346 238.468 147.344 238.312 147.387 238.131C147.43 237.951 147.429 237.795 147.384 237.784C147.339 237.773 147.329 237.654 147.361 237.518C147.393 237.383 147.383 237.264 147.338 237.253C147.293 237.242 147.291 237.086 147.334 236.906C147.377 236.725 147.376 236.569 147.331 236.558C147.286 236.548 147.284 236.391 147.327 236.211C147.37 236.031 147.369 235.874 147.324 235.864C147.279 235.853 147.268 235.733 147.301 235.598C147.333 235.463 147.323 235.344 147.278 235.333C147.233 235.322 147.213 235.24 147.235 235.149C147.256 235.059 147.237 234.977 147.192 234.966C147.147 234.955 147.137 234.836 147.169 234.701C147.202 234.565 147.191 234.446 147.146 234.435C147.101 234.424 147.091 234.305 147.123 234.17C147.155 234.034 147.145 233.915 147.1 233.904C147.055 233.894 147.045 233.774 147.077 233.639C147.109 233.504 147.099 233.384 147.054 233.374C147.009 233.363 146.99 233.28 147.011 233.19C147.033 233.1 147.014 233.017 146.969 233.007C146.924 232.996 146.913 232.877 146.946 232.741C146.978 232.606 146.968 232.487 146.923 232.476C146.878 232.465 146.867 232.346 146.9 232.21C146.932 232.075 146.921 231.956 146.876 231.945C146.832 231.934 146.812 231.852 146.834 231.762C146.855 231.671 146.836 231.589 146.791 231.578C146.746 231.567 146.736 231.448 146.768 231.313C146.8 231.178 146.79 231.058 146.745 231.047C146.7 231.037 146.681 230.954 146.702 230.864C146.724 230.774 146.705 230.691 146.66 230.681C146.615 230.67 146.596 230.587 146.617 230.497C146.639 230.407 146.62 230.324 146.575 230.314C146.53 230.303 146.51 230.22 146.532 230.13C146.553 230.04 146.534 229.958 146.489 229.947C146.444 229.936 146.425 229.854 146.447 229.763C146.468 229.673 146.449 229.591 146.404 229.58C146.359 229.569 146.349 229.45 146.381 229.315C146.413 229.179 146.403 229.06 146.358 229.049C146.313 229.038 146.294 228.956 146.315 228.866C146.337 228.776 146.318 228.693 146.273 228.682C146.228 228.672 146.209 228.589 146.23 228.499C146.252 228.409 146.232 228.326 146.187 228.315C146.143 228.305 146.123 228.222 146.145 228.132C146.166 228.042 146.147 227.959 146.102 227.949C146.057 227.938 146.038 227.855 146.06 227.765C146.081 227.675 146.062 227.592 146.017 227.582C145.972 227.571 145.953 227.488 145.974 227.398C145.996 227.308 145.977 227.226 145.932 227.215C145.887 227.204 145.868 227.122 145.889 227.031C145.911 226.941 145.891 226.859 145.847 226.848C145.802 226.837 145.782 226.755 145.804 226.665C145.825 226.574 145.806 226.492 145.761 226.481C145.716 226.47 145.695 226.396 145.714 226.316C145.733 226.236 145.688 226.099 145.614 226.013C145.539 225.926 145.494 225.79 145.513 225.71C145.533 225.63 145.511 225.555 145.466 225.544C145.421 225.534 145.402 225.451 145.424 225.361C145.445 225.271 145.426 225.188 145.381 225.178C145.336 225.167 145.315 225.092 145.334 225.012C145.353 224.932 145.308 224.796 145.234 224.709C145.159 224.623 145.112 224.495 145.129 224.424C145.146 224.354 145.099 224.226 145.024 224.139C144.95 224.053 144.901 223.931 144.916 223.869C144.931 223.807 144.857 223.627 144.752 223.468C144.648 223.31 144.572 223.137 144.585 223.085C144.597 223.032 144.466 222.766 144.294 222.492C144.122 222.219 143.991 221.953 144.003 221.9C144.016 221.848 143.941 221.675 143.836 221.517C143.731 221.358 143.656 221.184 143.669 221.13C143.682 221.076 143.607 220.903 143.502 220.744C143.397 220.586 143.322 220.412 143.335 220.358C143.348 220.304 143.273 220.13 143.168 219.971C143.063 219.813 142.988 219.641 143 219.589C143.033 219.451 142.737 219.002 142.591 218.967C142.521 218.951 142.456 218.974 142.445 219.019C142.434 219.064 142.352 219.084 142.262 219.062C142.172 219.041 142.09 219.06 142.079 219.105C142.068 219.15 141.949 219.161 141.814 219.129C141.679 219.096 141.56 219.107 141.549 219.152C141.539 219.197 141.456 219.216 141.366 219.195C141.276 219.174 141.194 219.193 141.183 219.238C141.172 219.283 141.09 219.302 141 219.281C140.91 219.259 140.828 219.279 140.817 219.324C140.806 219.369 140.724 219.388 140.634 219.367C140.544 219.345 140.462 219.365 140.451 219.41C140.44 219.455 140.358 219.474 140.268 219.453C140.178 219.431 140.096 219.451 140.085 219.496C140.074 219.541 139.955 219.551 139.82 219.519C139.686 219.487 139.566 219.498 139.556 219.543C139.545 219.588 139.463 219.607 139.373 219.586C139.283 219.564 139.2 219.584 139.19 219.629C139.179 219.674 139.096 219.693 139.007 219.672C138.917 219.65 138.834 219.67 138.824 219.715C138.813 219.76 138.73 219.779 138.641 219.758C138.551 219.736 138.468 219.755 138.457 219.801C138.447 219.846 138.364 219.865 138.274 219.843C138.185 219.822 138.102 219.841 138.091 219.886C138.081 219.932 137.962 219.942 137.827 219.91C137.692 219.878 137.573 219.888 137.562 219.933C137.551 219.978 137.469 219.998 137.379 219.976C137.289 219.955 137.207 219.974 137.196 220.019C137.185 220.064 137.103 220.084 137.013 220.062C136.923 220.041 136.841 220.06 136.83 220.105C136.819 220.15 136.745 220.172 136.665 220.153C136.585 220.133 136.449 220.179 136.363 220.254C136.276 220.328 136.14 220.374 136.06 220.355C135.98 220.336 135.906 220.357 135.895 220.402C135.884 220.447 135.802 220.466 135.712 220.445C135.622 220.424 135.54 220.443 135.529 220.488C135.518 220.533 135.399 220.544 135.264 220.511C135.13 220.479 135.01 220.49 135 220.535C134.989 220.58 134.907 220.599 134.817 220.578C134.727 220.556 134.644 220.576 134.634 220.621C134.623 220.666 134.549 220.687 134.469 220.668C134.389 220.649 134.253 220.695 134.166 220.769C134.08 220.844 133.944 220.889 133.864 220.87C133.784 220.851 133.71 220.873 133.699 220.918C133.688 220.963 133.606 220.982 133.516 220.961C133.426 220.939 133.344 220.959 133.333 221.004C133.322 221.049 133.24 221.068 133.15 221.047C133.06 221.025 132.978 221.044 132.967 221.09C132.956 221.135 132.882 221.156 132.802 221.137C132.722 221.118 132.586 221.163 132.5 221.238C132.413 221.313 132.277 221.358 132.197 221.339C132.117 221.32 132.043 221.341 132.032 221.386C132.021 221.431 131.939 221.451 131.849 221.429C131.759 221.408 131.677 221.427 131.666 221.472C131.655 221.517 131.573 221.537 131.483 221.515C131.393 221.494 131.311 221.513 131.3 221.558C131.289 221.603 131.215 221.625 131.135 221.605C131.055 221.586 130.919 221.632 130.833 221.707C130.746 221.781 130.61 221.827 130.53 221.808C130.451 221.789 130.376 221.81 130.365 221.855C130.355 221.9 130.28 221.921 130.201 221.902C130.121 221.883 129.984 221.929 129.898 222.003C129.812 222.078 129.676 222.124 129.596 222.105C129.516 222.085 129.442 222.107 129.431 222.152C129.42 222.197 129.346 222.218 129.266 222.199C129.186 222.18 129.05 222.225 128.963 222.3C128.877 222.375 128.749 222.422 128.679 222.406C128.609 222.389 128.481 222.436 128.395 222.511C128.309 222.586 128.181 222.633 128.111 222.616C128.041 222.6 127.913 222.647 127.826 222.722C127.74 222.797 127.604 222.842 127.524 222.823C127.444 222.804 127.37 222.825 127.359 222.87C127.348 222.915 127.274 222.937 127.194 222.918C127.114 222.899 126.978 222.944 126.892 223.019C126.805 223.093 126.684 223.142 126.622 223.128C126.56 223.113 126.38 223.187 126.222 223.292C126.063 223.397 125.883 223.471 125.821 223.456C125.759 223.442 125.638 223.491 125.552 223.565C125.465 223.64 125.338 223.688 125.267 223.671C125.197 223.654 125.069 223.702 124.983 223.776C124.897 223.851 124.776 223.9 124.714 223.885C124.652 223.87 124.471 223.944 124.313 224.05C124.155 224.155 123.982 224.231 123.929 224.218C123.876 224.205 123.657 224.309 123.441 224.448C123.225 224.587 123.006 224.691 122.954 224.678C122.902 224.666 122.683 224.769 122.467 224.909C122.251 225.048 122.033 225.151 121.981 225.139C121.93 225.127 121.665 225.259 121.392 225.432C121.119 225.605 120.857 225.737 120.809 225.726C120.695 225.699 116.171 228.488 116.144 228.602C116.132 228.65 115.85 228.854 115.517 229.055C115.184 229.256 114.902 229.462 114.89 229.514C114.877 229.565 114.686 229.713 114.465 229.843C114.244 229.974 114.053 230.124 114.04 230.177C114.027 230.23 113.882 230.351 113.717 230.445C113.552 230.539 113.407 230.66 113.394 230.714C113.381 230.768 113.235 230.889 113.07 230.983C112.905 231.078 112.758 231.205 112.743 231.268C112.729 231.33 112.63 231.416 112.525 231.46C112.419 231.503 112.317 231.604 112.298 231.685C112.279 231.765 112.227 231.822 112.182 231.811C112.137 231.8 112.084 231.857 112.065 231.937C112.046 232.018 111.944 232.119 111.839 232.162C111.733 232.206 111.633 232.299 111.617 232.369C111.6 232.439 111.5 232.533 111.395 232.576C111.289 232.62 111.187 232.721 111.168 232.801C111.149 232.881 111.096 232.938 111.052 232.927C111.007 232.917 110.952 232.982 110.931 233.072C110.909 233.162 110.855 233.227 110.81 233.216C110.765 233.206 110.711 233.271 110.689 233.361C110.668 233.451 110.613 233.516 110.568 233.505C110.523 233.494 110.469 233.559 110.447 233.65C110.426 233.74 110.371 233.805 110.326 233.794C110.282 233.783 110.227 233.848 110.206 233.938C110.184 234.029 110.13 234.094 110.085 234.083C110.04 234.072 109.985 234.137 109.964 234.227C109.942 234.318 109.888 234.383 109.843 234.372C109.798 234.361 109.744 234.426 109.722 234.516C109.701 234.606 109.646 234.671 109.601 234.661C109.556 234.65 109.502 234.715 109.481 234.805C109.459 234.895 109.405 234.96 109.36 234.95C109.315 234.939 109.26 235.004 109.239 235.094C109.217 235.184 109.163 235.249 109.118 235.238C109.073 235.228 109.01 235.33 108.978 235.465C108.945 235.6 108.882 235.702 108.837 235.691C108.792 235.68 108.729 235.782 108.697 235.918C108.665 236.053 108.601 236.155 108.556 236.144C108.511 236.133 108.44 236.272 108.396 236.452C108.353 236.633 108.281 236.771 108.237 236.761C108.192 236.75 108.128 236.852 108.096 236.987C108.064 237.122 108.001 237.224 107.956 237.214C107.911 237.203 107.83 237.378 107.776 237.604C107.722 237.829 107.642 238.005 107.597 237.994C107.552 237.983 107.471 238.159 107.417 238.385C107.363 238.61 107.283 238.786 107.238 238.775C107.186 238.763 107.013 239.356 106.765 240.395C106.517 241.433 106.404 242.041 106.455 242.054C106.502 242.065 106.479 242.319 106.4 242.647C106.322 242.975 106.298 243.229 106.345 243.24C106.39 243.251 106.383 243.444 106.329 243.669C106.275 243.895 106.268 244.088 106.313 244.099C106.358 244.109 106.351 244.303 106.297 244.528C106.243 244.753 106.236 244.947 106.281 244.957C106.326 244.968 106.328 245.124 106.284 245.305C106.241 245.485 106.243 245.641 106.288 245.652C106.333 245.663 106.343 245.782 106.311 245.917C106.279 246.053 106.289 246.172 106.334 246.183C106.379 246.194 106.389 246.313 106.357 246.448C106.325 246.584 106.335 246.703 106.38 246.714C106.425 246.724 106.444 246.807 106.423 246.897C106.401 246.987 106.421 247.07 106.466 247.081C106.51 247.091 106.521 247.211 106.489 247.346C106.456 247.481 106.467 247.601 106.512 247.611C106.557 247.622 106.576 247.705 106.554 247.795C106.533 247.885 106.552 247.967 106.597 247.978C106.642 247.989 106.652 248.108 106.62 248.244C106.588 248.379 106.598 248.498 106.643 248.509C106.688 248.52 106.707 248.602 106.686 248.692C106.664 248.783 106.683 248.865 106.728 248.876C106.773 248.887 106.792 248.969 106.771 249.059C106.749 249.149 106.769 249.232 106.813 249.243C106.858 249.253 106.878 249.336 106.856 249.426C106.835 249.516 106.854 249.599 106.899 249.61C106.944 249.62 106.963 249.703 106.941 249.793C106.92 249.883 106.939 249.966 106.984 249.976C107.029 249.987 107.048 250.07 107.027 250.16C107.005 250.25 107.024 250.333 107.069 250.343C107.114 250.354 107.135 250.428 107.116 250.509C107.097 250.589 107.142 250.725 107.217 250.812C107.291 250.898 107.336 251.034 107.317 251.115C107.298 251.195 107.319 251.269 107.364 251.28C107.409 251.291 107.43 251.365 107.411 251.445C107.392 251.526 107.437 251.662 107.511 251.748C107.586 251.835 107.633 251.963 107.616 252.033C107.6 252.103 107.647 252.232 107.721 252.318C107.795 252.405 107.843 252.533 107.826 252.603C107.809 252.673 107.856 252.801 107.931 252.888C108.005 252.974 108.054 253.095 108.039 253.156C108.025 253.218 108.126 253.444 108.265 253.661C108.403 253.877 108.506 254.096 108.494 254.148C108.481 254.201 108.584 254.42 108.723 254.636C108.861 254.852 108.965 255.069 108.953 255.118C108.926 255.234 111.205 258.954 111.321 258.981C111.369 258.993 111.515 259.184 111.645 259.405C111.775 259.627 111.924 259.818 111.977 259.831C112.03 259.844 112.15 259.989 112.244 260.154C112.338 260.32 112.458 260.466 112.512 260.478C112.566 260.491 112.687 260.637 112.78 260.802C112.874 260.968 113.002 261.115 113.063 261.13C113.125 261.144 113.212 261.243 113.255 261.349C113.298 261.454 113.391 261.554 113.461 261.571C113.531 261.588 113.624 261.688 113.667 261.793C113.71 261.899 113.803 261.999 113.873 262.016C113.943 262.033 114.036 262.133 114.079 262.238C114.122 262.344 114.223 262.446 114.303 262.465C114.383 262.484 114.44 262.537 114.429 262.582C114.418 262.627 114.483 262.681 114.573 262.703C114.663 262.724 114.728 262.779 114.717 262.824C114.706 262.869 114.763 262.921 114.843 262.94C114.923 262.959 115.024 263.061 115.067 263.167C115.11 263.273 115.211 263.375 115.291 263.394C115.371 263.413 115.428 263.465 115.417 263.51C115.406 263.556 115.471 263.61 115.561 263.631C115.651 263.653 115.716 263.707 115.705 263.752C115.694 263.797 115.759 263.852 115.849 263.873C115.939 263.895 116.003 263.949 115.993 263.994C115.982 264.039 116.047 264.094 116.137 264.115C116.226 264.137 116.291 264.191 116.28 264.236C116.27 264.281 116.334 264.336 116.424 264.357C116.514 264.379 116.579 264.433 116.568 264.478C116.558 264.523 116.622 264.578 116.712 264.599C116.802 264.621 116.867 264.675 116.856 264.72C116.845 264.765 116.91 264.82 117 264.841C117.09 264.863 117.155 264.917 117.144 264.962C117.133 265.007 117.198 265.062 117.288 265.083C117.378 265.104 117.442 265.159 117.432 265.204C117.421 265.249 117.523 265.312 117.657 265.344C117.792 265.377 117.894 265.44 117.883 265.485C117.872 265.53 117.937 265.584 118.027 265.606C118.117 265.627 118.182 265.682 118.171 265.727C118.16 265.772 118.225 265.826 118.315 265.848C118.405 265.869 118.469 265.924 118.459 265.969C118.448 266.014 118.513 266.068 118.603 266.09C118.692 266.111 118.757 266.166 118.746 266.211C118.736 266.256 118.837 266.319 118.972 266.351C119.107 266.383 119.208 266.447 119.198 266.492C119.187 266.537 119.252 266.591 119.342 266.613C119.432 266.634 119.496 266.689 119.486 266.734C119.475 266.779 119.576 266.842 119.711 266.874C119.846 266.906 119.948 266.969 119.937 267.015C119.926 267.06 120.028 267.123 120.162 267.155C120.297 267.187 120.399 267.25 120.388 267.295C120.377 267.341 120.479 267.404 120.614 267.436C120.749 267.468 120.85 267.531 120.839 267.576C120.829 267.621 120.93 267.685 121.065 267.717C121.2 267.749 121.301 267.812 121.291 267.857C121.28 267.902 121.381 267.966 121.516 267.998C121.651 268.03 121.753 268.093 121.742 268.138C121.731 268.183 121.833 268.247 121.968 268.279C122.102 268.311 122.204 268.374 122.193 268.419C122.183 268.464 122.321 268.536 122.501 268.579C122.68 268.622 122.819 268.694 122.808 268.739C122.797 268.784 122.899 268.847 123.034 268.88C123.169 268.912 123.27 268.975 123.259 269.02C123.249 269.065 123.35 269.128 123.485 269.161C123.62 269.193 123.721 269.256 123.711 269.301C123.7 269.346 123.875 269.427 124.1 269.48C124.324 269.534 124.5 269.615 124.489 269.66C124.478 269.705 124.616 269.777 124.796 269.82C124.976 269.863 125.114 269.935 125.104 269.98C125.093 270.025 125.231 270.097 125.411 270.14C125.591 270.183 125.729 270.255 125.718 270.3C125.708 270.345 125.809 270.408 125.944 270.44C126.079 270.472 126.18 270.536 126.17 270.581C126.159 270.626 126.297 270.698 126.477 270.741C126.657 270.784 126.795 270.856 126.784 270.901C126.774 270.946 126.949 271.026 127.173 271.08C127.398 271.134 127.573 271.214 127.563 271.26C127.552 271.305 127.69 271.377 127.87 271.42C128.05 271.462 128.188 271.534 128.177 271.579C128.167 271.625 128.305 271.697 128.485 271.739C128.664 271.782 128.803 271.854 128.792 271.899C128.781 271.944 128.956 272.025 129.181 272.079C129.406 272.133 129.581 272.213 129.57 272.258C129.559 272.304 129.769 272.392 130.041 272.457C130.314 272.522 130.523 272.611 130.512 272.656C130.501 272.701 130.676 272.782 130.901 272.836C131.126 272.889 131.301 272.97 131.29 273.015C131.279 273.061 131.489 273.149 131.761 273.214C132.033 273.279 132.243 273.368 132.232 273.413C132.221 273.458 132.396 273.539 132.621 273.593C132.846 273.646 133.021 273.727 133.01 273.772C132.999 273.818 133.208 273.906 133.481 273.971C133.753 274.036 133.963 274.124 133.952 274.17C133.941 274.216 134.15 274.304 134.423 274.369C134.695 274.434 134.904 274.522 134.893 274.568C134.883 274.614 135.092 274.702 135.364 274.767C135.637 274.832 135.846 274.92 135.835 274.966C135.824 275.011 136.034 275.1 136.306 275.165C136.578 275.23 136.788 275.318 136.777 275.364C136.765 275.412 137.03 275.511 137.411 275.602C137.793 275.693 138.057 275.792 138.045 275.84C138.034 275.888 138.326 275.993 138.761 276.097C139.197 276.201 139.489 276.306 139.477 276.355C139.466 276.402 139.73 276.502 140.112 276.593C140.493 276.684 140.757 276.783 140.746 276.831C140.734 276.879 141.026 276.984 141.462 277.088C141.898 277.192 142.19 277.297 142.178 277.346C142.167 277.393 142.431 277.492 142.812 277.583C143.194 277.674 143.458 277.774 143.447 277.821C143.435 277.871 143.754 277.981 144.245 278.098C144.735 278.215 145.054 278.326 145.042 278.375C145.031 278.425 145.35 278.535 145.84 278.652C146.33 278.769 146.65 278.88 146.638 278.929C146.626 278.979 147 279.102 147.599 279.245C148.198 279.388 148.572 279.511 148.56 279.561C148.548 279.612 148.949 279.741 149.603 279.897C150.257 280.053 150.658 280.182 150.646 280.232C150.634 280.283 151.09 280.425 151.853 280.607C152.615 280.789 153.071 280.93 153.059 280.981C153.047 281.033 153.666 281.213 154.756 281.473C155.846 281.733 156.465 281.912 156.453 281.964C156.44 282.016 157.087 282.202 158.231 282.475C159.376 282.748 160.022 282.934 160.01 282.986C159.997 283.039 160.808 283.263 162.279 283.614C163.75 283.965 164.56 284.189 164.548 284.242C164.535 284.296 167.661 285.071 173.764 286.527C179.867 287.983 183.006 288.703 183.019 288.649C183.032 288.596 183.747 288.736 185 289.035C186.254 289.334 186.969 289.473 186.982 289.421C186.994 289.369 187.519 289.462 188.391 289.67C189.262 289.878 189.787 289.971 189.8 289.92C189.812 289.869 190.28 289.948 191.038 290.129C191.937 290.343 192.275 290.395 192.323 290.327C192.373 290.257 192.405 290.27 192.454 290.38C192.503 290.49 192.535 290.503 192.585 290.433C192.632 290.366 192.922 290.405 193.625 290.573C194.22 290.715 194.606 290.773 194.618 290.723C194.63 290.673 195.019 290.732 195.619 290.875C196.218 291.018 196.607 291.077 196.619 291.027C196.631 290.978 196.938 291.017 197.374 291.121C197.81 291.225 198.118 291.263 198.129 291.214C198.141 291.166 198.449 291.204 198.884 291.308C199.32 291.412 199.628 291.45 199.64 291.401C199.651 291.353 199.932 291.384 200.313 291.475C200.694 291.566 200.975 291.597 200.986 291.549C200.998 291.501 201.278 291.532 201.66 291.623C202.041 291.714 202.322 291.745 202.333 291.697C202.345 291.65 202.625 291.68 203.007 291.771C203.388 291.862 203.669 291.893 203.68 291.845C203.691 291.799 203.945 291.822 204.272 291.9C204.599 291.978 204.852 292.001 204.863 291.954C204.875 291.907 205.155 291.938 205.537 292.029C205.918 292.12 206.199 292.15 206.21 292.103C206.221 292.057 206.448 292.073 206.72 292.138C206.993 292.203 207.219 292.218 207.23 292.173C207.241 292.126 207.495 292.149 207.822 292.227C208.149 292.305 208.402 292.328 208.414 292.282C208.424 292.237 208.617 292.244 208.842 292.297C209.067 292.351 209.259 292.358 209.27 292.313C209.281 292.267 209.508 292.283 209.78 292.348C210.052 292.413 210.279 292.428 210.29 292.383C210.301 292.338 210.493 292.345 210.718 292.398C210.943 292.452 211.136 292.459 211.146 292.414C211.157 292.369 211.35 292.376 211.575 292.429C211.799 292.483 211.992 292.49 212.003 292.445C212.014 292.4 212.206 292.407 212.431 292.46C212.656 292.514 212.848 292.521 212.859 292.476C212.87 292.431 213.063 292.438 213.287 292.492C213.512 292.545 213.705 292.552 213.716 292.507C213.727 292.461 213.953 292.477 214.226 292.542C214.498 292.607 214.725 292.623 214.736 292.577C214.746 292.532 214.939 292.539 215.164 292.593C215.389 292.646 215.581 292.653 215.592 292.608C215.603 292.563 215.759 292.561 215.938 292.604C216.118 292.647 216.274 292.645 216.285 292.6C216.296 292.555 216.488 292.562 216.713 292.616C216.938 292.669 217.131 292.676 217.141 292.631C217.152 292.586 217.308 292.584 217.488 292.627C217.668 292.67 217.824 292.668 217.834 292.623C217.845 292.578 218.001 292.577 218.181 292.619C218.361 292.662 218.517 292.661 218.527 292.615C218.538 292.57 218.694 292.569 218.874 292.611C219.054 292.654 219.21 292.653 219.22 292.608C219.231 292.562 219.387 292.561 219.567 292.604C219.747 292.646 219.903 292.645 219.913 292.6C219.924 292.554 220.08 292.553 220.26 292.596C220.44 292.639 220.596 292.637 220.606 292.592C220.617 292.547 220.81 292.554 221.034 292.607C221.259 292.661 221.452 292.668 221.463 292.623C221.473 292.578 221.629 292.576 221.809 292.619C221.989 292.662 222.145 292.66 222.156 292.615C222.166 292.57 222.286 292.559 222.42 292.591C222.555 292.623 222.674 292.613 222.685 292.568C222.696 292.523 222.852 292.521 223.032 292.564C223.211 292.607 223.367 292.605 223.378 292.56C223.389 292.515 223.508 292.504 223.643 292.536C223.778 292.569 223.897 292.558 223.908 292.513C223.918 292.468 224.074 292.466 224.254 292.509C224.434 292.552 224.59 292.55 224.601 292.505C224.611 292.46 224.731 292.449 224.865 292.482C225 292.514 225.119 292.503 225.13 292.458C225.141 292.413 225.26 292.402 225.395 292.435C225.53 292.467 225.649 292.456 225.66 292.411C225.67 292.366 225.826 292.364 226.006 292.407C226.186 292.45 226.342 292.448 226.353 292.403C226.363 292.358 226.483 292.348 226.617 292.38C226.752 292.412 226.871 292.401 226.882 292.356C226.893 292.311 227.012 292.301 227.147 292.333C227.282 292.365 227.401 292.354 227.412 292.309C227.422 292.264 227.542 292.254 227.676 292.286C227.811 292.318 227.93 292.308 227.941 292.262C227.952 292.217 228.071 292.207 228.206 292.239C228.341 292.271 228.46 292.261 228.471 292.215C228.481 292.17 228.601 292.16 228.735 292.192C228.87 292.224 228.989 292.214 229 292.169C229.011 292.123 229.13 292.113 229.265 292.145C229.4 292.177 229.519 292.167 229.53 292.122C229.54 292.077 229.66 292.066 229.794 292.098C229.929 292.13 230.048 292.12 230.059 292.075C230.07 292.03 230.189 292.019 230.324 292.051C230.459 292.083 230.578 292.073 230.589 292.028C230.599 291.983 230.719 291.972 230.853 292.004C230.988 292.036 231.107 292.026 231.118 291.981C231.129 291.936 231.248 291.925 231.383 291.957C231.518 291.99 231.637 291.979 231.648 291.934C231.658 291.889 231.741 291.869 231.831 291.891C231.921 291.912 232.003 291.893 232.014 291.848C232.024 291.803 232.107 291.784 232.197 291.805C232.287 291.826 232.369 291.807 232.38 291.762C232.391 291.717 232.51 291.706 232.645 291.739C232.779 291.771 232.899 291.76 232.909 291.715C232.92 291.67 233.002 291.651 233.092 291.672C233.182 291.694 233.265 291.674 233.275 291.629C233.286 291.584 233.368 291.565 233.458 291.586C233.548 291.608 233.631 291.588 233.641 291.543C233.652 291.498 233.734 291.479 233.824 291.5C233.914 291.522 233.997 291.502 234.007 291.457C234.018 291.412 234.1 291.393 234.19 291.414C234.28 291.436 234.363 291.416 234.373 291.371C234.384 291.326 234.467 291.307 234.556 291.328C234.646 291.35 234.729 291.33 234.739 291.285C234.75 291.24 234.824 291.219 234.904 291.238C234.984 291.257 235.12 291.212 235.207 291.137C235.293 291.062 235.429 291.017 235.509 291.036C235.589 291.055 235.663 291.034 235.674 290.989C235.685 290.944 235.759 290.922 235.839 290.941C235.919 290.96 236.055 290.915 236.141 290.84C236.228 290.766 236.356 290.718 236.426 290.735C236.496 290.751 236.624 290.704 236.71 290.629C236.796 290.555 236.924 290.507 236.994 290.524C237.064 290.541 237.192 290.493 237.279 290.418C237.365 290.344 237.493 290.296 237.563 290.313C237.633 290.33 237.761 290.282 237.847 290.208C237.934 290.133 238.055 290.084 238.117 290.099C238.179 290.113 238.359 290.039 238.517 289.934C238.675 289.829 238.848 289.753 238.901 289.766C238.954 289.779 239.174 289.675 239.39 289.536C239.605 289.397 239.822 289.293 239.871 289.304C239.987 289.332 242.686 287.667 242.714 287.551C242.726 287.502 242.916 287.355 243.137 287.225C243.358 287.094 243.55 286.944 243.562 286.891C243.575 286.838 243.72 286.718 243.885 286.624C244.05 286.529 244.198 286.401 244.212 286.339C244.227 286.277 244.326 286.191 244.431 286.147C244.536 286.104 244.636 286.011 244.653 285.94C244.67 285.87 244.77 285.777 244.875 285.733C244.981 285.69 245.083 285.589 245.102 285.508C245.121 285.428 245.173 285.371 245.218 285.382C245.263 285.393 245.318 285.328 245.339 285.238C245.361 285.148 245.415 285.083 245.46 285.093C245.505 285.104 245.559 285.039 245.581 284.949C245.602 284.859 245.657 284.794 245.702 284.804C245.747 284.815 245.801 284.75 245.822 284.66C245.844 284.57 245.898 284.505 245.943 284.516C245.988 284.526 246.043 284.461 246.064 284.371C246.086 284.281 246.14 284.216 246.185 284.227C246.23 284.237 246.284 284.172 246.306 284.082C246.327 283.992 246.382 283.927 246.427 283.938C246.472 283.949 246.526 283.884 246.548 283.793C246.569 283.703 246.623 283.638 246.668 283.649C246.713 283.66 246.768 283.595 246.789 283.505C246.811 283.414 246.865 283.349 246.91 283.36C246.955 283.371 247.018 283.269 247.05 283.134C247.083 282.998 247.146 282.897 247.191 282.907C247.236 282.918 247.29 282.853 247.312 282.763C247.333 282.673 247.388 282.608 247.433 282.618C247.478 282.629 247.541 282.527 247.573 282.392C247.605 282.257 247.668 282.155 247.713 282.166C247.758 282.176 247.821 282.074 247.854 281.939C247.886 281.804 247.949 281.702 247.994 281.713C248.039 281.724 248.111 281.585 248.154 281.404C248.197 281.224 248.269 281.085 248.314 281.096C248.359 281.107 248.44 280.931 248.494 280.706C248.547 280.48 248.628 280.305 248.673 280.315C248.718 280.326 248.799 280.15 248.853 279.925C248.906 279.7 248.987 279.524 249.032 279.535C249.081 279.546 249.186 279.254 249.29 278.817C249.394 278.379 249.499 278.087 249.548 278.098C249.598 278.11 249.734 277.681 249.903 276.97C250.073 276.26 250.146 275.815 250.095 275.803C250.046 275.792 250.092 275.456 250.209 274.964C250.326 274.472 250.372 274.137 250.323 274.125C250.278 274.114 250.285 273.921 250.339 273.696C250.393 273.47 250.4 273.277 250.355 273.266C250.31 273.256 250.317 273.062 250.371 272.837C250.425 272.612 250.432 272.418 250.387 272.408C250.342 272.397 250.34 272.241 250.383 272.06C250.426 271.88 250.425 271.724 250.38 271.713C250.335 271.702 250.333 271.546 250.376 271.366C250.419 271.185 250.418 271.029 250.373 271.018C250.328 271.007 250.318 270.888 250.35 270.753C250.382 270.618 250.372 270.498 250.327 270.487C250.282 270.477 250.271 270.357 250.304 270.222C250.336 270.087 250.326 269.967 250.281 269.957C250.236 269.946 250.225 269.826 250.258 269.691C250.29 269.556 250.279 269.437 250.235 269.426C250.19 269.415 250.179 269.296 250.211 269.16C250.244 269.025 250.233 268.906 250.188 268.895C250.143 268.884 250.133 268.765 250.165 268.63C250.198 268.494 250.187 268.375 250.142 268.364C250.097 268.353 250.087 268.234 250.119 268.099C250.151 267.964 250.141 267.844 250.096 267.833C250.051 267.823 250.041 267.703 250.073 267.568C250.105 267.433 250.095 267.313 250.05 267.303C250.005 267.292 249.986 267.209 250.007 267.119C250.029 267.029 250.01 266.946 249.965 266.936C249.92 266.925 249.909 266.806 249.942 266.67C249.974 266.535 249.964 266.416 249.919 266.405C249.874 266.394 249.854 266.312 249.876 266.222C249.898 266.131 249.878 266.049 249.833 266.038C249.788 266.027 249.778 265.908 249.81 265.773C249.843 265.637 249.832 265.518 249.787 265.507C249.742 265.497 249.723 265.414 249.745 265.324C249.766 265.234 249.747 265.151 249.702 265.14C249.657 265.13 249.638 265.047 249.659 264.957C249.681 264.867 249.662 264.784 249.617 264.774C249.572 264.763 249.553 264.68 249.574 264.59C249.596 264.5 249.576 264.417 249.532 264.407C249.487 264.396 249.467 264.313 249.489 264.223C249.51 264.133 249.491 264.051 249.446 264.04C249.401 264.029 249.382 263.947 249.404 263.856C249.425 263.766 249.406 263.684 249.361 263.673C249.316 263.662 249.306 263.543 249.338 263.408C249.37 263.272 249.36 263.153 249.315 263.142C249.27 263.131 249.251 263.049 249.272 262.959C249.294 262.869 249.275 262.786 249.23 262.775C249.185 262.765 249.164 262.69 249.183 262.61C249.202 262.53 249.157 262.393 249.082 262.307C249.008 262.221 248.963 262.084 248.982 262.004C249.001 261.924 248.98 261.849 248.935 261.839C248.89 261.828 248.871 261.745 248.892 261.655C248.914 261.565 248.895 261.482 248.85 261.472C248.805 261.461 248.785 261.378 248.807 261.288C248.828 261.198 248.809 261.116 248.764 261.105C248.719 261.094 248.698 261.02 248.717 260.94C248.737 260.859 248.691 260.723 248.617 260.637C248.543 260.55 248.497 260.414 248.516 260.334C248.536 260.253 248.514 260.179 248.469 260.168C248.425 260.158 248.405 260.075 248.427 259.985C248.448 259.895 248.429 259.812 248.384 259.801C248.339 259.791 248.318 259.716 248.337 259.636C248.356 259.556 248.311 259.419 248.237 259.333C248.162 259.247 248.115 259.118 248.132 259.048C248.149 258.978 248.102 258.85 248.027 258.763C247.953 258.677 247.908 258.54 247.927 258.46C247.946 258.38 247.925 258.306 247.88 258.295C247.835 258.284 247.814 258.21 247.833 258.13C247.852 258.049 247.807 257.913 247.732 257.827C247.658 257.74 247.613 257.604 247.632 257.524C247.651 257.443 247.63 257.369 247.585 257.358C247.54 257.348 247.517 257.28 247.535 257.208C247.552 257.136 247.48 256.947 247.375 256.788C247.271 256.63 247.196 256.456 247.208 256.402C247.221 256.348 247.146 256.174 247.041 256.016C246.937 255.857 246.863 255.677 246.878 255.615C246.893 255.552 246.844 255.431 246.77 255.344C246.695 255.258 246.646 255.137 246.661 255.076C246.676 255.015 246.574 254.788 246.436 254.572C246.297 254.356 246.194 254.136 246.207 254.084C246.219 254.032 246.116 253.812 245.977 253.596C245.839 253.38 245.736 253.162 245.748 253.111C245.76 253.06 245.573 252.702 245.333 252.316C245.092 251.93 244.905 251.575 244.916 251.527C244.943 251.414 243.037 248.303 242.924 248.276C242.877 248.265 242.618 247.891 242.348 247.446C242.078 247 241.817 246.626 241.767 246.614C241.717 246.602 241.541 246.365 241.376 246.088C241.211 245.81 241.034 245.573 240.983 245.56C240.931 245.548 240.783 245.357 240.653 245.135C240.523 244.914 240.374 244.722 240.321 244.71C240.268 244.697 240.148 244.551 240.055 244.386C239.961 244.221 239.84 244.075 239.786 244.062C239.732 244.049 239.612 243.904 239.518 243.738C239.424 243.573 239.297 243.426 239.235 243.411C239.173 243.396 239.087 243.298 239.044 243.192C239 243.086 238.914 242.988 238.852 242.973C238.79 242.958 238.663 242.811 238.569 242.646C238.476 242.48 238.348 242.333 238.286 242.318C238.224 242.303 238.138 242.205 238.095 242.099C238.052 241.994 237.959 241.894 237.889 241.877C237.819 241.86 237.726 241.76 237.683 241.654C237.639 241.549 237.539 241.447 237.459 241.428C237.379 241.409 237.322 241.356 237.333 241.311C237.344 241.266 237.287 241.213 237.207 241.194C237.127 241.175 237.026 241.073 236.983 240.968C236.939 240.862 236.847 240.762 236.777 240.745C236.707 240.729 236.614 240.628 236.571 240.523C236.527 240.417 236.435 240.317 236.365 240.3C236.295 240.284 236.202 240.184 236.158 240.078C236.115 239.972 236.014 239.87 235.934 239.851C235.854 239.832 235.798 239.78 235.808 239.735C235.819 239.689 235.754 239.635 235.665 239.614C235.575 239.592 235.51 239.538 235.521 239.493C235.531 239.448 235.475 239.395 235.395 239.376C235.315 239.357 235.214 239.255 235.171 239.149C235.127 239.044 235.027 238.942 234.947 238.922C234.867 238.903 234.81 238.851 234.821 238.806C234.831 238.761 234.767 238.706 234.677 238.685C234.587 238.663 234.522 238.609 234.533 238.564C234.544 238.519 234.479 238.464 234.389 238.443C234.299 238.421 234.234 238.367 234.245 238.322C234.256 238.277 234.191 238.222 234.101 238.201C234.011 238.18 233.946 238.125 233.957 238.08C233.968 238.035 233.903 237.98 233.813 237.959C233.723 237.938 233.659 237.883 233.669 237.838C233.68 237.793 233.615 237.739 233.525 237.717C233.436 237.696 233.371 237.641 233.382 237.596C233.392 237.551 233.328 237.497 233.238 237.475C233.148 237.454 233.083 237.399 233.094 237.354C233.104 237.309 233.04 237.255 232.95 237.233C232.86 237.212 232.795 237.157 232.806 237.112C232.817 237.067 232.752 237.013 232.662 236.991C232.572 236.97 232.507 236.915 232.518 236.87C232.529 236.825 232.464 236.771 232.374 236.749C232.284 236.728 232.22 236.673 232.23 236.628C232.241 236.583 232.176 236.529 232.086 236.507C231.996 236.486 231.932 236.432 231.942 236.386C231.953 236.341 231.888 236.287 231.799 236.266C231.709 236.244 231.644 236.19 231.655 236.145C231.665 236.099 231.601 236.045 231.511 236.024C231.421 236.002 231.356 235.948 231.367 235.903C231.378 235.858 231.276 235.794 231.141 235.762C231.006 235.73 230.905 235.667 230.916 235.622C230.926 235.577 230.862 235.522 230.772 235.501C230.682 235.479 230.617 235.425 230.628 235.38C230.638 235.335 230.574 235.28 230.484 235.259C230.394 235.237 230.329 235.183 230.34 235.138C230.351 235.093 230.249 235.03 230.114 234.997C229.979 234.965 229.878 234.902 229.889 234.857C229.899 234.812 229.835 234.757 229.745 234.736C229.655 234.714 229.59 234.66 229.601 234.615C229.612 234.57 229.51 234.507 229.375 234.474C229.24 234.442 229.139 234.379 229.15 234.334C229.16 234.289 229.096 234.235 229.006 234.213C228.916 234.192 228.851 234.137 228.862 234.092C228.872 234.047 228.771 233.984 228.636 233.952C228.501 233.919 228.4 233.856 228.41 233.811C228.421 233.766 228.32 233.703 228.185 233.671C228.05 233.639 227.948 233.575 227.959 233.53C227.97 233.485 227.868 233.422 227.733 233.39C227.599 233.358 227.497 233.294 227.508 233.249C227.519 233.204 227.417 233.141 227.282 233.109C227.147 233.077 227.046 233.013 227.057 232.968C227.067 232.923 226.966 232.86 226.831 232.828C226.696 232.796 226.595 232.733 226.605 232.687C226.616 232.642 226.514 232.579 226.38 232.547C226.245 232.515 226.143 232.452 226.154 232.407C226.165 232.361 226.026 232.289 225.847 232.247C225.667 232.204 225.528 232.132 225.539 232.087C225.55 232.041 225.448 231.978 225.314 231.946C225.123 231.901 225.06 231.924 225.029 232.052C225.008 232.142 225.027 232.224 225.072 232.235C225.125 232.248 224.886 233.375 224.391 235.451C223.896 237.528 223.6 238.641 223.547 238.628C223.498 238.617 223.387 238.937 223.269 239.429C223.152 239.92 223.041 240.24 222.992 240.229C222.945 240.218 222.852 240.455 222.773 240.783C222.695 241.111 222.601 241.348 222.555 241.337C222.509 241.326 222.421 241.536 222.356 241.81C222.291 242.083 222.202 242.293 222.157 242.282C222.111 242.271 222.023 242.481 221.958 242.754C221.892 243.027 221.804 243.237 221.758 243.226C221.714 243.216 221.642 243.354 221.599 243.535C221.556 243.715 221.484 243.854 221.439 243.843C221.394 243.832 221.313 244.008 221.259 244.233C221.205 244.459 221.125 244.635 221.08 244.624C221.035 244.613 220.963 244.752 220.92 244.932C220.877 245.112 220.805 245.251 220.76 245.241C220.715 245.23 220.634 245.405 220.58 245.631C220.526 245.856 220.446 246.032 220.401 246.021C220.356 246.01 220.284 246.149 220.241 246.33C220.198 246.51 220.126 246.649 220.081 246.638C220.036 246.627 219.973 246.729 219.94 246.864C219.908 247 219.845 247.101 219.8 247.091C219.755 247.08 219.683 247.219 219.64 247.399C219.597 247.579 219.525 247.718 219.48 247.707C219.435 247.697 219.372 247.799 219.34 247.934C219.307 248.069 219.244 248.171 219.199 248.16C219.154 248.15 219.091 248.251 219.059 248.387C219.027 248.522 218.963 248.624 218.918 248.613C218.873 248.602 218.81 248.704 218.778 248.839C218.746 248.975 218.683 249.077 218.638 249.066C218.593 249.055 218.529 249.157 218.497 249.292C218.465 249.428 218.402 249.529 218.357 249.519C218.312 249.508 218.249 249.61 218.216 249.745C218.184 249.88 218.121 249.982 218.076 249.971C218.031 249.961 217.959 250.099 217.916 250.28C217.873 250.46 217.801 250.599 217.756 250.588C217.711 250.577 217.657 250.642 217.635 250.733C217.614 250.823 217.559 250.888 217.514 250.877C217.469 250.866 217.406 250.968 217.374 251.103C217.342 251.239 217.279 251.341 217.234 251.33C217.189 251.319 217.134 251.384 217.113 251.474C217.091 251.564 217.037 251.629 216.992 251.619C216.947 251.608 216.893 251.673 216.871 251.763C216.85 251.853 216.795 251.918 216.75 251.908C216.705 251.897 216.651 251.962 216.629 252.052C216.608 252.142 216.554 252.207 216.509 252.196C216.464 252.186 216.4 252.288 216.368 252.423C216.336 252.558 216.273 252.66 216.228 252.649C216.183 252.639 216.128 252.704 216.107 252.794C216.085 252.884 216.031 252.949 215.986 252.938C215.941 252.927 215.887 252.992 215.865 253.083C215.844 253.173 215.789 253.238 215.744 253.227C215.699 253.216 215.647 253.273 215.628 253.353C215.609 253.434 215.507 253.535 215.401 253.578C215.296 253.622 215.194 253.723 215.175 253.803C215.156 253.883 215.103 253.94 215.058 253.93C215.013 253.919 214.961 253.976 214.942 254.056C214.923 254.136 214.821 254.237 214.715 254.281C214.61 254.325 214.508 254.426 214.489 254.506C214.47 254.586 214.417 254.643 214.372 254.632C214.328 254.622 214.275 254.678 214.256 254.759C214.237 254.839 214.135 254.94 214.03 254.984C213.924 255.027 213.822 255.128 213.803 255.209C213.784 255.289 213.731 255.346 213.687 255.335C213.642 255.324 213.587 255.389 213.566 255.479C213.544 255.57 213.49 255.635 213.445 255.624C213.4 255.613 213.347 255.67 213.328 255.75C213.309 255.83 213.207 255.932 213.102 255.975C212.996 256.019 212.895 256.12 212.875 256.2C212.856 256.28 212.804 256.337 212.759 256.327C212.714 256.316 212.66 256.381 212.638 256.471C212.617 256.561 212.562 256.626 212.517 256.615C212.464 256.603 212.709 255.448 213.218 253.317C213.726 251.186 213.971 250.032 213.918 250.019C213.868 250.007 213.941 249.562 214.11 248.852C214.28 248.142 214.353 247.697 214.302 247.685C214.253 247.673 214.299 247.338 214.416 246.846C214.533 246.354 214.579 246.018 214.53 246.007C214.481 245.995 214.526 245.659 214.644 245.168C214.761 244.676 214.807 244.34 214.758 244.328C214.71 244.317 214.741 244.036 214.832 243.653C214.924 243.271 214.955 242.989 214.907 242.978C214.86 242.967 214.884 242.712 214.962 242.385C215.04 242.057 215.064 241.802 215.017 241.791C214.97 241.78 215.001 241.499 215.092 241.116C215.183 240.734 215.214 240.452 215.167 240.441C215.121 240.43 215.137 240.203 215.202 239.93C215.268 239.656 215.283 239.429 215.238 239.418C215.193 239.407 215.208 239.18 215.274 238.907C215.339 238.634 215.355 238.407 215.309 238.396C215.264 238.385 215.28 238.158 215.345 237.884C215.41 237.611 215.426 237.384 215.38 237.373C215.335 237.362 215.343 237.169 215.396 236.944C215.45 236.718 215.457 236.525 215.412 236.514C215.367 236.504 215.383 236.276 215.448 236.003C215.513 235.73 215.529 235.503 215.484 235.492C215.439 235.481 215.446 235.288 215.5 235.063C215.553 234.837 215.561 234.644 215.516 234.633C215.471 234.622 215.478 234.429 215.532 234.204C215.586 233.978 215.593 233.785 215.548 233.775C215.503 233.764 215.501 233.607 215.544 233.427C215.587 233.247 215.586 233.091 215.541 233.08C215.496 233.069 215.494 232.913 215.537 232.732C215.58 232.552 215.579 232.396 215.534 232.385C215.489 232.374 215.478 232.255 215.511 232.12C215.543 231.984 215.533 231.865 215.488 231.854C215.443 231.844 215.441 231.687 215.484 231.507C215.527 231.327 215.526 231.17 215.481 231.16C215.436 231.149 215.434 230.992 215.477 230.812C215.52 230.632 215.519 230.476 215.474 230.465C215.429 230.454 215.418 230.335 215.451 230.199C215.483 230.064 215.472 229.945 215.427 229.934C215.383 229.923 215.381 229.767 215.424 229.587C215.467 229.406 215.465 229.25 215.42 229.239C215.376 229.229 215.374 229.072 215.417 228.892C215.46 228.712 215.458 228.555 215.413 228.545C215.368 228.534 215.367 228.377 215.41 228.197C215.453 228.017 215.451 227.861 215.406 227.85C215.361 227.839 215.351 227.72 215.383 227.584C215.436 227.366 215.415 227.332 215.197 227.28C215.062 227.248 214.96 227.185 214.971 227.14C214.982 227.094 214.807 227.014 214.582 226.96C214.357 226.906 214.182 226.826 214.193 226.781C214.204 226.735 213.995 226.647 213.722 226.582C213.45 226.517 213.24 226.428 213.251 226.383C213.264 226.33 212.263 226.06 210.41 225.618C208.558 225.176 207.543 224.965 207.53 225.018Z" fill="#BFCCD6"/>
<path fill-rule="evenodd" clip-rule="evenodd" d="M343.687 94.876C323.433 99.627 307.742 103.571 307.739 103.912C307.728 105.232 312.462 110.974 315.737 113.613C319.817 116.901 326.321 120.382 331.96 122.296C335.893 123.63 344.063 125.297 346.674 125.297C347.698 125.297 351.547 121.153 364.504 106.098C373.592 95.5379 381.028 86.7696 381.028 86.6126C381.028 86.1243 380.538 86.2329 343.687 94.876ZM372.915 99.7706C367.068 106.587 359.453 115.471 355.99 119.512L349.696 126.862V141.972V157.082L365.417 138.823C374.063 128.781 381.746 119.784 382.49 118.83L383.844 117.095L383.695 102.237L383.546 87.3781L372.915 99.7706ZM361.779 100.428C363.004 101.476 363.22 102.015 362.909 103.248C362.07 106.573 354.953 107.398 352.047 104.506C350.784 103.25 350.691 102.908 351.268 101.646C352.091 99.8486 353.657 99.2111 357.358 99.1661C359.627 99.1388 360.596 99.4149 361.779 100.428ZM332.352 106.304C334.153 107.614 334.331 108.659 333.028 110.26C330.982 112.774 322.835 112.323 321.982 109.649C320.704 105.64 328.142 103.241 332.352 106.304ZM307.174 122.554V137.169L308.857 139.777C312.728 145.781 321.051 152.033 329.245 155.094C333.809 156.799 341.096 158.552 344.661 158.802L347.178 158.978L347.326 143.39L347.473 127.802L341.633 126.858C328.363 124.713 315.298 118.165 309.352 110.68L307.174 107.938V122.554ZM350.918 112.864C351.477 113.367 351.934 114.101 351.934 114.495C351.934 116.836 345.579 117.86 343.554 115.845C340.514 112.82 347.658 109.928 350.918 112.864ZM378.38 114.332C379.419 117.433 377.605 121.557 375.934 119.894C375.047 119.011 374.739 115.669 375.389 113.983C376.151 112.009 377.662 112.185 378.38 114.332ZM363.17 121.325C364.216 122.167 364.503 123.039 364.686 125.918C364.876 128.93 364.726 129.706 363.697 131.003C361.401 133.9 358.651 132.463 357.794 127.92C357.327 125.442 358.336 122.237 359.934 121.123C361.458 120.061 361.613 120.071 363.17 121.325ZM319.731 130.988C321.574 133.605 320.202 138.101 317.562 138.101C315.723 138.101 314.728 136.635 314.728 133.926C314.728 132.642 315.073 131.177 315.495 130.671C316.581 129.37 318.704 129.529 319.731 130.988ZM338.252 132.231C340.173 134.143 340.175 137.906 338.253 139.969C336.479 141.873 335.45 141.826 333.358 139.745C331.82 138.214 331.681 137.794 331.947 135.453C332.433 131.157 335.565 129.557 338.252 132.231Z" fill="#BFCCD6"/>
<path fill-rule="evenodd" clip-rule="evenodd" d="M365.503 209.451C364.394 210.552 362.348 215.072 361.839 217.547C361.367 219.841 361.398 225.833 361.887 227.016C362.075 227.47 362.026 227.518 361.569 227.326C358.546 226.057 357.18 225.716 354.56 225.58C351.314 225.411 348.702 225.754 345.544 226.763C335.183 230.075 326.048 239.244 323.026 249.367C321.988 252.847 321.912 257.922 322.856 260.73C323.202 261.76 323.485 262.64 323.485 262.684C323.485 262.729 322.061 262.777 320.321 262.791C318.427 262.806 316.311 263.009 315.048 263.296C310.882 264.244 307.174 266.616 307.174 268.333C307.174 269.021 308.408 270.261 309.405 270.575C310.252 270.842 311.627 273.129 311.816 274.587C311.909 275.3 312.052 276.351 312.134 276.921C312.339 278.355 313.639 280.024 315.093 280.723C315.765 281.046 317.245 281.441 318.384 281.601C319.522 281.761 320.661 282.005 320.915 282.144C321.168 282.282 322.138 283.44 323.069 284.717C325.49 288.038 326.329 288.227 328.158 285.864C330.395 282.972 331.788 277.744 331.579 273.023C331.509 271.45 331.507 270.162 331.576 270.162C331.644 270.162 332.477 270.372 333.428 270.627C335.625 271.218 340.617 271.228 343.316 270.645C352.545 268.654 362.049 261.172 366.446 252.438C369.905 245.566 370.317 239.659 367.767 233.496C367.575 233.03 367.649 232.997 368.484 233.179C370.118 233.535 375.565 233.38 377.761 232.914C381.872 232.042 385.916 229.533 385.916 227.853C385.916 227.107 384.79 225.781 384.156 225.781C383.721 225.781 382.198 224.26 381.734 223.361C381.562 223.028 381.293 221.861 381.137 220.767C380.546 216.63 379.044 215.179 374.749 214.595C373.544 214.431 372.284 214.122 371.948 213.907C371.612 213.692 370.675 212.564 369.864 211.401C367.865 208.53 366.877 208.088 365.503 209.451Z" fill="#8A9BA8"/>
<path fill-rule="evenodd" clip-rule="evenodd" d="M479.837 52.4387C478.99 52.4478 477.585 52.5615 476.714 52.6908C474.844 52.9693 474.566 53.454 473.587 58.1411C472.429 63.6862 473.46 68.4486 476.918 73.5302C481.64 80.4695 488.998 84.8561 498.067 86.1397C500.432 86.4745 503.327 86.7049 504.499 86.6515C506.613 86.556 506.635 86.5429 507.032 85.0849C507.253 84.2762 507.417 81.9304 507.397 79.8716C507.295 69.335 501.171 59.5163 491.991 55.1698C489.078 53.7909 482.91 52.4047 479.837 52.4387ZM469.563 54.6921C461.135 58.4993 455.131 65.834 453.301 74.5583C452.931 76.3217 452.723 77.9079 452.84 78.0826C452.956 78.2576 453.888 78.3558 454.911 78.301C461.38 77.9541 468.172 73.9026 470.613 68.934C471.172 67.7946 471.197 67.2138 470.783 64.937C470.367 62.6548 470.41 61.6763 471.079 58.1091C471.509 55.8188 471.76 53.9245 471.638 53.9C471.516 53.8751 470.582 54.2317 469.563 54.6921ZM453.081 51.2548C449.511 51.3321 446.161 52.5181 442.892 54.8616C440.254 56.7522 436.123 60.882 435.943 61.8081C435.842 62.3273 436.712 62.7275 440.976 64.1238C445.162 65.4945 448.632 65.7202 452.314 64.8602C454.446 64.3625 454.761 64.1488 456.147 62.2588C457.827 59.9697 462.802 55.2854 464.227 54.652C465.081 54.272 465.1 54.2201 464.505 53.9055C461.437 52.2843 456.665 51.1772 453.081 51.2548ZM508.948 61.7967C508.423 61.7802 507.08 61.7678 505.964 61.7696L503.934 61.7719L505.354 64.0933C506.983 66.7566 508.418 70.1022 508.996 72.5897C509.339 74.063 509.731 74.5629 511.739 76.0918C515.004 78.5773 518.343 79.7526 523.04 80.0706C527.441 80.3682 528.399 80.3216 528.5 79.8042C528.68 78.8781 526.397 73.5012 524.66 70.7601C522.523 67.3882 519.988 65.1346 516.626 63.6201C514.507 62.6654 511.135 61.8647 508.948 61.7967ZM470.684 73.1061C467.591 77.0037 462.317 79.8577 456.863 80.585C455.586 80.7554 454.327 80.8558 454.066 80.808C452.753 80.5692 452.486 81.0846 452.697 83.4542C453.559 93.1318 459.742 101.913 468.618 106.064C473.805 108.49 481.395 109.124 486.847 107.586C495.258 105.213 502.713 98.4552 505.437 90.7364L506.025 89.0691L503.858 89.1475C495.467 89.4507 486.029 86.0894 479.749 80.5596C478.096 79.104 476.235 76.916 474.721 74.6485L472.318 71.0482L470.684 73.1061ZM468.642 87.4449C469.168 88.2234 469.438 89.1261 469.323 89.7178C469.208 90.3095 468.619 91.0451 467.84 91.5699C467.061 92.0947 466.157 92.3647 465.565 92.2495C464.266 91.997 462.777 89.7914 463.029 88.4941C463.144 87.9024 463.733 87.1668 464.512 86.642C465.291 86.1172 466.195 85.8472 466.787 85.9624C467.38 86.0776 468.116 86.6664 468.642 87.4449ZM492.707 92.1239C493.232 92.9023 493.503 93.8051 493.388 94.3968C493.141 95.6646 490.928 97.1809 489.679 96.938C486.988 96.4148 486.38 92.5131 488.777 91.1476C490.378 90.2357 491.644 90.5505 492.707 92.1239ZM473.362 99.3622C473.423 99.708 473.416 100.286 473.346 100.646C473.276 101.007 473.541 101.822 473.936 102.457C475.374 104.772 478.741 104.283 479.991 101.579C480.448 100.591 480.739 100.381 481.463 100.522C483.462 100.911 481.761 104.784 479.089 105.93C476.529 107.027 473.8 106.39 472.099 104.299C471.225 103.225 470.632 100.231 471.096 99.2398C471.56 98.2507 473.181 98.3384 473.362 99.3622ZM490.36 108.979C488.089 110.017 483.267 110.997 480.178 111.048C473.369 111.162 465.096 108.096 460.47 103.746L459.212 102.564L458.514 104.809C457.473 108.16 455.359 112.952 453.69 115.745C452.876 117.107 449.271 125.341 445.677 134.043C442.084 142.745 439.002 150.14 438.828 150.475C438.53 151.052 439.984 151.372 465.749 156.381C488.569 160.818 493.001 161.595 493.084 161.17C493.376 159.666 492.726 124.918 492.36 122.447C491.812 118.759 491.753 115.147 492.176 111.27C492.359 109.601 492.404 108.229 492.277 108.221C492.151 108.214 491.288 108.555 490.36 108.979ZM453.369 102.608C451.885 103.173 446.951 104.987 442.404 106.636C433.327 109.93 432.07 110.561 431.083 112.323C429.142 115.783 431.069 120.085 434.894 120.829C436.304 121.103 437.466 120.801 443.547 118.577L450.571 116.009L452.241 113.071C454.608 108.905 457.188 101.707 456.349 101.611C456.193 101.593 454.853 102.041 453.369 102.608ZM494.646 112.134C494.238 115.63 494.465 121.317 495.106 123.708C495.55 125.364 496.059 125.946 500.652 130.064C506.272 135.102 507.621 135.75 510.34 134.723C513.86 133.395 515.249 128.957 513.079 125.968C512.384 125.01 501.264 114.746 496.422 110.593L494.97 109.348L494.646 112.134ZM442.905 164.332C441.16 173.303 441.107 173.757 441.604 175.469C442.824 179.676 448.108 180.874 451.082 177.617C451.985 176.628 452.183 175.881 453.941 166.847L455.83 157.139L450.276 156.06L444.723 154.98L442.905 164.332ZM472.455 170.447C470.7 179.482 470.603 180.248 471.07 181.503C472.607 185.637 477.955 186.507 480.663 183.063C481.764 181.662 481.885 181.222 483.629 172.25L485.448 162.898L479.894 161.818L474.341 160.739L472.455 170.447Z" fill="#5C7080"/>
<g filter="url(#filter0_ddd_2_118)">
<path fill-rule="evenodd" clip-rule="evenodd" d="M210.439 16.4823C208.394 16.712 202.916 16.9308 198.265 16.9675C188.978 17.0408 186.257 17.687 185.528 19.9897C184.609 22.8957 179.797 27.3683 174.897 29.8715C149.526 42.8289 144.634 45.7457 143.046 48.8619C141.845 51.2225 140.729 57.5969 140.096 65.7248C139.74 70.2931 139.039 78.4129 138.54 83.7688C138.04 89.1247 137.514 95.7397 137.371 98.4692C137.13 103.091 137.196 103.477 138.336 104.088C141.891 105.993 161.967 107.051 163.596 105.418C163.974 105.038 164.588 102.074 164.959 98.8307L165.26 96.1982C165.342 95.4747 166.358 95.3863 166.565 96.0846C167.624 99.667 168.938 105.212 171.655 117.566L173.472 125.831C173.52 126.048 173.544 126.27 173.542 126.493L173.36 156.532L173.185 185.126C173.179 186.223 173.771 187.236 174.731 187.768L175.362 188.118C178.563 189.891 182.334 190.513 192.527 190.95C199.952 191.268 203.794 191.108 213.329 190.087C231.304 188.161 237.46 187.183 242.404 185.468C248.136 183.481 256.199 178.818 256.199 177.492C256.199 176.958 255.84 175.113 255.402 173.393C254.334 169.202 253.488 161.069 252.751 147.925C252.416 141.939 251.896 134.986 251.596 132.474C250.654 124.586 251.112 80.4882 252.125 81.5027C252.302 81.6803 252.848 84.321 253.338 87.3707C254.452 94.3105 254.779 94.5603 262.205 94.1456C267.255 93.8637 275.981 91.7425 277.588 90.4067C278.675 89.5039 278.283 84.7563 275.904 70.021C274.836 63.4048 273.805 56.5739 273.612 54.8411C273.145 50.6394 270.895 43.809 268.737 40.0409C266.449 36.0449 263.994 34.9204 251.002 31.9228C237.123 28.7202 230.433 26.5692 228.743 24.7677C227.983 23.9577 226.706 22.0794 225.907 20.5941C223.472 16.0722 220.678 15.3292 210.439 16.4823Z" fill="#5C7080"/>
</g>
<path d="M5.536 10.784C6.464 10.784 7.27467 11.008 7.968 11.456C8.672 11.8933 9.216 12.5387 9.6 13.392C9.99467 14.2453 10.192 15.28 10.192 16.496C10.192 17.6907 9.99467 18.7147 9.6 19.568C9.216 20.4213 8.672 21.072 7.968 21.52C7.27467 21.968 6.464 22.192 5.536 22.192C4.608 22.192 3.792 21.9733 3.088 21.536C2.39467 21.0987 1.85067 20.4533 1.456 19.6C1.072 18.7467 0.88 17.7173 0.88 16.512C0.88 15.328 1.072 14.304 1.456 13.44C1.85067 12.576 2.4 11.92 3.104 11.472C3.808 11.0133 4.61867 10.784 5.536 10.784ZM5.536 12.032C4.576 12.032 3.82933 12.3947 3.296 13.12C2.76267 13.8453 2.496 14.976 2.496 16.512C2.496 18.0373 2.76267 19.1573 3.296 19.872C3.84 20.5867 4.58667 20.944 5.536 20.944C7.56267 20.944 8.576 19.4613 8.576 16.496C8.576 13.52 7.56267 12.032 5.536 12.032ZM16.2621 13.376C16.5608 13.376 16.8381 13.408 17.0941 13.472L16.8221 14.912C16.5661 14.848 16.3208 14.816 16.0861 14.816C15.5635 14.816 15.1421 15.008 14.8221 15.392C14.5021 15.776 14.2515 16.3733 14.0701 17.184V22H12.5981V13.568H13.8621L14.0061 15.28C14.2301 14.6507 14.5341 14.176 14.9181 13.856C15.3021 13.536 15.7501 13.376 16.2621 13.376ZM23.8875 20.032C23.8875 20.3733 23.9462 20.6293 24.0635 20.8C24.1808 20.96 24.3568 21.0827 24.5915 21.168L24.2555 22.192C23.8182 22.1387 23.4662 22.016 23.1995 21.824C22.9328 21.632 22.7355 21.3333 22.6075 20.928C22.0422 21.7707 21.2048 22.192 20.0955 22.192C19.2635 22.192 18.6075 21.9573 18.1275 21.488C17.6475 21.0187 17.4075 20.4053 17.4075 19.648C17.4075 18.752 17.7275 18.064 18.3675 17.584C19.0182 17.104 19.9355 16.864 21.1195 16.864H22.4155V16.24C22.4155 15.6427 22.2715 15.216 21.9835 14.96C21.6955 14.704 21.2528 14.576 20.6555 14.576C20.0368 14.576 19.2795 14.7253 18.3835 15.024L18.0155 13.952C19.0608 13.568 20.0315 13.376 20.9275 13.376C21.9195 13.376 22.6608 13.6213 23.1515 14.112C23.6422 14.592 23.8875 15.28 23.8875 16.176V20.032ZM20.4315 21.088C21.2742 21.088 21.9355 20.6507 22.4155 19.776V17.84H21.3115C19.7542 17.84 18.9755 18.416 18.9755 19.568C18.9755 20.0693 19.0982 20.448 19.3435 20.704C19.5888 20.96 19.9515 21.088 20.4315 21.088ZM30.8786 13.376C31.6466 13.376 32.244 13.6053 32.6706 14.064C33.108 14.5227 33.3266 15.152 33.3266 15.952V22H31.8546V16.16C31.8546 15.5627 31.7426 15.1413 31.5186 14.896C31.2946 14.6507 30.964 14.528 30.5266 14.528C30.0786 14.528 29.684 14.656 29.3426 14.912C29.0013 15.168 28.6813 15.536 28.3826 16.016V22H26.9106V13.568H28.1746L28.3026 14.816C28.6013 14.368 28.9693 14.016 29.4066 13.76C29.8546 13.504 30.3453 13.376 30.8786 13.376ZM43.0856 13.952C42.7656 14.0587 42.4136 14.128 42.0296 14.16C41.6456 14.192 41.1763 14.208 40.6216 14.208C41.6136 14.656 42.1096 15.3653 42.1096 16.336C42.1096 17.1787 41.8216 17.8667 41.2456 18.4C40.6696 18.9333 39.8856 19.2 38.8936 19.2C38.5096 19.2 38.1523 19.1467 37.8216 19.04C37.6936 19.1253 37.5923 19.2427 37.5176 19.392C37.443 19.5307 37.4056 19.6747 37.4056 19.824C37.4056 20.2827 37.7736 20.512 38.5096 20.512H39.8536C40.419 20.512 40.9203 20.6133 41.3576 20.816C41.795 21.0187 42.131 21.296 42.3656 21.648C42.611 22 42.7336 22.4 42.7336 22.848C42.7336 23.6693 42.3976 24.2987 41.7256 24.736C41.0536 25.184 40.0723 25.408 38.7816 25.408C37.875 25.408 37.155 25.312 36.6216 25.12C36.099 24.9387 35.7256 24.6613 35.5016 24.288C35.2776 23.9147 35.1656 23.4347 35.1656 22.848H36.4936C36.4936 23.1893 36.5576 23.456 36.6856 23.648C36.8136 23.8507 37.043 24 37.3736 24.096C37.7043 24.2027 38.1736 24.256 38.7816 24.256C39.667 24.256 40.2963 24.144 40.6696 23.92C41.0536 23.7067 41.2456 23.3813 41.2456 22.944C41.2456 22.5493 41.0963 22.2507 40.7976 22.048C40.499 21.8453 40.083 21.744 39.5496 21.744H38.2216C37.507 21.744 36.963 21.5947 36.5896 21.296C36.227 20.9867 36.0456 20.6027 36.0456 20.144C36.0456 19.8667 36.1256 19.6 36.2856 19.344C36.4456 19.088 36.675 18.8587 36.9736 18.656C36.483 18.4 36.1203 18.0853 35.8856 17.712C35.6616 17.328 35.5496 16.864 35.5496 16.32C35.5496 15.7547 35.6883 15.248 35.9656 14.8C36.2536 14.352 36.643 14.0053 37.1336 13.76C37.635 13.504 38.1896 13.376 38.7976 13.376C39.459 13.3867 40.0136 13.3653 40.4616 13.312C40.9096 13.248 41.2776 13.168 41.5656 13.072C41.8643 12.9653 42.227 12.816 42.6536 12.624L43.0856 13.952ZM38.7976 14.432C38.243 14.432 37.811 14.608 37.5016 14.96C37.203 15.3013 37.0536 15.7547 37.0536 16.32C37.0536 16.896 37.2083 17.36 37.5176 17.712C37.827 18.0533 38.2643 18.224 38.8296 18.224C39.4056 18.224 39.843 18.0587 40.1416 17.728C40.451 17.3867 40.6056 16.912 40.6056 16.304C40.6056 15.056 40.003 14.432 38.7976 14.432ZM50.7161 17.536C50.7161 17.7813 50.7055 18.032 50.6841 18.288H45.3081C45.3721 19.216 45.6068 19.8987 46.0121 20.336C46.4175 20.7733 46.9401 20.992 47.5801 20.992C47.9855 20.992 48.3588 20.9333 48.7001 20.816C49.0415 20.6987 49.3988 20.512 49.7721 20.256L50.4121 21.136C49.5161 21.84 48.5348 22.192 47.4681 22.192C46.2948 22.192 45.3775 21.808 44.7161 21.04C44.0655 20.272 43.7401 19.216 43.7401 17.872C43.7401 16.9973 43.8788 16.224 44.1561 15.552C44.4441 14.8693 44.8495 14.336 45.3721 13.952C45.9055 13.568 46.5295 13.376 47.2441 13.376C48.3641 13.376 49.2228 13.744 49.8201 14.48C50.4175 15.216 50.7161 16.2347 50.7161 17.536ZM49.2601 17.104C49.2601 16.272 49.0948 15.6373 48.7641 15.2C48.4335 14.7627 47.9375 14.544 47.2761 14.544C46.0708 14.544 45.4148 15.4293 45.3081 17.2H49.2601V17.104ZM59.6853 10.976C61.3493 10.976 62.6826 11.3653 63.6853 12.144C64.6986 12.912 65.2053 14.3413 65.2053 16.432C65.2053 18.4693 64.6986 19.9093 63.6853 20.752C62.6826 21.584 61.4613 22 60.0213 22H57.3813V10.976H59.6853ZM58.9013 12.192V20.8H60.1333C61.1573 20.8 61.9893 20.4853 62.6293 19.856C63.2693 19.2267 63.5893 18.0853 63.5893 16.432C63.5893 15.2693 63.4239 14.3787 63.0933 13.76C62.7626 13.1307 62.3413 12.7147 61.8293 12.512C61.3173 12.2987 60.7146 12.192 60.0213 12.192H58.9013ZM73.8701 22H72.6061L72.4941 20.688C72.1741 21.2107 71.8061 21.5947 71.3901 21.84C70.9741 22.0747 70.4675 22.192 69.8701 22.192C69.1341 22.192 68.5581 21.968 68.1421 21.52C67.7261 21.072 67.5181 20.4373 67.5181 19.616V13.568H68.9901V19.456C68.9901 20.032 69.0915 20.4427 69.2941 20.688C69.4968 20.9227 69.8275 21.04 70.2861 21.04C71.1075 21.04 71.8115 20.5547 72.3981 19.584V13.568H73.8701V22ZM81.1666 21.616C80.612 22 79.9826 22.192 79.2786 22.192C78.564 22.192 78.004 21.9893 77.5986 21.584C77.204 21.168 77.0066 20.5707 77.0066 19.792V14.704H75.5346V13.568H77.0066V11.664L78.4786 11.488V13.568H80.4786L80.3186 14.704H78.4786V19.728C78.4786 20.1653 78.5533 20.4853 78.7026 20.688C78.8626 20.88 79.124 20.976 79.4866 20.976C79.8173 20.976 80.1906 20.864 80.6066 20.64L81.1666 21.616ZM85.5295 13.376C86.0308 13.376 86.4895 13.4507 86.9055 13.6C87.3215 13.7387 87.7215 13.968 88.1055 14.288L87.4015 15.216C87.1028 15.0027 86.8095 14.848 86.5215 14.752C86.2442 14.6453 85.9348 14.592 85.5935 14.592C84.9108 14.592 84.3775 14.864 83.9935 15.408C83.6202 15.952 83.4335 16.7573 83.4335 17.824C83.4335 18.8907 83.6202 19.68 83.9935 20.192C84.3668 20.6933 84.9002 20.944 85.5935 20.944C85.9242 20.944 86.2282 20.896 86.5055 20.8C86.7828 20.6933 87.0922 20.528 87.4335 20.304L88.1055 21.264C87.3375 21.8827 86.4788 22.192 85.5295 22.192C84.3882 22.192 83.4868 21.808 82.8255 21.04C82.1748 20.272 81.8495 19.2107 81.8495 17.856C81.8495 16.96 81.9988 16.176 82.2975 15.504C82.5962 14.832 83.0175 14.3093 83.5615 13.936C84.1162 13.5627 84.7722 13.376 85.5295 13.376ZM94.0661 13.376C94.8341 13.376 95.4315 13.6053 95.8581 14.064C96.2955 14.5227 96.5141 15.152 96.5141 15.952V22H95.0421V16.16C95.0421 15.5627 94.9248 15.1413 94.6901 14.896C94.4661 14.6507 94.1355 14.528 93.6981 14.528C93.2608 14.528 92.8715 14.656 92.5301 14.912C92.1888 15.168 91.8688 15.5307 91.5701 16V22H90.0981V10.192L91.5701 10.032V14.736C92.2315 13.8293 93.0635 13.376 94.0661 13.376ZM106.508 10.784C107.244 10.784 107.873 10.8907 108.396 11.104C108.918 11.3067 109.425 11.6267 109.916 12.064L109.084 12.992C108.668 12.6613 108.257 12.4213 107.852 12.272C107.457 12.112 107.03 12.032 106.572 12.032C105.996 12.032 105.521 12.1653 105.148 12.432C104.774 12.6987 104.588 13.088 104.588 13.6C104.588 13.92 104.652 14.192 104.78 14.416C104.908 14.6293 105.142 14.8267 105.484 15.008C105.836 15.1893 106.342 15.3813 107.004 15.584C107.697 15.7973 108.273 16.0267 108.732 16.272C109.19 16.5173 109.558 16.8587 109.836 17.296C110.124 17.7227 110.267 18.2667 110.267 18.928C110.267 19.568 110.108 20.1333 109.788 20.624C109.478 21.1147 109.025 21.4987 108.428 21.776C107.841 22.0533 107.142 22.192 106.332 22.192C104.806 22.192 103.558 21.7173 102.588 20.768L103.42 19.84C103.868 20.2027 104.321 20.48 104.78 20.672C105.238 20.8533 105.75 20.944 106.316 20.944C106.998 20.944 107.564 20.7787 108.012 20.448C108.46 20.1067 108.684 19.616 108.684 18.976C108.684 18.6133 108.614 18.3147 108.476 18.08C108.337 17.8347 108.097 17.616 107.756 17.424C107.425 17.232 106.94 17.04 106.299 16.848C105.169 16.5067 104.342 16.096 103.82 15.616C103.297 15.136 103.036 14.4853 103.036 13.664C103.036 13.1093 103.18 12.6133 103.468 12.176C103.766 11.7387 104.177 11.3973 104.7 11.152C105.233 10.9067 105.836 10.784 106.508 10.784ZM116.394 13.376C117.162 13.376 117.76 13.6053 118.186 14.064C118.624 14.5227 118.842 15.152 118.842 15.952V22H117.37V16.16C117.37 15.5627 117.253 15.1413 117.018 14.896C116.794 14.6507 116.464 14.528 116.026 14.528C115.589 14.528 115.2 14.656 114.858 14.912C114.517 15.168 114.197 15.5307 113.898 16V22H112.426V10.192L113.898 10.032V14.736C114.56 13.8293 115.392 13.376 116.394 13.376ZM123.273 13.568V22H121.801V13.568H123.273ZM122.521 9.52C122.831 9.52 123.081 9.616 123.273 9.808C123.465 10 123.561 10.24 123.561 10.528C123.561 10.816 123.465 11.056 123.273 11.248C123.081 11.4293 122.831 11.52 122.521 11.52C122.223 11.52 121.977 11.4293 121.785 11.248C121.593 11.056 121.497 10.816 121.497 10.528C121.497 10.24 121.593 10 121.785 9.808C121.977 9.616 122.223 9.52 122.521 9.52ZM129.981 13.376C130.28 13.376 130.557 13.408 130.813 13.472L130.541 14.912C130.285 14.848 130.04 14.816 129.805 14.816C129.282 14.816 128.861 15.008 128.541 15.392C128.221 15.776 127.97 16.3733 127.789 17.184V22H126.317V13.568H127.581L127.725 15.28C127.949 14.6507 128.253 14.176 128.637 13.856C129.021 13.536 129.469 13.376 129.981 13.376ZM136.745 21.616C136.19 22 135.561 22.192 134.857 22.192C134.142 22.192 133.582 21.9893 133.177 21.584C132.782 21.168 132.585 20.5707 132.585 19.792V14.704H131.113V13.568H132.585V11.664L134.057 11.488V13.568H136.057L135.897 14.704H134.057V19.728C134.057 20.1653 134.131 20.4853 134.281 20.688C134.441 20.88 134.702 20.976 135.065 20.976C135.395 20.976 135.769 20.864 136.185 20.64L136.745 21.616Z" fill="#5C7080"/>
<g clip-path="url(#clip0_2_118)">
<path d="M7.34 39.52V53H4.56V42.32L1.6 44.14L0.36 42.22L4.84 39.52H7.34ZM17.2011 45.76C18.1211 46.1867 18.8011 46.7 19.2411 47.3C19.6944 47.8867 19.9211 48.5733 19.9211 49.36C19.9211 50.0933 19.7144 50.7667 19.3011 51.38C18.8878 51.98 18.2944 52.4533 17.5211 52.8C16.7478 53.1467 15.8411 53.32 14.8011 53.32C13.7878 53.32 12.9011 53.1467 12.1411 52.8C11.3811 52.4533 10.7944 51.9867 10.3811 51.4C9.98109 50.8 9.78109 50.14 9.78109 49.42C9.78109 47.9 10.6278 46.7667 12.3211 46.02C10.9878 45.26 10.3211 44.2 10.3211 42.84C10.3211 42.12 10.5211 41.4933 10.9211 40.96C11.3211 40.4133 11.8611 39.9933 12.5411 39.7C13.2344 39.4067 14.0078 39.26 14.8611 39.26C16.1678 39.26 17.2478 39.5667 18.1011 40.18C18.9678 40.7933 19.4011 41.64 19.4011 42.72C19.4011 43.9733 18.6678 44.9867 17.2011 45.76ZM14.8811 41.2C14.3211 41.2 13.8811 41.3467 13.5611 41.64C13.2411 41.92 13.0811 42.3333 13.0811 42.88C13.0811 43.3733 13.2278 43.7733 13.5211 44.08C13.8144 44.3733 14.2811 44.6467 14.9211 44.9L15.3211 45.04C15.8011 44.7333 16.1411 44.4133 16.3411 44.08C16.5411 43.7333 16.6411 43.3267 16.6411 42.86C16.6411 42.3533 16.4878 41.9533 16.1811 41.66C15.8744 41.3533 15.4411 41.2 14.8811 41.2ZM14.8811 51.24C15.5744 51.24 16.1078 51.0667 16.4811 50.72C16.8678 50.3733 17.0611 49.9133 17.0611 49.34C17.0611 48.7667 16.8944 48.3133 16.5611 47.98C16.2278 47.6467 15.6344 47.3267 14.7811 47.02L14.1411 46.8C13.1411 47.32 12.6411 48.1533 12.6411 49.3C12.6411 49.9 12.8411 50.3733 13.2411 50.72C13.6411 51.0667 14.1878 51.24 14.8811 51.24ZM22.9855 49.9C23.4655 49.9 23.8721 50.0667 24.2055 50.4C24.5388 50.7333 24.7055 51.1333 24.7055 51.6C24.7055 52.0667 24.5388 52.4733 24.2055 52.82C23.8721 53.1533 23.4655 53.32 22.9855 53.32C22.5188 53.32 22.1188 53.1533 21.7855 52.82C21.4521 52.4733 21.2855 52.0667 21.2855 51.6C21.2855 51.1333 21.4521 50.7333 21.7855 50.4C22.1188 50.0667 22.5188 49.9 22.9855 49.9ZM30.4014 39.26C31.9747 39.26 33.1747 39.7333 34.0014 40.68C34.8414 41.6267 35.2614 42.8933 35.2614 44.48C35.2614 46.3067 34.9747 47.8133 34.4014 49C33.8414 50.1733 32.9747 51.12 31.8014 51.84C30.6281 52.5467 29.0814 53.1133 27.1614 53.54L26.5614 51.52C28.3214 51.08 29.6481 50.5133 30.5414 49.82C31.4481 49.1133 32.0081 48.14 32.2214 46.9C31.5014 47.82 30.5547 48.28 29.3814 48.28C28.6747 48.28 28.0281 48.1 27.4414 47.74C26.8681 47.38 26.4081 46.8667 26.0614 46.2C25.7281 45.5333 25.5614 44.7533 25.5614 43.86C25.5614 42.94 25.7747 42.1333 26.2014 41.44C26.6281 40.7467 27.2081 40.2133 27.9414 39.84C28.6747 39.4533 29.4947 39.26 30.4014 39.26ZM30.2014 46.24C31.0547 46.24 31.7747 45.8133 32.3614 44.96C32.3747 43.64 32.2281 42.7067 31.9214 42.16C31.6281 41.6 31.1214 41.32 30.4014 41.32C29.7747 41.32 29.2814 41.5333 28.9214 41.96C28.5747 42.3733 28.4014 42.98 28.4014 43.78C28.4014 44.6333 28.5614 45.26 28.8814 45.66C29.2147 46.0467 29.6547 46.24 30.2014 46.24ZM41.4366 39.26C43.0099 39.26 44.2099 39.7333 45.0366 40.68C45.8766 41.6267 46.2966 42.8933 46.2966 44.48C46.2966 46.3067 46.0099 47.8133 45.4366 49C44.8766 50.1733 44.0099 51.12 42.8366 51.84C41.6632 52.5467 40.1166 53.1133 38.1966 53.54L37.5966 51.52C39.3566 51.08 40.6832 50.5133 41.5766 49.82C42.4832 49.1133 43.0432 48.14 43.2566 46.9C42.5366 47.82 41.5899 48.28 40.4166 48.28C39.7099 48.28 39.0632 48.1 38.4766 47.74C37.9032 47.38 37.4432 46.8667 37.0966 46.2C36.7632 45.5333 36.5966 44.7533 36.5966 43.86C36.5966 42.94 36.8099 42.1333 37.2366 41.44C37.6632 40.7467 38.2432 40.2133 38.9766 39.84C39.7099 39.4533 40.5299 39.26 41.4366 39.26ZM41.2366 46.24C42.0899 46.24 42.8099 45.8133 43.3966 44.96C43.4099 43.64 43.2632 42.7067 42.9566 42.16C42.6632 41.6 42.1566 41.32 41.4366 41.32C40.8099 41.32 40.3166 41.5333 39.9566 41.96C39.6099 42.3733 39.4366 42.98 39.4366 43.78C39.4366 44.6333 39.5966 45.26 39.9166 45.66C40.2499 46.0467 40.6899 46.24 41.2366 46.24ZM51.8917 48.54C52.0784 49.46 52.4184 50.1333 52.9117 50.56C53.4184 50.9867 54.0917 51.2 54.9317 51.2C55.8251 51.2 56.7851 50.92 57.8117 50.36V52.56C57.2651 52.8133 56.7451 53 56.2517 53.12C55.7584 53.2533 55.2184 53.32 54.6317 53.32C53.1251 53.32 51.8851 52.9067 50.9117 52.08C49.9517 51.24 49.3184 50.06 49.0117 48.54H47.2717L47.6717 47H48.9317V45.5H47.2717L47.6717 43.94H49.0317C49.4051 42.4867 50.0984 41.3467 51.1117 40.52C52.1384 39.68 53.3451 39.26 54.7317 39.26C56.1184 39.26 57.3717 39.64 58.4917 40.4L57.4717 42.16C57.0451 41.88 56.6251 41.68 56.2117 41.56C55.7984 41.4267 55.3384 41.36 54.8317 41.36C54.1384 41.36 53.5451 41.5733 53.0517 42C52.5584 42.4267 52.1917 43.0733 51.9517 43.94H56.8517L56.4517 45.5H51.8117V47H56.1317L55.7517 48.54H51.8917Z" fill="#30404D"/>
<path d="M71.1665 46H82.8332" stroke="#30404D" stroke-width="2" stroke-linecap="round" stroke-linejoin="round"/>
<path d="M77 40.1667L82.8333 46.0001L77 51.8334" stroke="#30404D" stroke-width="2" stroke-linecap="round" stroke-linejoin="round"/>
</g>
<defs>
<filter id="filter0_ddd_2_118" x="113.258" y="0" width="188.906" height="223.097" filterUnits="userSpaceOnUse" color-interpolation-filters="sRGB">
<feFlood flood-opacity="0" result="BackgroundImageFix"/>
<feColorMatrix in="SourceAlpha" type="matrix" values="0 0 0 0 0 0 0 0 0 0 0 0 0 0 0 0 0 0 127 0" result="hardAlpha"/>
<feOffset dy="8"/>
<feGaussianBlur stdDeviation="12"/>
<feColorMatrix type="matrix" values="0 0 0 0 0.0627451 0 0 0 0 0.0862745 0 0 0 0 0.101961 0 0 0 0.2 0"/>
<feBlend mode="normal" in2="BackgroundImageFix" result="effect1_dropShadow_2_118"/>
<feColorMatrix in="SourceAlpha" type="matrix" values="0 0 0 0 0 0 0 0 0 0 0 0 0 0 0 0 0 0 127 0" result="hardAlpha"/>
<feOffset dy="2"/>
<feGaussianBlur stdDeviation="2"/>
<feColorMatrix type="matrix" values="0 0 0 0 0.0627451 0 0 0 0 0.0862745 0 0 0 0 0.101961 0 0 0 0.2 0"/>
<feBlend mode="normal" in2="effect1_dropShadow_2_118" result="effect2_dropShadow_2_118"/>
<feColorMatrix in="SourceAlpha" type="matrix" values="0 0 0 0 0 0 0 0 0 0 0 0 0 0 0 0 0 0 127 0" result="hardAlpha"/>
<feOffset/>
<feColorMatrix type="matrix" values="0 0 0 0 0.0627451 0 0 0 0 0.0862745 0 0 0 0 0.101961 0 0 0 0.1 0"/>
<feBlend mode="normal" in2="effect2_dropShadow_2_118" result="effect3_dropShadow_2_118"/>
<feBlend mode="normal" in="SourceGraphic" in2="effect3_dropShadow_2_118" result="shape"/>
</filter>
<clipPath id="clip0_2_118">
<rect width="87" height="24" fill="white" transform="translate(0 34)"/>
</clipPath>
</defs>
</svg>
