<svg width="167" height="90" viewBox="0 0 167 90" fill="none" xmlns="http://www.w3.org/2000/svg">
<path fill-rule="evenodd" clip-rule="evenodd" d="M67.2229 4.28245C66.8004 4.70187 66.0209 6.42401 65.8269 7.36697C65.647 8.2408 65.6586 10.5239 65.8453 10.9746C65.9169 11.1473 65.898 11.1656 65.724 11.0925C64.5723 10.609 64.0518 10.4793 63.0536 10.4273C61.8168 10.3629 60.8217 10.4935 59.6186 10.878C55.6711 12.1398 52.1909 15.6334 51.0395 19.4902C50.6439 20.8157 50.6148 22.7493 50.9745 23.8194C51.1064 24.2118 51.2143 24.5468 51.2143 24.5638C51.2143 24.5808 50.6718 24.5991 50.0089 24.6044C49.2872 24.6102 48.4812 24.6875 48 24.7969C46.4128 25.158 45 26.0618 45 26.7159C45 26.9779 45.47 27.4504 45.8499 27.57C46.1727 27.6718 46.6965 28.5432 46.7686 29.0986C46.8039 29.3704 46.8583 29.7706 46.8895 29.9878C46.9678 30.5341 47.463 31.1701 48.0171 31.4364C48.2729 31.5593 48.837 31.7098 49.2707 31.7709C49.7044 31.8319 50.1384 31.9249 50.235 31.9777C50.3316 32.0304 50.7011 32.4717 51.0558 32.9583C51.9782 34.2234 52.2979 34.2955 52.9946 33.3952C53.847 32.2934 54.3777 30.3014 54.2979 28.5029C54.2712 27.9033 54.2707 27.4129 54.2968 27.4129C54.3228 27.4129 54.6403 27.4926 55.0024 27.59C55.8396 27.8153 57.7414 27.8188 58.7697 27.5969C62.2858 26.8381 65.9069 23.9876 67.582 20.66C68.8999 18.042 69.0569 15.7915 68.0854 13.4433C68.012 13.2658 68.0404 13.2532 68.3585 13.3226C68.9813 13.4583 71.0562 13.399 71.8929 13.2215C73.4594 12.8893 75 11.9333 75 11.2933C75 11.0092 74.5709 10.5041 74.3295 10.5041C74.1636 10.5041 73.5834 9.92444 73.4066 9.58212C73.341 9.45525 73.2387 9.01041 73.1791 8.59365C72.9539 7.01742 72.382 6.46474 70.7455 6.24227C70.2864 6.17985 69.8061 6.06181 69.6782 5.98003C69.5504 5.89825 69.1932 5.46851 68.8844 5.02516C68.1226 3.93141 67.7461 3.76317 67.2229 4.28245Z" fill="#BFCCD6"/>
<path fill-rule="evenodd" clip-rule="evenodd" d="M104.634 0.372416C104.366 0.37529 103.923 0.410923 103.648 0.451485C103.057 0.538795 102.969 0.690794 102.66 2.16047C102.295 3.89918 102.62 5.39246 103.712 6.98583C105.203 9.16172 107.526 10.5372 110.389 10.9397C111.136 11.0446 112.049 11.1169 112.42 11.1001C113.087 11.0702 113.094 11.0661 113.219 10.6089C113.289 10.3553 113.341 9.6198 113.335 8.97425C113.302 5.67041 111.369 2.59168 108.471 1.22877C107.551 0.796409 105.604 0.361754 104.634 0.372416ZM101.39 1.07899C98.7293 2.27277 96.8338 4.57263 96.2559 7.30819C96.1392 7.86115 96.0736 8.35851 96.1104 8.41328C96.1471 8.46814 96.4413 8.49896 96.7642 8.48176C98.8066 8.373 100.951 7.1026 101.721 5.54465C101.898 5.1874 101.906 5.00528 101.775 4.29138C101.644 3.57575 101.657 3.26895 101.869 2.15044C102.004 1.43228 102.084 0.838304 102.045 0.830623C102.007 0.822827 101.712 0.934619 101.39 1.07899ZM96.1865 0.00120217C95.0594 0.025457 94.0018 0.397312 92.9698 1.13214C92.1371 1.72495 90.8328 3.0199 90.776 3.31027C90.7441 3.47308 91.0188 3.59857 92.3649 4.0364C93.6863 4.46619 94.7819 4.53696 95.9444 4.2673C96.6175 4.11121 96.7168 4.04423 97.1547 3.45159C97.6849 2.73383 99.2556 1.26504 99.7053 1.06643C99.975 0.947258 99.9811 0.930986 99.7931 0.832343C98.8247 0.324006 97.3181 -0.0231226 96.1865 0.00120217ZM113.824 3.3067C113.658 3.30152 113.234 3.29765 112.882 3.2982L112.241 3.29893L112.69 4.02681C113.204 4.86194 113.657 5.91095 113.84 6.69093C113.948 7.1529 114.071 7.30964 114.705 7.78903C115.736 8.56839 116.79 8.93692 118.273 9.03663C119.663 9.12996 119.965 9.11532 119.997 8.95309C120.054 8.66272 119.333 6.97675 118.785 6.11724C118.11 5.05996 117.31 4.35334 116.248 3.87844C115.579 3.57909 114.515 3.32803 113.824 3.3067ZM101.744 6.85285C100.768 8.07498 99.1024 8.96988 97.3804 9.19792C96.9773 9.25137 96.5799 9.28283 96.4975 9.26787C96.0828 9.19297 95.9987 9.35459 96.0653 10.0976C96.3374 13.1321 98.2895 15.8854 101.092 17.1871C102.729 17.9479 105.125 18.1466 106.847 17.6642C109.502 16.9201 111.856 14.8013 112.716 12.381L112.901 11.8582L112.217 11.8828C109.568 11.9779 106.589 10.9239 104.606 9.18996C104.084 8.73356 103.496 8.04749 103.018 7.3365L102.26 6.20759L101.744 6.85285ZM101.099 11.3489C101.265 11.593 101.351 11.8761 101.314 12.0616C101.278 12.2471 101.092 12.4778 100.846 12.6423C100.6 12.8069 100.315 12.8915 100.128 12.8554C99.7178 12.7762 99.2476 12.0847 99.3273 11.6779C99.3636 11.4923 99.5496 11.2617 99.7955 11.0971C100.041 10.9326 100.327 10.8479 100.514 10.8841C100.701 10.9202 100.933 11.1048 101.099 11.3489ZM108.697 12.816C108.863 13.0601 108.948 13.3432 108.912 13.5287C108.834 13.9263 108.135 14.4017 107.741 14.3256C106.891 14.1615 106.699 12.9381 107.456 12.5099C107.962 12.224 108.361 12.3227 108.697 12.816ZM102.589 15.0857C102.609 15.1941 102.606 15.3753 102.584 15.4883C102.562 15.6013 102.646 15.8568 102.771 16.056C103.225 16.7819 104.288 16.6288 104.682 15.7808C104.827 15.4709 104.919 15.4052 105.147 15.4494C105.778 15.5712 105.241 16.7858 104.398 17.145C103.589 17.489 102.728 17.2894 102.191 16.6337C101.915 16.2968 101.727 15.358 101.874 15.0473C102.02 14.7371 102.532 14.7646 102.589 15.0857ZM107.956 18.1011C107.239 18.4266 105.716 18.7339 104.741 18.75C102.592 18.7856 99.9798 17.8243 98.5192 16.4604L98.1223 16.0896L97.9019 16.7937C97.5731 17.8443 96.9057 19.3469 96.3789 20.2226C96.1219 20.6497 94.9836 23.2316 93.8492 25.9602C92.7148 28.6888 91.7417 31.0074 91.6869 31.1126C91.5925 31.2936 92.0517 31.3937 100.186 32.9645C107.39 34.3557 108.79 34.5992 108.816 34.466C108.908 33.9945 108.703 23.0989 108.587 22.3241C108.414 21.1677 108.396 20.0352 108.529 18.8194C108.587 18.296 108.601 17.8659 108.561 17.8635C108.521 17.8612 108.249 17.9681 107.956 18.1011ZM96.2775 16.1033C95.8091 16.2807 94.2513 16.8493 92.8157 17.3666C89.9499 18.3993 89.5533 18.5971 89.2415 19.1495C88.6287 20.2345 89.2373 21.5835 90.4447 21.8167C90.89 21.9027 91.2567 21.8079 93.1766 21.1107L95.3942 20.3054L95.9212 19.3842C96.6686 18.0778 97.4832 15.8208 97.2181 15.7907C97.1691 15.7851 96.7459 15.9257 96.2775 16.1033ZM109.309 19.0903C109.18 20.1866 109.252 21.9699 109.454 22.7197C109.594 23.2387 109.755 23.4213 111.205 24.7125C112.979 26.2921 113.405 26.4955 114.264 26.1735C115.375 25.7568 115.813 24.3653 115.128 23.4282C114.909 23.1278 111.398 19.9095 109.87 18.6071L109.411 18.2168L109.309 19.0903ZM92.9738 35.4575C92.4231 38.2705 92.4064 38.4128 92.5631 38.9496C92.9482 40.2688 94.6165 40.6443 95.5554 39.6231C95.8405 39.3131 95.9031 39.0789 96.458 36.2461L97.0544 33.2022L93.5479 32.525L92.9738 35.4575ZM102.303 37.3748C101.749 40.2077 101.719 40.4482 101.866 40.8417C102.351 42.1379 104.04 42.4106 104.894 41.3308C105.242 40.8915 105.28 40.7533 105.831 37.9403L106.405 35.0079L102.899 34.3307L102.303 37.3748Z" fill="#BFCCD6"/>
<path fill-rule="evenodd" clip-rule="evenodd" d="M16.1001 1.11018C15.6502 1.16265 14.445 1.21264 13.4219 1.22102C11.3787 1.23777 10.78 1.38538 10.6198 1.91143C10.4175 2.57528 9.35881 3.59703 8.28071 4.16889C2.69906 7.12893 1.62272 7.79527 1.2735 8.50714C1.00911 9.04641 0.763712 10.5026 0.624403 12.3594C0.546129 13.403 0.391971 15.2579 0.281984 16.4815C0.171997 17.705 0.0563465 19.2162 0.0250115 19.8397C-0.0280944 20.8955 -0.0134965 20.9837 0.237309 21.1233C1.0193 21.5585 5.43615 21.8001 5.79443 21.4272C5.87773 21.3404 6.01276 20.6632 6.09431 19.9223L6.16075 19.3191C6.17837 19.159 6.40358 19.1401 6.44768 19.2949V19.2949C6.68061 20.1133 6.96968 21.38 7.56743 24.2022L7.87162 25.6382C7.9458 25.9884 7.98216 26.3456 7.98006 26.7036L7.94257 33.1039L7.90506 39.4874C7.90304 39.8305 8.08558 40.1483 8.38302 40.3195V40.3195C9.08724 40.7246 9.91693 40.8667 12.1595 40.9664C13.7929 41.0391 14.6382 41.0027 16.736 40.7692C20.6906 40.3294 22.0448 40.106 23.1327 39.7142C24.3937 39.2603 26.1676 38.1951 26.1676 37.892C26.1676 37.7701 26.0887 37.3487 25.9923 36.9557C25.7573 35.9982 25.5711 34.1404 25.4091 31.1377C25.3353 29.7702 25.2209 28.1819 25.1549 27.6079C24.9478 25.806 25.0483 15.732 25.2712 15.9638C25.3102 16.0043 25.4304 16.6076 25.5381 17.3043C25.7833 18.8897 25.8552 18.9467 27.4889 18.852C28.5999 18.7876 30.5197 18.303 30.8734 17.9979C31.1123 17.7916 31.0261 16.7071 30.5028 13.3408C30.2678 11.8294 30.0409 10.2689 29.9985 9.87305C29.8958 8.9132 29.4009 7.35283 28.9261 6.49204C28.4227 5.57916 27.8824 5.32228 25.0242 4.6375C21.9708 3.90586 20.499 3.41448 20.1271 3.00293C19.9599 2.8179 19.6791 2.38881 19.5032 2.04949C18.9675 1.01648 18.3528 0.84676 16.1001 1.11018Z" fill="#BFCCD6"/>
<path fill-rule="evenodd" clip-rule="evenodd" d="M119.629 56.8893C119.251 56.8283 118.259 56.5909 117.425 56.3617C115.759 55.9038 115.237 55.886 114.986 56.2779C114.669 56.7724 113.572 57.3611 112.563 57.5785C107.34 58.7036 106.311 58.9985 105.863 59.4982C105.523 59.8769 104.988 61.0074 104.447 62.4889C104.143 63.3216 103.591 64.7983 103.219 65.7703C102.848 66.7424 102.406 67.9477 102.237 68.4488C101.95 69.2972 101.942 69.3725 102.114 69.5442C102.65 70.0795 106.188 71.2956 106.565 71.0743C106.653 71.0228 106.919 70.5018 107.156 69.9166L107.349 69.4402C107.4 69.3138 107.588 69.3503 107.588 69.4867C107.589 70.2077 107.532 71.307 107.369 73.7457L107.286 74.9865C107.265 75.2892 107.213 75.5888 107.129 75.8801L104.123 86.2846C104.043 86.5638 104.118 86.865 104.321 87.0732C104.8 87.566 105.443 87.8733 107.244 88.4721C108.557 88.9082 109.253 89.0736 111.013 89.3673C114.332 89.9213 115.485 90.0517 116.461 89.9834C117.591 89.9043 119.28 89.4452 119.35 89.1981C119.378 89.0987 119.411 88.737 119.423 88.3944C119.452 87.5596 119.728 86.0021 120.288 83.5168C120.543 82.3849 120.816 81.0637 120.894 80.5805C121.141 79.0637 123.543 70.8743 123.671 71.1147C123.693 71.1568 123.652 71.6763 123.579 72.2691C123.413 73.6181 123.459 73.6813 124.81 73.981C125.728 74.1849 127.402 74.2329 127.76 74.0657C128.002 73.9527 128.182 73.0486 128.531 70.1836C128.688 68.8972 128.863 67.5727 128.919 67.2402C129.057 66.434 129.014 65.0477 128.826 64.2364C128.626 63.3761 128.246 63.042 126.078 61.8242C123.762 60.5231 122.678 59.7829 122.47 59.3616C122.377 59.1722 122.247 58.7576 122.182 58.4403C121.984 57.4746 121.523 57.1944 119.629 56.8893Z" fill="#BFCCD6"/>
<path fill-rule="evenodd" clip-rule="evenodd" d="M150.763 9.4841C142.574 11.4494 136.23 13.0807 136.228 13.2217C136.224 13.7677 138.138 16.1431 139.462 17.2349C141.112 18.5947 143.742 20.0347 146.022 20.8262C147.612 21.3782 150.915 22.0677 151.971 22.0677C152.385 22.0677 153.941 20.3534 159.18 14.126C162.855 9.75791 165.861 6.1309 165.861 6.06595C165.861 5.86399 165.663 5.9089 150.763 9.4841ZM162.581 11.5088C160.217 14.3282 157.138 18.0031 155.738 19.675L153.193 22.715V28.9654V35.2156L159.549 27.6629C163.045 23.509 166.152 19.7874 166.453 19.3926L167 18.6751L166.94 12.529L166.879 6.3826L162.581 11.5088ZM158.078 11.7805C158.574 12.2144 158.661 12.4371 158.535 12.9472C158.196 14.3227 155.318 14.6639 154.143 13.4676C153.633 12.9478 153.595 12.8064 153.829 12.2844C154.161 11.541 154.794 11.2773 156.291 11.2587C157.208 11.2474 157.6 11.3616 158.078 11.7805ZM146.18 14.2112C146.908 14.7533 146.98 15.1853 146.453 15.8478C145.626 16.8876 142.332 16.7011 141.987 15.5948C141.47 13.9367 144.478 12.9442 146.18 14.2112ZM136 20.933V26.9785L136.68 28.0574C138.245 30.5408 141.611 33.1272 144.924 34.3933C146.769 35.0987 149.716 35.8236 151.157 35.927L152.175 36L152.234 29.552L152.294 23.1039L149.933 22.7134C144.567 21.8261 139.285 19.1175 136.88 16.0212L136 14.8873V20.933ZM153.687 16.9247C153.913 17.1328 154.098 17.4366 154.098 17.5996C154.098 18.5678 151.528 18.9913 150.71 18.1581C149.48 16.9067 152.369 15.7104 153.687 16.9247ZM164.791 17.5319C165.211 18.8146 164.478 20.5208 163.802 19.833C163.443 19.4677 163.318 18.0851 163.582 17.3875C163.889 16.5712 164.5 16.6439 164.791 17.5319ZM158.641 20.4248C159.064 20.773 159.18 21.1338 159.254 22.3247C159.331 23.5705 159.27 23.8915 158.854 24.4281C157.926 25.6263 156.814 25.0319 156.467 23.1525C156.278 22.1278 156.686 20.8018 157.333 20.3412C157.949 19.9018 158.011 19.906 158.641 20.4248ZM141.077 24.4219C141.822 25.5045 141.268 27.3642 140.2 27.3642C139.456 27.3642 139.054 26.7577 139.054 25.6371C139.054 25.1061 139.194 24.5002 139.364 24.2908C139.803 23.7527 140.662 23.8183 141.077 24.4219ZM148.566 24.9359C149.343 25.7269 149.343 27.2834 148.566 28.1366C147.849 28.9244 147.433 28.9051 146.587 28.0441C145.965 27.411 145.909 27.2369 146.016 26.2685C146.213 24.4919 147.479 23.83 148.566 24.9359Z" fill="#BFCCD6"/>
<path fill-rule="evenodd" clip-rule="evenodd" d="M72.1416 63.0196C79.2744 64.7228 84.8 66.1366 84.801 66.2588C84.8051 66.732 83.138 68.7907 81.9846 69.7369C80.5478 70.9154 78.2571 72.1634 76.2714 72.8494C74.8863 73.3278 72.0092 73.9253 71.0899 73.9253C70.7291 73.9253 69.3737 72.4396 64.8106 67.0425C61.6102 63.2569 58.9917 60.1134 58.9917 60.0572C58.9917 59.8821 59.1643 59.921 72.1416 63.0196ZM61.8486 64.7743C63.9076 67.2178 66.5896 70.4027 67.8089 71.8516L70.0255 74.4863V79.9034V85.3202L64.4893 78.7745C61.4443 75.1745 58.7387 71.949 58.4766 71.607L58 70.9851L58.0524 65.6584L58.105 60.3316L61.8486 64.7743ZM65.7704 65.0098C65.3389 65.3858 65.2628 65.5788 65.3724 66.0209C65.6677 67.213 68.1744 67.5087 69.1978 66.4719C69.6425 66.0215 69.6752 65.8989 69.4718 65.4465C69.182 64.8022 68.6307 64.5737 67.3273 64.5575C66.5282 64.5478 66.1869 64.6467 65.7704 65.0098ZM76.1335 67.1164C75.4993 67.5862 75.4364 67.9606 75.8955 68.5348C76.6159 69.4359 79.4851 69.2742 79.7853 68.3155C80.2355 66.8785 77.616 66.0183 76.1335 67.1164ZM85 72.942V78.1814L84.4075 79.1164C83.0443 81.2687 80.1132 83.5102 77.2276 84.6075C75.6203 85.2188 73.0541 85.8471 71.7988 85.9367L70.9122 86L70.8603 80.4117L70.8085 74.8234L72.8651 74.4849C77.5382 73.7159 82.1391 71.3685 84.2331 68.6851L85 67.7023V72.942ZM69.5952 69.468C69.3984 69.6485 69.2374 69.9117 69.2374 70.053C69.2374 70.8921 71.4755 71.2591 72.1883 70.537C73.259 69.4525 70.7431 68.4156 69.5952 69.468ZM59.924 69.9943C59.5583 71.106 60.1969 72.5847 60.7855 71.9886C61.0979 71.672 61.2065 70.4737 60.9774 69.8692C60.7092 69.1617 60.177 69.2248 59.924 69.9943ZM65.2804 72.5015C64.9123 72.8033 64.811 73.116 64.7468 74.148C64.6796 75.2278 64.7326 75.506 65.095 75.971C65.9036 77.0094 66.872 76.4943 67.1737 74.8655C67.3382 73.9774 66.9827 72.8282 66.42 72.429C65.8833 72.0482 65.8287 72.0518 65.2804 72.5015ZM80.578 75.9656C79.9292 76.9039 80.4121 78.5157 81.3419 78.5157C81.9895 78.5157 82.3401 77.99 82.3401 77.0188C82.3401 76.5586 82.2183 76.0335 82.0697 75.8521C81.6875 75.3856 80.9395 75.4425 80.578 75.9656ZM74.0558 76.4111C73.379 77.0967 73.3786 78.4456 74.0552 79.1851C74.68 79.8678 75.0426 79.8511 75.7793 79.1048C76.3207 78.5562 76.3696 78.4053 76.2762 77.5661C76.1048 76.0263 75.0018 75.4527 74.0558 76.4111Z" fill="#BFCCD6"/>
<path fill-rule="evenodd" clip-rule="evenodd" d="M30.9108 63.0375C30.9074 63.052 30.83 63.0448 30.7302 63.0206C30.6304 62.9964 30.553 62.9892 30.5496 63.0037C30.5463 63.0178 30.4771 63.013 30.394 62.9929C30.3108 62.9727 30.2417 62.9679 30.2383 62.982C30.2351 62.996 30.1875 62.9965 30.1326 62.9832L30.0328 62.9591L29.8418 63.7719C29.7185 64.2969 29.642 64.5826 29.6259 64.5787C29.6106 64.575 29.5731 64.6912 29.5293 64.8775C29.4856 65.0637 29.448 65.1799 29.4328 65.1762C29.4185 65.1728 29.3899 65.2464 29.366 65.348C29.3422 65.4496 29.3136 65.5232 29.2993 65.5198C29.2854 65.5164 29.2584 65.5815 29.2386 65.6661C29.2187 65.7508 29.1917 65.8159 29.1778 65.8125C29.1641 65.8092 29.1421 65.8522 29.129 65.9081C29.1158 65.9639 29.0939 66.0069 29.0802 66.0036C29.0664 66.0003 29.0418 66.0547 29.0254 66.1246C29.009 66.1944 28.9843 66.2489 28.9706 66.2455C28.9569 66.2422 28.9349 66.2852 28.9218 66.3411C28.9086 66.397 28.8867 66.44 28.8729 66.4367C28.8592 66.4333 28.8399 66.4649 28.8301 66.5068C28.8202 66.5487 28.801 66.5803 28.7872 66.577C28.7735 66.5737 28.7516 66.6167 28.7384 66.6726C28.7253 66.7284 28.7033 66.7714 28.6896 66.7681C28.6759 66.7648 28.6566 66.7964 28.6468 66.8383C28.6369 66.8802 28.6176 66.9118 28.6039 66.9084C28.5902 66.9051 28.5682 66.9481 28.5551 67.004C28.542 67.0599 28.52 67.1029 28.5063 67.0996C28.4925 67.0962 28.4733 67.1278 28.4634 67.1697C28.4536 67.2116 28.4343 67.2432 28.4206 67.2399C28.4068 67.2366 28.3876 67.2681 28.3777 67.31C28.3679 67.352 28.3486 67.3835 28.3349 67.3802C28.3211 67.3769 28.3045 67.397 28.298 67.425C28.2914 67.4529 28.2748 67.473 28.2611 67.4697C28.2474 67.4664 28.2281 67.498 28.2182 67.5399C28.2084 67.5818 28.1891 67.6134 28.1754 67.61C28.1617 67.6067 28.1451 67.6269 28.1385 67.6548C28.132 67.6827 28.1154 67.7029 28.1016 67.6996C28.0879 67.6962 28.0686 67.7278 28.0588 67.7697C28.0489 67.8116 28.0296 67.8432 28.0159 67.8399C28.0022 67.8366 27.9856 67.8567 27.9791 67.8846C27.9725 67.9126 27.9559 67.9327 27.9422 67.9294C27.9284 67.9261 27.9092 67.9577 27.8993 67.9996C27.8895 68.0415 27.8702 68.073 27.8565 68.0697C27.8427 68.0664 27.8261 68.0865 27.8196 68.1145C27.813 68.1424 27.7964 68.1626 27.7827 68.1592C27.769 68.1559 27.7524 68.1761 27.7458 68.204C27.7393 68.2319 27.7227 68.2521 27.7089 68.2488C27.6952 68.2454 27.6786 68.2656 27.6721 68.2935C27.6655 68.3215 27.6489 68.3416 27.6352 68.3383C27.6215 68.335 27.6028 68.364 27.5936 68.4028C27.5839 68.4443 27.5529 68.4835 27.5186 68.498C27.4864 68.5115 27.4553 68.5428 27.4494 68.5677C27.4436 68.5925 27.4276 68.6102 27.4139 68.6068C27.4002 68.6035 27.3836 68.6237 27.377 68.6516C27.3704 68.6795 27.3538 68.6997 27.3401 68.6964C27.3264 68.693 27.3098 68.7132 27.3032 68.7411C27.2967 68.7691 27.2801 68.7892 27.2664 68.7859C27.2526 68.7825 27.2333 68.8141 27.2235 68.856C27.2137 68.8979 27.1944 68.9295 27.1806 68.9262C27.1669 68.9229 27.1509 68.9405 27.1451 68.9653C27.1392 68.9902 27.1081 69.0216 27.076 69.0351C27.0438 69.0486 27.0127 69.0799 27.0069 69.1048C27.001 69.1296 26.985 69.1473 26.9713 69.1439C26.9576 69.1406 26.941 69.1608 26.9344 69.1887C26.9278 69.2166 26.9112 69.2368 26.8975 69.2335C26.8838 69.2301 26.8678 69.2478 26.862 69.2726C26.8561 69.2975 26.825 69.3288 26.7929 69.3423C26.7607 69.3558 26.7296 69.3872 26.7237 69.4121C26.7179 69.4369 26.7019 69.4545 26.6882 69.4512C26.6745 69.4479 26.6584 69.4655 26.6526 69.4904C26.6468 69.5152 26.6157 69.5466 26.5835 69.5601C26.5513 69.5736 26.5202 69.605 26.5144 69.6298C26.5085 69.6547 26.4925 69.6723 26.4788 69.669C26.4651 69.6657 26.4491 69.6833 26.4433 69.7081C26.4374 69.733 26.4063 69.7644 26.3741 69.7779C26.342 69.7913 26.3119 69.8181 26.3074 69.8374C26.3029 69.8566 26.258 69.8963 26.2076 69.9254C26.1573 69.9546 26.1124 69.9943 26.1078 70.0135C26.1033 70.0327 26.0733 70.0595 26.0411 70.073C26.009 70.0865 25.9789 70.1133 25.9744 70.1326C25.9699 70.1518 25.925 70.1915 25.8746 70.2206C25.8243 70.2498 25.78 70.2869 25.7762 70.303C25.7724 70.3191 25.6861 70.3833 25.5845 70.4457C25.4828 70.508 25.3968 70.5712 25.3933 70.5861C25.387 70.6126 24.8128 70.9836 24.7875 70.9775C24.7805 70.9758 24.7962 70.8829 24.8225 70.7712C24.8503 70.6526 24.8806 70.5705 24.8952 70.574C24.9104 70.5777 24.948 70.4615 24.9917 70.2752C25.0355 70.089 25.0731 69.9728 25.0883 69.9765C25.1038 69.9802 25.1471 69.8386 25.2028 69.6015C25.2585 69.3644 25.3017 69.2227 25.3173 69.2265C25.3336 69.2305 25.4476 68.7838 25.6466 67.9371C25.8455 67.0904 25.9424 66.6395 25.926 66.6356C25.9108 66.6319 25.9288 66.5117 25.9722 66.3268C26.0235 66.1085 26.0355 66.0185 26.0152 66.0037C25.9939 65.9883 25.9979 65.9783 26.0313 65.9631C26.0648 65.9478 26.0687 65.9379 26.0475 65.9224C26.0283 65.9085 26.0344 65.838 26.0666 65.7009C26.0941 65.5838 26.1034 65.4973 26.0889 65.4938C26.0746 65.4903 26.0818 65.4115 26.1057 65.3099C26.1296 65.2083 26.1368 65.1295 26.1225 65.1261C26.1087 65.1227 26.1135 65.0523 26.1334 64.9676C26.1533 64.883 26.1581 64.8125 26.1443 64.8092C26.1305 64.8058 26.1328 64.746 26.1492 64.6761C26.1656 64.6063 26.1678 64.5464 26.1541 64.5431C26.1403 64.5397 26.1425 64.4799 26.159 64.41C26.1754 64.3402 26.1776 64.2803 26.1639 64.277C26.1501 64.2736 26.1497 64.2252 26.1628 64.1693C26.1759 64.1134 26.1754 64.065 26.1617 64.0617C26.148 64.0584 26.1448 64.0213 26.1547 63.9794C26.1645 63.9375 26.1614 63.9005 26.1476 63.8972C26.1339 63.8939 26.1334 63.8454 26.1466 63.7895C26.1597 63.7337 26.1592 63.6852 26.1455 63.6819C26.1318 63.6786 26.1313 63.6301 26.1444 63.5742C26.1576 63.5184 26.1571 63.4699 26.1434 63.4666C26.1296 63.4633 26.1292 63.4148 26.1423 63.3589C26.1554 63.3031 26.1549 63.2546 26.1412 63.2513C26.1275 63.248 26.1232 63.2159 26.1316 63.1799C26.1512 63.0966 26.1104 63.0291 26.0286 63.0092C25.9933 63.0007 25.9671 62.9823 25.9704 62.9683C25.9737 62.9543 25.9203 62.9293 25.8517 62.9127C25.7831 62.8961 25.7296 62.871 25.7329 62.8571C25.7362 62.8431 25.6827 62.8181 25.6141 62.8015C25.5455 62.7848 25.4921 62.7598 25.4954 62.7458C25.4987 62.7317 25.4348 62.7043 25.3517 62.6842C25.2685 62.664 25.2047 62.6366 25.208 62.6225C25.2114 62.608 25.1391 62.579 25.0393 62.5548C24.9396 62.5306 24.8673 62.5016 24.8707 62.4871C24.8743 62.4716 24.7602 62.4335 24.5773 62.3892C24.3944 62.3449 24.2803 62.3068 24.2839 62.2913C24.2878 62.2748 23.9906 62.1934 23.4418 62.0604C22.893 61.9275 22.5915 61.8639 22.5877 61.8804C22.5838 61.8966 22.3489 61.8494 21.9331 61.7486C21.3012 61.5956 21.2842 61.5928 21.2726 61.6423C21.266 61.6703 21.2719 61.6959 21.2856 61.6992C21.3006 61.7028 21.2867 61.8068 21.2509 61.9592C21.2151 62.1116 21.2012 62.2157 21.2161 62.2193C21.2323 62.2232 21.1675 62.5386 21.0322 63.1144C20.8969 63.6901 20.8145 64.0013 20.7983 63.9974C20.7834 63.9937 20.7495 64.0929 20.7137 64.2453C20.6779 64.3977 20.644 64.4969 20.6291 64.4933C20.6148 64.4899 20.5862 64.5635 20.5624 64.6651C20.5385 64.7667 20.5099 64.8403 20.4956 64.8368C20.4818 64.8335 20.4548 64.8985 20.4349 64.9832C20.415 65.0679 20.388 65.1329 20.3741 65.1296C20.3604 65.1262 20.3357 65.1807 20.3193 65.2505C20.3029 65.3204 20.2783 65.3748 20.2645 65.3715C20.2508 65.3682 20.2262 65.4226 20.2098 65.4925C20.1933 65.5623 20.1687 65.6167 20.155 65.6134C20.1412 65.6101 20.1166 65.6645 20.1002 65.7344C20.0838 65.8042 20.0591 65.8587 20.0454 65.8553C20.0317 65.852 20.0097 65.895 19.9966 65.9509C19.9834 66.0068 19.9615 66.0498 19.9478 66.0465C19.934 66.0431 19.9147 66.0747 19.9049 66.1166C19.8951 66.1585 19.8758 66.1901 19.8621 66.1868C19.8483 66.1835 19.8264 66.2265 19.8132 66.2824C19.8001 66.3382 19.7781 66.3812 19.7644 66.3779C19.7507 66.3746 19.7314 66.4062 19.7216 66.4481C19.7117 66.49 19.6924 66.5216 19.6787 66.5182C19.665 66.5149 19.643 66.5579 19.6299 66.6138C19.6168 66.6697 19.5948 66.7127 19.5811 66.7094C19.5674 66.706 19.5481 66.7376 19.5382 66.7795C19.5284 66.8214 19.5091 66.853 19.4954 66.8497C19.4817 66.8464 19.4624 66.8779 19.4525 66.9198C19.4427 66.9618 19.4234 66.9933 19.4097 66.99C19.3959 66.9867 19.3767 67.0182 19.3668 67.0602C19.357 67.1021 19.3377 67.1336 19.324 67.1303C19.3102 67.127 19.291 67.1586 19.2811 67.2005C19.2713 67.2424 19.252 67.274 19.2383 67.2706C19.2245 67.2673 19.2053 67.2989 19.1954 67.3408C19.1856 67.3827 19.1663 67.4143 19.1526 67.411C19.1388 67.4076 19.1222 67.4278 19.1157 67.4557C19.1091 67.4837 19.0925 67.5038 19.0788 67.5005C19.0651 67.4972 19.0458 67.5287 19.0359 67.5706C19.0261 67.6126 19.0068 67.6441 18.9931 67.6408C18.9794 67.6375 18.9628 67.6576 18.9562 67.6856C18.9497 67.7135 18.9331 67.7336 18.9193 67.7303C18.9056 67.727 18.889 67.7471 18.8825 67.7751C18.8759 67.803 18.8593 67.8232 18.8456 67.8198C18.8319 67.8165 18.8126 67.8481 18.8027 67.89C18.7929 67.9319 18.7736 67.9635 18.7599 67.9602C18.7461 67.9568 18.7296 67.977 18.723 68.0049C18.7164 68.0329 18.6998 68.053 18.6861 68.0497C18.6724 68.0464 18.6558 68.0665 18.6492 68.0944C18.6427 68.1224 18.6261 68.1425 18.6123 68.1392C18.5986 68.1359 18.582 68.156 18.5755 68.184C18.5689 68.2119 18.5523 68.232 18.5386 68.2287C18.5249 68.2254 18.5083 68.2455 18.5017 68.2735C18.4951 68.3014 18.4785 68.3216 18.4648 68.3182C18.4511 68.3149 18.4351 68.3325 18.4292 68.3574C18.4234 68.3823 18.3923 68.4136 18.3601 68.4271C18.328 68.4406 18.2969 68.472 18.291 68.4968C18.2852 68.5217 18.2692 68.5393 18.2555 68.536C18.2417 68.5327 18.2257 68.5503 18.2199 68.5751C18.214 68.6 18.183 68.6314 18.1508 68.6449C18.1186 68.6584 18.0881 68.6872 18.083 68.709C18.0779 68.7308 18.0474 68.7596 18.0152 68.7731C17.983 68.7866 17.9519 68.818 17.9461 68.8428C17.9402 68.8677 17.9242 68.8853 17.9105 68.882C17.8968 68.8787 17.8808 68.8963 17.8749 68.9211C17.8691 68.946 17.838 68.9774 17.8058 68.9909C17.7737 69.0044 17.7431 69.0332 17.738 69.055C17.7329 69.0767 17.7024 69.1056 17.6702 69.1191C17.6381 69.1326 17.607 69.164 17.6011 69.1888C17.5953 69.2137 17.5793 69.2313 17.5656 69.228C17.5518 69.2246 17.5364 69.2399 17.5312 69.2618C17.5222 69.3003 17.4486 69.3607 17.4193 69.3536C17.4114 69.3517 17.4131 69.3159 17.4229 69.274C17.4328 69.232 17.4521 69.2005 17.4658 69.2038C17.4806 69.2074 17.5126 69.1167 17.5444 68.9812C17.5763 68.8458 17.6083 68.7551 17.6231 68.7587C17.6391 68.7625 17.7077 68.5107 17.8152 68.0535C17.9226 67.5963 17.9734 67.3401 17.9573 67.3362C17.9424 67.3326 17.9563 67.2286 17.9921 67.0761C18.0279 66.9237 18.0418 66.8197 18.0268 66.8161C18.0123 66.8126 18.0218 66.7254 18.0496 66.6068C18.0775 66.4883 18.087 66.4011 18.0724 66.3976C18.0586 66.3942 18.0634 66.3238 18.0833 66.2391C18.1032 66.1545 18.108 66.084 18.0942 66.0807C18.0804 66.0774 18.0826 66.0175 18.099 65.9476C18.1155 65.8778 18.1177 65.8179 18.1039 65.8146C18.0902 65.8113 18.0897 65.7628 18.1029 65.7069C18.116 65.6511 18.1155 65.6026 18.1018 65.5993C18.0881 65.596 18.0903 65.5361 18.1067 65.4662C18.1231 65.3964 18.1253 65.3365 18.1116 65.3332C18.0979 65.3299 18.1001 65.27 18.1165 65.2001C18.1329 65.1303 18.1351 65.0704 18.1214 65.0671C18.1077 65.0638 18.1072 65.0153 18.1203 64.9594C18.1335 64.9036 18.133 64.8551 18.1192 64.8518C18.1055 64.8485 18.1077 64.7886 18.1241 64.7188C18.1406 64.6489 18.1428 64.589 18.129 64.5857C18.1153 64.5824 18.1175 64.5225 18.1339 64.4527C18.1504 64.3828 18.1526 64.3229 18.1388 64.3196C18.1251 64.3163 18.1246 64.2678 18.1378 64.212C18.1509 64.1561 18.1504 64.1076 18.1367 64.1043C18.123 64.101 18.1225 64.0525 18.1356 63.9967C18.1488 63.9408 18.1483 63.8923 18.1346 63.889C18.1208 63.8857 18.1204 63.8373 18.1335 63.7814C18.1466 63.7255 18.1461 63.677 18.1324 63.6737C18.1187 63.6704 18.1155 63.6334 18.1254 63.5915C18.1352 63.5496 18.132 63.5126 18.1183 63.5092C18.1046 63.5059 18.1041 63.4575 18.1173 63.4016C18.1304 63.3457 18.1299 63.2973 18.1162 63.2939C18.1025 63.2906 18.0993 63.2536 18.1091 63.2117C18.119 63.1698 18.1158 63.1328 18.1021 63.1294C18.0884 63.1261 18.0852 63.0891 18.0951 63.0472C18.1049 63.0053 18.1017 62.9683 18.088 62.9649C18.0743 62.9616 18.0711 62.9246 18.081 62.8827C18.0908 62.8408 18.0877 62.8038 18.0739 62.8005C18.0602 62.7971 18.0571 62.7601 18.0669 62.7182C18.0768 62.6763 18.0736 62.6393 18.0599 62.636C18.0461 62.6326 18.043 62.5956 18.0528 62.5537C18.0627 62.5118 18.0595 62.4748 18.0458 62.4715C18.0321 62.4681 18.0262 62.4426 18.0328 62.4146C18.0393 62.3867 18.0335 62.3611 18.0198 62.3578C18.0061 62.3545 18.0029 62.3174 18.0127 62.2755C18.0226 62.2336 18.0194 62.1966 18.0057 62.1933C17.992 62.19 17.9861 62.1644 17.9927 62.1364C17.9992 62.1085 17.9934 62.0829 17.9797 62.0796C17.966 62.0763 17.9628 62.0393 17.9726 61.9973C17.9825 61.9554 17.9793 61.9184 17.9656 61.9151C17.9519 61.9118 17.946 61.8862 17.9526 61.8583C17.9592 61.8303 17.9533 61.8047 17.9396 61.8014C17.9259 61.7981 17.9215 61.7663 17.9298 61.7307C17.9565 61.6173 17.814 61.444 17.7588 61.5227C17.7436 61.5444 17.7338 61.5404 17.7189 61.5063C17.704 61.4723 17.6942 61.4683 17.679 61.49C17.6639 61.5115 17.5411 61.4901 17.187 61.4043C16.889 61.3321 16.7129 61.2994 16.7092 61.3154C16.7055 61.3308 16.5951 61.3146 16.4288 61.2743C16.2625 61.2341 16.152 61.2179 16.1484 61.2333C16.1449 61.2483 16.051 61.2365 15.9179 61.2043C15.7849 61.1721 15.691 61.1602 15.6875 61.1753C15.6839 61.1904 15.59 61.1785 15.457 61.1463C15.324 61.1141 15.2301 61.1023 15.2265 61.1173C15.223 61.1321 15.1374 61.1226 15.021 61.0944C14.9046 61.0662 14.8189 61.0566 14.8155 61.0714C14.812 61.086 14.7347 61.0787 14.6349 61.0545C14.5351 61.0304 14.4577 61.0231 14.4543 61.0376C14.4509 61.052 14.377 61.0458 14.2844 61.0233C14.1756 60.997 14.1056 60.9929 14.0763 61.0113C14.0256 61.043 14.0013 61.1158 14.0383 61.1248C14.052 61.1281 14.0579 61.1537 14.0513 61.1817C14.0448 61.2096 14.0506 61.2352 14.0643 61.2385C14.0781 61.2418 14.0839 61.2674 14.0774 61.2953C14.0708 61.3233 14.0766 61.3489 14.0904 61.3522C14.1041 61.3555 14.1072 61.3925 14.0974 61.4344C14.0876 61.4764 14.0907 61.5134 14.1044 61.5167C14.1182 61.52 14.1213 61.557 14.1115 61.5989C14.1016 61.6408 14.1048 61.6779 14.1185 61.6812C14.1322 61.6845 14.1354 61.7215 14.1256 61.7634C14.1157 61.8053 14.1189 61.8423 14.1326 61.8457C14.1463 61.849 14.1468 61.8974 14.1337 61.9533C14.1205 62.0092 14.121 62.0576 14.1347 62.061C14.1485 62.0643 14.1489 62.1127 14.1358 62.1686C14.1227 62.2245 14.1232 62.2729 14.1369 62.2763C14.1506 62.2796 14.1511 62.328 14.138 62.3839C14.1248 62.4398 14.1253 62.4882 14.139 62.4916C14.1529 62.4949 14.1481 62.5653 14.1282 62.65C14.1083 62.7347 14.1034 62.8051 14.1173 62.8085C14.1315 62.8119 14.1243 62.8907 14.1005 62.9923C14.0766 63.0939 14.0694 63.1727 14.0836 63.1762C14.0987 63.1798 14.0827 63.2923 14.0429 63.4616C14.0031 63.631 13.9871 63.7434 14.0022 63.7471C14.0184 63.751 13.9416 64.1172 13.7824 64.7946C13.6233 65.4719 13.529 65.8339 13.5128 65.83C13.4978 65.8263 13.464 65.9255 13.4282 66.0779C13.3924 66.2303 13.3585 66.3295 13.3435 66.3259C13.3297 66.3225 13.3027 66.3876 13.2828 66.4723C13.2629 66.5569 13.2359 66.622 13.222 66.6186C13.2082 66.6153 13.1812 66.6803 13.1613 66.765C13.1414 66.8497 13.1144 66.9147 13.1005 66.9114C13.0866 66.908 13.0597 66.9731 13.0398 67.0577C13.0199 67.1424 12.9929 67.2074 12.979 67.2041C12.9648 67.2006 12.9362 67.2742 12.9123 67.3759C12.8884 67.4775 12.8598 67.5511 12.8456 67.5476C12.8308 67.544 12.7987 67.6347 12.7669 67.7702C12.7351 67.9057 12.703 67.9963 12.6882 67.9928C12.6745 67.9894 12.6499 68.0439 12.6334 68.1137C12.617 68.1836 12.5924 68.238 12.5787 68.2347C12.5649 68.2314 12.5618 68.1943 12.5716 68.1524C12.5815 68.1105 12.5783 68.0735 12.5646 68.0702C12.5509 68.0669 12.5531 68.007 12.5695 67.9371C12.5859 67.8673 12.5881 67.8074 12.5744 67.8041C12.5606 67.8008 12.5602 67.7523 12.5733 67.6964C12.5864 67.6406 12.5859 67.5921 12.5722 67.5888C12.5585 67.5855 12.558 67.537 12.5712 67.4811C12.5843 67.4253 12.5838 67.3768 12.5701 67.3735C12.5564 67.3702 12.5532 67.3332 12.563 67.2913C12.5729 67.2493 12.5697 67.2123 12.556 67.209C12.5423 67.2057 12.5418 67.1572 12.5549 67.1014C12.5681 67.0455 12.5676 66.997 12.5539 66.9937C12.5401 66.9904 12.537 66.9534 12.5468 66.9115C12.5567 66.8696 12.5535 66.8325 12.5398 66.8292C12.5261 66.8259 12.5256 66.7775 12.5387 66.7216C12.5518 66.6657 12.5514 66.6172 12.5376 66.6139C12.5239 66.6106 12.5234 66.5622 12.5366 66.5063C12.5497 66.4504 12.5492 66.402 12.5355 66.3986C12.5218 66.3953 12.5186 66.3583 12.5285 66.3164C12.5383 66.2745 12.5351 66.2375 12.5214 66.2341C12.5077 66.2308 12.5018 66.2052 12.5084 66.1773C12.515 66.1493 12.5091 66.1238 12.4954 66.1204C12.4817 66.1171 12.4785 66.0801 12.4884 66.0382C12.4982 65.9963 12.495 65.9593 12.4813 65.956C12.4676 65.9526 12.4644 65.9156 12.4743 65.8737C12.4841 65.8318 12.481 65.7948 12.4672 65.7915C12.4535 65.7881 12.4504 65.7511 12.4602 65.7092C12.47 65.6673 12.4669 65.6303 12.4532 65.627C12.4394 65.6236 12.4336 65.5981 12.4402 65.5701C12.4467 65.5422 12.4409 65.5166 12.4271 65.5133C12.4134 65.51 12.4103 65.4729 12.4201 65.431C12.43 65.3891 12.4268 65.3521 12.4131 65.3488C12.3993 65.3455 12.3962 65.3084 12.406 65.2665C12.4159 65.2246 12.4127 65.1876 12.399 65.1843C12.3853 65.181 12.3794 65.1554 12.386 65.1274C12.3925 65.0995 12.3867 65.0739 12.373 65.0706C12.3592 65.0673 12.3561 65.0303 12.3659 64.9884C12.3758 64.9464 12.3726 64.9094 12.3589 64.9061C12.3452 64.9028 12.3393 64.8772 12.3459 64.8493C12.3524 64.8213 12.3466 64.7957 12.3329 64.7924C12.3192 64.7891 12.3133 64.7635 12.3199 64.7356C12.3264 64.7076 12.3206 64.682 12.3069 64.6787C12.2931 64.6754 12.2873 64.6498 12.2938 64.6219C12.3004 64.5939 12.2946 64.5684 12.2808 64.565C12.2671 64.5617 12.2613 64.5361 12.2678 64.5082C12.2744 64.4802 12.2685 64.4547 12.2548 64.4513C12.2411 64.448 12.2379 64.411 12.2478 64.3691C12.2576 64.3272 12.2545 64.2902 12.2407 64.2869C12.227 64.2835 12.2212 64.2579 12.2277 64.23C12.2343 64.2021 12.2284 64.1765 12.2147 64.1732C12.201 64.1698 12.1952 64.1443 12.2017 64.1163C12.2083 64.0884 12.2024 64.0628 12.1887 64.0595C12.175 64.0561 12.1691 64.0306 12.1757 64.0026C12.1823 63.9747 12.1764 63.9491 12.1627 63.9458C12.149 63.9425 12.1431 63.9169 12.1497 63.8889C12.1562 63.861 12.1504 63.8354 12.1367 63.8321C12.123 63.8288 12.1171 63.8032 12.1237 63.7752C12.1302 63.7473 12.1244 63.7217 12.1107 63.7184C12.0969 63.7151 12.0911 63.6895 12.0977 63.6616C12.1042 63.6336 12.0984 63.608 12.0846 63.6047C12.0709 63.6014 12.0651 63.5758 12.0716 63.5479C12.0782 63.5199 12.0723 63.4943 12.0586 63.491C12.0449 63.4877 12.0385 63.4646 12.0443 63.4398C12.0501 63.4149 12.0363 63.3727 12.0136 63.3459C11.9909 63.3191 11.9771 63.2768 11.983 63.252C11.9888 63.2271 11.9824 63.2041 11.9686 63.2007C11.9549 63.1974 11.9491 63.1718 11.9556 63.1439C11.9622 63.116 11.9563 63.0904 11.9426 63.0871C11.9289 63.0837 11.9225 63.0607 11.9283 63.0358C11.9341 63.011 11.9203 62.9687 11.8976 62.9419C11.8749 62.9151 11.8605 62.8754 11.8656 62.8536C11.8708 62.8319 11.8564 62.7921 11.8337 62.7653C11.811 62.7386 11.7961 62.7009 11.8006 62.6816C11.8051 62.6624 11.7827 62.6064 11.7507 62.5573C11.7188 62.5082 11.6957 62.4547 11.6995 62.4385C11.7034 62.4222 11.6634 62.3396 11.6108 62.255C11.5582 62.1703 11.5183 62.0877 11.5221 62.0715C11.5259 62.0552 11.5029 62.0017 11.471 61.9526C11.439 61.9035 11.4161 61.8496 11.42 61.8329C11.4239 61.8161 11.401 61.7623 11.369 61.7131C11.3371 61.664 11.3141 61.6102 11.3181 61.5934C11.322 61.5767 11.2991 61.5228 11.2671 61.4737C11.2351 61.4246 11.2121 61.3713 11.2158 61.3553C11.2259 61.3125 11.1357 61.1734 11.0909 61.1625C11.0697 61.1574 11.0497 61.1646 11.0464 61.1786C11.0431 61.1926 11.018 61.1986 10.9906 61.1919C10.9631 61.1853 10.938 61.1913 10.9347 61.2052C10.9314 61.2192 10.8951 61.2225 10.8539 61.2125C10.8127 61.2025 10.7764 61.2058 10.7731 61.2198C10.7698 61.2337 10.7447 61.2397 10.7172 61.2331C10.6898 61.2264 10.6647 61.2324 10.6614 61.2464C10.6581 61.2604 10.633 61.2664 10.6055 61.2597C10.5781 61.2531 10.5529 61.2591 10.5497 61.273C10.5464 61.287 10.5212 61.293 10.4938 61.2863C10.4664 61.2797 10.4412 61.2857 10.4379 61.2997C10.4347 61.3136 10.4095 61.3196 10.3821 61.313C10.3547 61.3063 10.3295 61.3123 10.3262 61.3263C10.3229 61.3403 10.2866 61.3435 10.2454 61.3336C10.2043 61.3236 10.1679 61.3269 10.1646 61.3408C10.1613 61.3548 10.1362 61.3608 10.1088 61.3542C10.0813 61.3475 10.0562 61.3535 10.0529 61.3675C10.0496 61.3814 10.0245 61.3874 9.99705 61.3808C9.96961 61.3741 9.94447 61.3801 9.94119 61.3941C9.9379 61.4081 9.91277 61.4141 9.88533 61.4074C9.85789 61.4008 9.83275 61.4068 9.82947 61.4207C9.82619 61.4347 9.80105 61.4407 9.77361 61.434C9.74617 61.4274 9.72103 61.4334 9.71775 61.4474C9.71447 61.4613 9.67811 61.4646 9.63695 61.4546C9.59579 61.4447 9.55943 61.4479 9.55614 61.4619C9.55286 61.4759 9.52772 61.4819 9.50028 61.4752C9.47284 61.4686 9.44771 61.4746 9.44442 61.4885C9.44114 61.5025 9.41601 61.5085 9.38857 61.5019C9.36113 61.4952 9.33599 61.5012 9.33271 61.5152C9.32942 61.5291 9.30676 61.5357 9.28236 61.5298C9.25794 61.5239 9.21642 61.538 9.19007 61.5612C9.16373 61.5843 9.12221 61.5984 9.09779 61.5925C9.07339 61.5866 9.05073 61.5932 9.04744 61.6071C9.04416 61.6211 9.01902 61.6271 8.99158 61.6205C8.96414 61.6138 8.93901 61.6198 8.93573 61.6338C8.93244 61.6477 8.89608 61.651 8.85492 61.641C8.81376 61.6311 8.7774 61.6344 8.77412 61.6483C8.77083 61.6623 8.7457 61.6683 8.71826 61.6616C8.69082 61.655 8.66568 61.661 8.6624 61.675C8.65912 61.6889 8.63645 61.6955 8.61205 61.6896C8.58763 61.6837 8.54611 61.6978 8.51977 61.7209C8.49342 61.7441 8.4519 61.7582 8.42748 61.7523C8.40309 61.7464 8.38042 61.753 8.37714 61.7669C8.37385 61.7809 8.34872 61.7869 8.32128 61.7802C8.29384 61.7736 8.2687 61.7796 8.26542 61.7936C8.26214 61.8075 8.237 61.8135 8.20956 61.8069C8.18212 61.8002 8.15698 61.8062 8.1537 61.8202C8.15042 61.8342 8.12775 61.8408 8.10335 61.8348C8.07893 61.8289 8.03742 61.843 8.01107 61.8662C7.98472 61.8893 7.9432 61.9034 7.91878 61.8975C7.89439 61.8916 7.87172 61.8982 7.86844 61.9122C7.86515 61.9261 7.84002 61.9321 7.81258 61.9255C7.78514 61.9188 7.76 61.9248 7.75672 61.9388C7.75344 61.9528 7.7283 61.9588 7.70086 61.9521C7.67342 61.9455 7.64828 61.9515 7.645 61.9654C7.64172 61.9794 7.61905 61.986 7.59465 61.9801C7.57023 61.9742 7.52872 61.9883 7.50237 62.0114C7.47602 62.0346 7.43451 62.0487 7.41008 62.0428C7.38569 62.0368 7.36302 62.0434 7.35974 62.0574C7.35646 62.0714 7.33379 62.078 7.30939 62.0721C7.28497 62.0661 7.24345 62.0802 7.21711 62.1034C7.19076 62.1265 7.14924 62.1407 7.12482 62.1347C7.10042 62.1288 7.07776 62.1354 7.07447 62.1494C7.07119 62.1634 7.04852 62.1699 7.02413 62.164C6.99971 62.1581 6.95819 62.1722 6.93184 62.1954C6.9055 62.2185 6.86645 62.2332 6.84507 62.228C6.82369 62.2229 6.78464 62.2376 6.7583 62.2607C6.73195 62.2839 6.6929 62.2986 6.67152 62.2934C6.65015 62.2882 6.6111 62.3029 6.58475 62.3261C6.5584 62.3492 6.51689 62.3633 6.49247 62.3574C6.46807 62.3515 6.4454 62.3581 6.44212 62.3721C6.43884 62.386 6.41617 62.3926 6.39177 62.3867C6.36735 62.3808 6.32584 62.3949 6.29949 62.418C6.27314 62.4412 6.23611 62.4564 6.21721 62.4518C6.19832 62.4472 6.14332 62.4702 6.09503 62.5028C6.04674 62.5354 5.99174 62.5583 5.97285 62.5537C5.95394 62.5491 5.91692 62.5643 5.89057 62.5875C5.86422 62.6106 5.82518 62.6253 5.8038 62.6201C5.78242 62.615 5.74337 62.6297 5.71702 62.6528C5.69068 62.676 5.65365 62.6911 5.63474 62.6866C5.61586 62.682 5.56085 62.7049 5.51257 62.7375C5.46428 62.7701 5.41154 62.7936 5.39538 62.7897C5.37924 62.7858 5.31214 62.8178 5.24628 62.8609C5.18041 62.904 5.11354 62.9362 5.09768 62.9323C5.08181 62.9285 5.01494 62.9606 4.94908 63.0037C4.88321 63.0468 4.81649 63.079 4.8008 63.0752C4.78514 63.0714 4.70421 63.1122 4.62097 63.1658C4.53772 63.2195 4.45762 63.2605 4.44292 63.257C4.4082 63.2485 3.02743 64.113 3.01912 64.1483C3.01564 64.1632 2.92962 64.2263 2.82797 64.2886C2.72632 64.351 2.64011 64.4149 2.63638 64.4308C2.63266 64.4466 2.57439 64.4926 2.5069 64.533C2.4394 64.5734 2.38101 64.6199 2.37715 64.6364C2.37329 64.6528 2.32892 64.6901 2.27856 64.7193C2.22821 64.7485 2.18379 64.7861 2.17985 64.8028C2.17592 64.8195 2.1315 64.8571 2.08114 64.8863C2.03079 64.9154 1.98588 64.9551 1.98136 64.9743C1.97684 64.9936 1.94681 65.0204 1.91464 65.0339C1.88246 65.0474 1.85137 65.0787 1.84552 65.1036C1.83969 65.1284 1.82368 65.1461 1.80996 65.1427C1.79624 65.1394 1.78023 65.157 1.7744 65.1819C1.76855 65.2068 1.73745 65.2381 1.70528 65.2516C1.67311 65.2651 1.6426 65.294 1.63749 65.3157C1.63237 65.3375 1.60186 65.3664 1.56969 65.3799C1.53752 65.3934 1.50642 65.4247 1.50057 65.4496C1.49474 65.4744 1.47873 65.4921 1.46501 65.4887C1.45129 65.4854 1.43469 65.5056 1.42813 65.5335C1.42156 65.5614 1.40497 65.5816 1.39125 65.5783C1.37753 65.5749 1.36093 65.5951 1.35436 65.623C1.3478 65.651 1.3312 65.6711 1.31748 65.6678C1.30376 65.6644 1.28717 65.6846 1.2806 65.7125C1.27404 65.7405 1.25744 65.7606 1.24372 65.7573C1.23 65.754 1.2134 65.7741 1.20684 65.802C1.20027 65.83 1.18367 65.8501 1.16995 65.8468C1.15623 65.8435 1.13964 65.8636 1.13307 65.8916C1.12651 65.9195 1.10991 65.9397 1.09619 65.9363C1.08247 65.933 1.06587 65.9531 1.05931 65.9811C1.05274 66.009 1.03615 66.0292 1.02243 66.0258C1.00871 66.0225 0.992108 66.0427 0.985543 66.0706C0.978977 66.0985 0.962381 66.1187 0.948661 66.1154C0.934941 66.112 0.918344 66.1322 0.911778 66.1601C0.905213 66.1881 0.888616 66.2082 0.874896 66.2049C0.861176 66.2016 0.841894 66.2331 0.832046 66.275C0.822198 66.317 0.802915 66.3485 0.789195 66.3452C0.775475 66.3419 0.756192 66.3735 0.746344 66.4154C0.736496 66.4573 0.717213 66.4888 0.703494 66.4855C0.689774 66.4822 0.667805 66.5252 0.654674 66.5811C0.641544 66.637 0.619575 66.68 0.605855 66.6766C0.592136 66.6733 0.572853 66.7049 0.563005 66.7468C0.553157 66.7887 0.533874 66.8203 0.520154 66.817C0.506434 66.8136 0.48178 66.8681 0.465366 66.9379C0.448953 67.0078 0.424299 67.0622 0.410579 67.0589C0.396859 67.0556 0.372204 67.11 0.355791 67.1799C0.339378 67.2497 0.314723 67.3041 0.301004 67.3008C0.285213 67.297 0.232292 67.481 0.156689 67.8028C0.0810863 68.1246 0.0464742 68.313 0.0622645 68.3169C0.0765082 68.3203 0.0693045 68.3991 0.0454306 68.5007C0.0215567 68.6023 0.0143526 68.6811 0.0285964 68.6846C0.0423162 68.6879 0.0401126 68.7478 0.0236993 68.8176C0.00728601 68.8875 0.00508239 68.9473 0.0188023 68.9507C0.0325222 68.954 0.0303183 69.0139 0.013905 69.0837C-0.00250832 69.1536 -0.00471194 69.2134 0.00900794 69.2168C0.0227278 69.2201 0.02321 69.2685 0.0100794 69.3244C-0.00305129 69.3803 -0.00256911 69.4287 0.0111508 69.4321C0.0248707 69.4354 0.0280384 69.4724 0.0181904 69.5143C0.00834239 69.5562 0.0115104 69.5932 0.0252303 69.5966C0.0389501 69.5999 0.0421181 69.6369 0.0322702 69.6788C0.0224222 69.7207 0.0255901 69.7577 0.03931 69.761C0.0530299 69.7644 0.0588837 69.7899 0.0523184 69.8179C0.045753 69.8458 0.0516068 69.8714 0.0653267 69.8747C0.0790466 69.8781 0.0822143 69.9151 0.0723663 69.957C0.0625183 69.9989 0.0656863 70.0359 0.0794062 70.0392C0.093126 70.0426 0.0989798 70.0681 0.0924145 70.0961C0.0858492 70.124 0.0917029 70.1496 0.105423 70.1529C0.119143 70.1562 0.122311 70.1933 0.112463 70.2352C0.102615 70.2771 0.105782 70.3141 0.119502 70.3174C0.133222 70.3207 0.139076 70.3463 0.132511 70.3743C0.125945 70.4022 0.131799 70.4278 0.145519 70.4311C0.159239 70.4344 0.165093 70.46 0.158527 70.4879C0.151962 70.5159 0.157816 70.5415 0.171536 70.5448C0.185256 70.5481 0.191109 70.5737 0.184544 70.6016C0.177979 70.6296 0.183832 70.6552 0.197552 70.6585C0.211272 70.6618 0.217126 70.6874 0.210561 70.7153C0.203995 70.7433 0.209849 70.7689 0.223569 70.7722C0.237289 70.7755 0.243142 70.8011 0.236577 70.829C0.230012 70.857 0.235865 70.8825 0.249585 70.8859C0.263305 70.8892 0.26975 70.9123 0.263913 70.9371C0.25807 70.962 0.271872 71.0042 0.294579 71.031C0.317286 71.0578 0.331088 71.1 0.325245 71.1249C0.319408 71.1497 0.325852 71.1728 0.339572 71.1761C0.353292 71.1795 0.359737 71.2025 0.353899 71.2274C0.348056 71.2522 0.361859 71.2945 0.384565 71.3213C0.407272 71.3481 0.421666 71.3878 0.416551 71.4096C0.411436 71.4313 0.425829 71.4711 0.448536 71.4978C0.471243 71.5246 0.485636 71.5644 0.480521 71.5861C0.475406 71.6079 0.489799 71.6476 0.512506 71.6744C0.535213 71.7012 0.550149 71.7386 0.54569 71.7576C0.541232 71.7766 0.572167 71.8469 0.614429 71.9139C0.656692 71.9809 0.688164 72.0489 0.684368 72.0651C0.680572 72.0812 0.712044 72.1493 0.754307 72.2162C0.796569 72.2832 0.828238 72.3504 0.824675 72.3656C0.816212 72.4016 1.51179 73.5542 1.54716 73.5627C1.56205 73.5663 1.60661 73.6255 1.64621 73.6941C1.68582 73.7628 1.73143 73.8222 1.74757 73.8261C1.76373 73.83 1.80035 73.8751 1.82894 73.9263C1.85754 73.9775 1.89438 74.0227 1.91082 74.0267C1.92726 74.0307 1.9641 74.0758 1.99269 74.1271C2.02129 74.1783 2.06018 74.224 2.07906 74.2285C2.09797 74.2331 2.12425 74.2636 2.13747 74.2964C2.15068 74.3291 2.17899 74.3601 2.20037 74.3653C2.22175 74.3705 2.25005 74.4015 2.26327 74.4342C2.27648 74.467 2.30479 74.498 2.32616 74.5032C2.34754 74.5083 2.37585 74.5394 2.38906 74.5721C2.40228 74.6048 2.43305 74.6364 2.45747 74.6424C2.48187 74.6483 2.49917 74.6645 2.49588 74.6785C2.4926 74.6925 2.51237 74.7094 2.53981 74.716C2.56725 74.7226 2.58701 74.7395 2.58373 74.7535C2.58045 74.7675 2.59774 74.7837 2.62214 74.7896C2.64656 74.7956 2.67733 74.8272 2.69055 74.8599C2.70377 74.8926 2.73454 74.9243 2.75896 74.9302C2.78336 74.9361 2.80065 74.9524 2.79737 74.9663C2.79409 74.9803 2.81385 74.9972 2.84129 75.0038C2.86873 75.0105 2.8885 75.0273 2.88521 75.0413C2.88193 75.0553 2.9017 75.0721 2.92914 75.0788C2.95658 75.0854 2.97634 75.1023 2.97306 75.1163C2.96978 75.1302 2.98954 75.1471 3.01698 75.1538C3.04442 75.1604 3.06418 75.1773 3.0609 75.1912C3.05762 75.2052 3.07738 75.2221 3.10482 75.2287C3.13226 75.2354 3.15203 75.2522 3.14875 75.2662C3.14546 75.2802 3.16523 75.2971 3.19267 75.3037C3.22011 75.3104 3.23987 75.3272 3.23659 75.3412C3.23331 75.3552 3.25307 75.372 3.28051 75.3787C3.30795 75.3853 3.32772 75.4022 3.32443 75.4162C3.32115 75.4301 3.34092 75.447 3.36836 75.4537C3.3958 75.4603 3.41556 75.4772 3.41228 75.4911C3.409 75.5051 3.43999 75.5247 3.48115 75.5347C3.52231 75.5446 3.5533 75.5642 3.55001 75.5782C3.54673 75.5922 3.56649 75.609 3.59393 75.6157C3.62137 75.6223 3.64114 75.6392 3.63786 75.6532C3.63457 75.6671 3.65434 75.684 3.68178 75.6907C3.70922 75.6973 3.72898 75.7142 3.7257 75.7282C3.72242 75.7421 3.74218 75.759 3.76962 75.7656C3.79706 75.7723 3.81683 75.7892 3.81354 75.8031C3.81026 75.8171 3.84125 75.8367 3.88241 75.8467C3.92357 75.8566 3.95456 75.8762 3.95128 75.8902C3.948 75.9042 3.96776 75.921 3.9952 75.9277C4.02264 75.9343 4.04241 75.9512 4.03912 75.9652C4.03584 75.9791 4.06683 75.9987 4.10799 76.0087C4.14915 76.0187 4.18014 76.0382 4.17686 76.0522C4.17358 76.0662 4.20457 76.0858 4.24572 76.0957C4.28688 76.1057 4.31787 76.1253 4.31459 76.1393C4.31131 76.1532 4.3423 76.1728 4.38346 76.1828C4.42462 76.1928 4.45561 76.2124 4.45233 76.2263C4.44904 76.2403 4.48003 76.2599 4.52119 76.2699C4.56235 76.2798 4.59334 76.2994 4.59006 76.3134C4.58678 76.3274 4.61777 76.347 4.65893 76.3569C4.70009 76.3669 4.73108 76.3865 4.7278 76.4005C4.72451 76.4144 4.7555 76.434 4.79666 76.444C4.83782 76.454 4.86881 76.4735 4.86553 76.4875C4.86225 76.5015 4.90446 76.5238 4.95934 76.5371C5.01422 76.5504 5.05644 76.5727 5.05316 76.5867C5.04987 76.6006 5.08086 76.6202 5.12202 76.6302C5.16318 76.6402 5.19417 76.6598 5.19089 76.6737C5.18761 76.6877 5.2186 76.7073 5.25976 76.7173C5.30092 76.7272 5.33191 76.7468 5.32862 76.7608C5.32534 76.7748 5.37878 76.7998 5.44738 76.8164C5.51598 76.833 5.56942 76.858 5.56614 76.872C5.56286 76.886 5.60507 76.9083 5.65995 76.9216C5.71483 76.9349 5.75705 76.9572 5.75376 76.9712C5.75048 76.9851 5.7927 77.0074 5.84758 77.0207C5.90246 77.034 5.94467 77.0563 5.94139 77.0703C5.93811 77.0843 5.9691 77.1039 6.01026 77.1138C6.05142 77.1238 6.08241 77.1434 6.07912 77.1574C6.07584 77.1713 6.11806 77.1936 6.17294 77.2069C6.22782 77.2202 6.27003 77.2425 6.26675 77.2565C6.26347 77.2705 6.31691 77.2955 6.38551 77.3121C6.45411 77.3287 6.50755 77.3538 6.50426 77.3677C6.50098 77.3817 6.5432 77.404 6.59808 77.4173C6.65296 77.4306 6.69517 77.4529 6.69189 77.4669C6.68861 77.4809 6.73082 77.5032 6.7857 77.5165C6.84058 77.5298 6.8828 77.5521 6.87952 77.566C6.87623 77.58 6.92967 77.605 6.99827 77.6216C7.06687 77.6383 7.12031 77.6633 7.11703 77.6773C7.11371 77.6914 7.17759 77.7188 7.26073 77.7389C7.34388 77.7591 7.40776 77.7865 7.40444 77.8006C7.40115 77.8146 7.4546 77.8396 7.52319 77.8562C7.59179 77.8728 7.64523 77.8978 7.64195 77.9118C7.63863 77.9259 7.70251 77.9533 7.78566 77.9735C7.8688 77.9936 7.93268 78.021 7.92936 78.0351C7.92608 78.0491 7.97952 78.0741 8.04812 78.0907C8.11672 78.1074 8.17016 78.1324 8.16687 78.1464C8.16356 78.1605 8.22743 78.1879 8.31058 78.208C8.39372 78.2282 8.4576 78.2556 8.45428 78.2697C8.45096 78.2838 8.51484 78.3112 8.59798 78.3313C8.68113 78.3515 8.745 78.3789 8.74169 78.393C8.73837 78.4071 8.80225 78.4345 8.88539 78.4547C8.96853 78.4748 9.03241 78.5022 9.02909 78.5163C9.02577 78.5304 9.08965 78.5578 9.17279 78.578C9.25594 78.5981 9.31982 78.6255 9.3165 78.6396C9.31302 78.6544 9.39367 78.6852 9.51009 78.7134C9.62651 78.7416 9.70716 78.7723 9.70368 78.7871C9.70015 78.8022 9.78919 78.8347 9.92222 78.8669C10.0553 78.8991 10.1443 78.9316 10.1408 78.9467C10.1373 78.9615 10.2179 78.9922 10.3344 79.0204C10.4508 79.0486 10.5314 79.0794 10.5279 79.0942C10.5244 79.1092 10.6135 79.1417 10.7465 79.174C10.8795 79.2062 10.9686 79.2387 10.965 79.2538C10.9615 79.2686 11.0422 79.2993 11.1586 79.3275C11.275 79.3557 11.3557 79.3864 11.3522 79.4013C11.3486 79.4165 11.446 79.4508 11.5957 79.4871C11.7454 79.5233 11.8428 79.5577 11.8392 79.5729C11.8356 79.5882 11.933 79.6225 12.0827 79.6587C12.2323 79.695 12.3297 79.7293 12.3261 79.7446C12.3225 79.7601 12.4366 79.7982 12.6195 79.8425C12.8024 79.8868 12.9165 79.9249 12.9129 79.9404C12.9092 79.956 13.0317 79.996 13.2312 80.0444C13.4308 80.0927 13.5532 80.1327 13.5495 80.1483C13.5458 80.1641 13.6849 80.208 13.9177 80.2644C14.1506 80.3208 14.2897 80.3646 14.286 80.3804C14.2822 80.3965 14.4712 80.4521 14.8038 80.5327C15.1364 80.6133 15.3255 80.6689 15.3217 80.685C15.3179 80.7012 15.5153 80.7588 15.8645 80.8434C16.2138 80.928 16.4112 80.9856 16.4074 81.0017C16.4035 81.018 16.6509 81.0875 17.0999 81.1963C17.5489 81.3051 17.7962 81.3746 17.7924 81.3909C17.7884 81.4077 18.7426 81.648 20.6052 82.0992C22.4678 82.5504 23.4261 82.7734 23.43 82.7566C23.4338 82.7404 23.6522 82.7836 24.0347 82.8762C24.4171 82.9689 24.6355 83.0121 24.6393 82.9959C24.643 82.9799 24.8033 83.0087 25.0693 83.0732C25.3354 83.1377 25.4956 83.1665 25.4994 83.1505C25.5031 83.1347 25.646 83.1592 25.8775 83.2153C26.1518 83.2817 26.2548 83.2979 26.2697 83.2767C26.2848 83.2551 26.2946 83.2591 26.3096 83.2931C26.3245 83.3271 26.3343 83.3311 26.3495 83.3095C26.364 83.2888 26.4524 83.3009 26.6668 83.3528C26.8484 83.3968 26.9664 83.4149 26.9701 83.3994C26.9737 83.3839 27.0925 83.4022 27.2754 83.4465C27.4583 83.4908 27.5771 83.5092 27.5807 83.4936C27.5842 83.4786 27.6781 83.4904 27.8112 83.5226C27.9442 83.5549 28.0381 83.5667 28.0417 83.5516C28.0452 83.5366 28.1391 83.5484 28.2721 83.5806C28.4052 83.6128 28.4991 83.6246 28.5026 83.6096C28.5061 83.5948 28.5917 83.6043 28.7081 83.6325C28.8246 83.6607 28.9102 83.6703 28.9137 83.6555C28.9171 83.6407 29.0028 83.6502 29.1192 83.6784C29.2356 83.7066 29.3212 83.7162 29.3247 83.7014C29.3282 83.6865 29.4138 83.6961 29.5303 83.7243C29.6467 83.7525 29.7323 83.762 29.7358 83.7472C29.7392 83.7327 29.8166 83.74 29.9164 83.7641C30.0162 83.7883 30.0935 83.7955 30.097 83.781C30.1004 83.7662 30.1861 83.7758 30.3025 83.804C30.4189 83.8322 30.5045 83.8417 30.508 83.8269C30.5113 83.8128 30.5805 83.8176 30.6637 83.8378C30.7468 83.8579 30.816 83.8628 30.8193 83.8486C30.8227 83.8341 30.9001 83.8414 30.9999 83.8655C31.0997 83.8897 31.1771 83.8969 31.1805 83.8824C31.1838 83.8685 31.2426 83.8706 31.3112 83.8872C31.3798 83.9039 31.4386 83.906 31.4419 83.8921C31.4452 83.8779 31.5144 83.8828 31.5975 83.9029C31.6806 83.9231 31.7498 83.9279 31.7531 83.9138C31.7564 83.8998 31.8152 83.902 31.8838 83.9186C31.9524 83.9352 32.0112 83.9374 32.0145 83.9234C32.0178 83.9094 32.0766 83.9116 32.1452 83.9282C32.2138 83.9448 32.2726 83.947 32.2759 83.933C32.2792 83.9191 32.338 83.9212 32.4066 83.9378C32.4752 83.9545 32.534 83.9566 32.5373 83.9427C32.5406 83.9287 32.5994 83.9308 32.668 83.9475C32.7366 83.9641 32.7954 83.9662 32.7987 83.9523C32.802 83.9382 32.8712 83.943 32.9543 83.9631C33.0375 83.9833 33.1067 83.9881 33.11 83.974C33.1133 83.96 33.1721 83.9622 33.2407 83.9788C33.3093 83.9954 33.3681 83.9976 33.3714 83.9836C33.3746 83.9696 33.4222 83.9691 33.4771 83.9824C33.532 83.9957 33.5796 83.9951 33.5829 83.9812C33.5861 83.9672 33.645 83.9694 33.7136 83.986C33.7822 84.0026 33.841 84.0048 33.8443 83.9908C33.8475 83.9768 33.8951 83.9763 33.95 83.9896C34.0049 84.0029 34.0525 84.0023 34.0558 83.9883C34.059 83.9744 34.1066 83.9738 34.1615 83.9871C34.2164 84.0004 34.264 83.9998 34.2672 83.9859C34.2705 83.9719 34.3181 83.9713 34.373 83.9846C34.4279 83.9979 34.4755 83.9974 34.4787 83.9834C34.482 83.9694 34.5296 83.9689 34.5845 83.9822C34.6394 83.9955 34.687 83.9949 34.6902 83.981C34.6935 83.967 34.7411 83.9664 34.796 83.9797C34.8509 83.993 34.8985 83.9925 34.9017 83.9785C34.905 83.9645 34.9638 83.9667 35.0324 83.9833C35.101 83.9999 35.1599 84.0021 35.1631 83.9881C35.1664 83.9741 35.214 83.9736 35.2689 83.9869C35.3238 84.0002 35.3714 83.9996 35.3746 83.9857C35.3779 83.9717 35.4143 83.9684 35.4554 83.9784C35.4966 83.9884 35.533 83.9851 35.5362 83.9711C35.5395 83.9571 35.5871 83.9566 35.642 83.9699C35.6969 83.9832 35.7445 83.9826 35.7477 83.9687C35.751 83.9547 35.7874 83.9514 35.8285 83.9614C35.8697 83.9714 35.9061 83.9681 35.9094 83.9541C35.9126 83.9401 35.9602 83.9396 36.0151 83.9529C36.07 83.9662 36.1176 83.9656 36.1209 83.9517C36.1241 83.9377 36.1605 83.9344 36.2017 83.9444C36.2428 83.9544 36.2792 83.9511 36.2825 83.9371C36.2857 83.9231 36.3221 83.9199 36.3633 83.9298C36.4044 83.9398 36.4408 83.9365 36.4441 83.9226C36.4474 83.9086 36.4949 83.908 36.5498 83.9213C36.6047 83.9346 36.6523 83.9341 36.6556 83.9201C36.6588 83.9061 36.6952 83.9029 36.7364 83.9128C36.7775 83.9228 36.8139 83.9195 36.8172 83.9056C36.8205 83.8916 36.8568 83.8883 36.898 83.8983C36.9391 83.9083 36.9755 83.905 36.9788 83.891C36.9821 83.877 37.0184 83.8738 37.0596 83.8837C37.1007 83.8937 37.1371 83.8904 37.1404 83.8765C37.1437 83.8625 37.18 83.8592 37.2212 83.8692C37.2624 83.8792 37.2987 83.8759 37.302 83.8619C37.3053 83.848 37.3416 83.8447 37.3828 83.8547C37.424 83.8646 37.4603 83.8614 37.4636 83.8474C37.4669 83.8334 37.5033 83.8301 37.5444 83.8401C37.5856 83.8501 37.6219 83.8468 37.6252 83.8328C37.6285 83.8189 37.6649 83.8156 37.706 83.8256C37.7472 83.8355 37.7835 83.8323 37.7868 83.8183C37.7901 83.8043 37.8265 83.801 37.8676 83.811C37.9088 83.821 37.9452 83.8177 37.9484 83.8037C37.9517 83.7898 37.9881 83.7865 38.0292 83.7965C38.0704 83.8064 38.1068 83.8032 38.11 83.7892C38.1133 83.7752 38.1497 83.772 38.1908 83.7819C38.232 83.7919 38.2684 83.7886 38.2717 83.7747C38.2749 83.7607 38.3001 83.7547 38.3275 83.7613C38.3549 83.768 38.3801 83.762 38.3834 83.748C38.3867 83.7341 38.4118 83.7281 38.4392 83.7347C38.4667 83.7414 38.4918 83.7354 38.4951 83.7214C38.4984 83.7074 38.5347 83.7042 38.5759 83.7141C38.6171 83.7241 38.6534 83.7208 38.6567 83.7069C38.66 83.6929 38.6851 83.6869 38.7126 83.6935C38.74 83.7002 38.7651 83.6942 38.7684 83.6802C38.7717 83.6662 38.7968 83.6603 38.8243 83.6669C38.8517 83.6736 38.8768 83.6676 38.8801 83.6536C38.8834 83.6396 38.9085 83.6336 38.936 83.6403C38.9634 83.6469 38.9886 83.6409 38.9919 83.627C38.9951 83.613 39.0203 83.607 39.0477 83.6136C39.0751 83.6203 39.1003 83.6143 39.1036 83.6003C39.1069 83.5864 39.132 83.5804 39.1594 83.587C39.1869 83.5937 39.212 83.5877 39.2153 83.5737C39.2186 83.5597 39.2412 83.5531 39.2656 83.559C39.2901 83.565 39.3316 83.5509 39.3579 83.5277C39.3843 83.5046 39.4258 83.4905 39.4502 83.4964C39.4746 83.5023 39.4973 83.4957 39.5005 83.4817C39.5038 83.4677 39.5265 83.4612 39.5509 83.4671C39.5753 83.473 39.6168 83.4589 39.6432 83.4357C39.6695 83.4126 39.7086 83.3979 39.7299 83.4031C39.7513 83.4082 39.7904 83.3935 39.8167 83.3704C39.8431 83.3472 39.8821 83.3325 39.9035 83.3377C39.9249 83.3429 39.9639 83.3282 39.9903 83.305C40.0166 83.2819 40.0557 83.2672 40.077 83.2724C40.0984 83.2775 40.1375 83.2628 40.1638 83.2397C40.1902 83.2165 40.2272 83.2013 40.2461 83.2059C40.265 83.2105 40.32 83.1876 40.3683 83.155C40.4166 83.1224 40.4693 83.0989 40.4855 83.1028C40.5016 83.1067 40.5687 83.0747 40.6346 83.0316C40.7004 82.9885 40.7665 82.9561 40.7814 82.9598C40.8169 82.9683 41.6407 82.4525 41.6492 82.4164C41.6527 82.4012 41.7109 82.3557 41.7784 82.3153C41.8459 82.2749 41.9043 82.2284 41.9081 82.212C41.912 82.1955 41.9563 82.1582 42.0067 82.129C42.0571 82.0998 42.102 82.0602 42.1065 82.041C42.111 82.0217 42.141 81.9949 42.1732 81.9814C42.2054 81.9679 42.2359 81.9391 42.241 81.9173C42.2461 81.8955 42.2766 81.8667 42.3088 81.8532C42.341 81.8397 42.3721 81.8083 42.3779 81.7834C42.3838 81.7586 42.3998 81.741 42.4135 81.7443C42.4272 81.7476 42.4438 81.7275 42.4504 81.6995C42.4569 81.6716 42.4735 81.6514 42.4872 81.6548C42.501 81.6581 42.5176 81.638 42.5241 81.61C42.5307 81.5821 42.5473 81.5619 42.561 81.5653C42.5747 81.5686 42.5913 81.5484 42.5979 81.5205C42.6045 81.4926 42.6211 81.4724 42.6348 81.4757C42.6485 81.4791 42.6651 81.4589 42.6717 81.431C42.6782 81.403 42.6948 81.3829 42.7085 81.3862C42.7223 81.3895 42.7389 81.3694 42.7454 81.3415C42.752 81.3135 42.7686 81.2934 42.7823 81.2967C42.796 81.3 42.8126 81.2799 42.8192 81.2519C42.8257 81.224 42.8423 81.2039 42.8561 81.2072C42.8698 81.2105 42.8864 81.1904 42.8929 81.1624C42.8995 81.1345 42.9161 81.1143 42.9298 81.1177C42.9435 81.121 42.9628 81.0894 42.9727 81.0475C42.9825 81.0056 43.0018 80.974 43.0155 80.9773C43.0293 80.9807 43.0458 80.9605 43.0524 80.9326C43.059 80.9046 43.0756 80.8845 43.0893 80.8878C43.103 80.8911 43.1223 80.8596 43.1321 80.8177C43.142 80.7757 43.1613 80.7442 43.175 80.7475C43.1887 80.7508 43.208 80.7193 43.2178 80.6773C43.2277 80.6354 43.247 80.6039 43.2607 80.6072C43.2744 80.6105 43.2964 80.5675 43.3095 80.5116C43.3226 80.4557 43.3446 80.4127 43.3583 80.4161C43.3721 80.4194 43.3967 80.3649 43.4131 80.2951C43.4295 80.2252 43.4542 80.1708 43.4679 80.1741C43.4816 80.1775 43.5063 80.123 43.5227 80.0532C43.5391 79.9833 43.5638 79.9289 43.5775 79.9322C43.5923 79.9358 43.6243 79.8451 43.6561 79.7096C43.688 79.5742 43.72 79.4835 43.7348 79.4871C43.7502 79.4908 43.7916 79.3576 43.8433 79.1375C43.895 78.9173 43.9174 78.7796 43.9019 78.7758C43.887 78.7722 43.9009 78.6682 43.9367 78.5158C43.9725 78.3634 43.9864 78.2594 43.9714 78.2557C43.9577 78.2524 43.9599 78.1925 43.9763 78.1227C43.9927 78.0528 43.9949 77.993 43.9812 77.9896C43.9675 77.9863 43.9697 77.9264 43.9861 77.8566C44.0025 77.7867 44.0047 77.7269 43.991 77.7235C43.9773 77.7202 43.9768 77.6718 43.9899 77.6159C44.0031 77.56 44.0026 77.5116 43.9889 77.5082C43.9751 77.5049 43.9746 77.4565 43.9878 77.4006C44.0009 77.3447 44.0004 77.2963 43.9867 77.2929C43.973 77.2896 43.9698 77.2526 43.9797 77.2107C43.9895 77.1688 43.9863 77.1318 43.9726 77.1284C43.9589 77.1251 43.9557 77.0881 43.9656 77.0462C43.9754 77.0043 43.9723 76.9673 43.9586 76.964C43.9448 76.9606 43.9417 76.9236 43.9515 76.8817C43.9614 76.8398 43.9582 76.8028 43.9445 76.7995C43.9307 76.7961 43.9276 76.7591 43.9374 76.7172C43.9473 76.6753 43.9441 76.6383 43.9304 76.635C43.9167 76.6316 43.9135 76.5946 43.9233 76.5527C43.9332 76.5108 43.93 76.4738 43.9163 76.4705C43.9026 76.4672 43.8994 76.4301 43.9093 76.3882C43.9191 76.3463 43.9159 76.3093 43.9022 76.306C43.8885 76.3027 43.8853 76.2657 43.8952 76.2237C43.905 76.1818 43.9019 76.1448 43.8882 76.1415C43.8744 76.1382 43.8686 76.1126 43.8751 76.0846C43.8817 76.0567 43.8759 76.0311 43.8621 76.0278C43.8484 76.0245 43.8452 75.9875 43.8551 75.9456C43.8649 75.9036 43.8618 75.8666 43.8481 75.8633C43.8343 75.86 43.8285 75.8344 43.835 75.8065C43.8416 75.7785 43.8358 75.7529 43.822 75.7496C43.8083 75.7463 43.8051 75.7093 43.815 75.6674C43.8248 75.6255 43.8217 75.5884 43.808 75.5851C43.7942 75.5818 43.7884 75.5562 43.7949 75.5283C43.8015 75.5003 43.7957 75.4748 43.7819 75.4714C43.7682 75.4681 43.7624 75.4425 43.7689 75.4146C43.7755 75.3866 43.7696 75.3611 43.7559 75.3577C43.7422 75.3544 43.7364 75.3288 43.7429 75.3009C43.7495 75.273 43.7436 75.2474 43.7299 75.2441C43.7162 75.2407 43.7103 75.2152 43.7169 75.1872C43.7235 75.1593 43.7176 75.1337 43.7039 75.1304C43.6902 75.127 43.6843 75.1015 43.6909 75.0735C43.6974 75.0456 43.6916 75.02 43.6779 75.0167C43.6642 75.0133 43.661 74.9763 43.6708 74.9344C43.6807 74.8925 43.6775 74.8555 43.6638 74.8522C43.6501 74.8489 43.6442 74.8233 43.6508 74.7953C43.6574 74.7674 43.6515 74.7418 43.6378 74.7385C43.6241 74.7352 43.6176 74.7121 43.6235 74.6873C43.6293 74.6624 43.6155 74.6201 43.5928 74.5934C43.5701 74.5666 43.5563 74.5243 43.5621 74.4995C43.568 74.4746 43.5615 74.4515 43.5478 74.4482C43.5341 74.4449 43.5282 74.4193 43.5348 74.3914C43.5413 74.3634 43.5355 74.3379 43.5218 74.3345C43.5081 74.3312 43.5022 74.3056 43.5088 74.2777C43.5153 74.2497 43.5095 74.2242 43.4958 74.2208C43.482 74.2175 43.4756 74.1945 43.4814 74.1696C43.4873 74.1447 43.4735 74.1025 43.4508 74.0757C43.4281 74.0489 43.4143 74.0067 43.4201 73.9818C43.4259 73.957 43.4195 73.9339 43.4058 73.9306C43.3921 73.9272 43.3862 73.9017 43.3928 73.8737C43.3993 73.8458 43.3935 73.8202 43.3798 73.8169C43.366 73.8136 43.3596 73.7905 43.3654 73.7656C43.3713 73.7408 43.3575 73.6985 43.3348 73.6717C43.3121 73.645 43.2977 73.6052 43.3028 73.5835C43.3079 73.5617 43.2935 73.522 43.2708 73.4952C43.2481 73.4684 43.2343 73.4261 43.2401 73.4013C43.246 73.3764 43.2395 73.3534 43.2258 73.35C43.2121 73.3467 43.2056 73.3236 43.2115 73.2988C43.2173 73.2739 43.2035 73.2317 43.1808 73.2049C43.1581 73.1781 43.1443 73.1359 43.1501 73.111C43.156 73.0862 43.1495 73.0631 43.1358 73.0598C43.1221 73.0564 43.1152 73.0355 43.1204 73.0131C43.1257 72.9908 43.1038 72.9323 43.0718 72.8832C43.0399 72.8341 43.0169 72.7802 43.0209 72.7635C43.0248 72.7467 43.0019 72.6928 42.9699 72.6437C42.938 72.5946 42.9155 72.5386 42.92 72.5194C42.9246 72.5002 42.9097 72.4625 42.887 72.4357C42.8643 72.4089 42.8493 72.3715 42.8538 72.3525C42.8582 72.3335 42.8273 72.2632 42.785 72.1962C42.7428 72.1292 42.7113 72.0612 42.7151 72.0451C42.7189 72.0289 42.6874 71.9609 42.6452 71.8939C42.6029 71.8269 42.5714 71.7592 42.5751 71.7435C42.5788 71.7277 42.5217 71.6169 42.4484 71.4972C42.375 71.3775 42.3178 71.2674 42.3213 71.2527C42.3295 71.2177 41.7477 70.2536 41.7134 70.2453C41.6989 70.2418 41.6198 70.1259 41.5375 69.9879C41.4552 69.8498 41.3754 69.7338 41.3602 69.7301C41.345 69.7265 41.2913 69.6531 41.2409 69.567C41.1905 69.481 41.1364 69.4075 41.1207 69.4037C41.105 69.3999 41.0598 69.3406 41.0202 69.2719C40.9806 69.2033 40.935 69.1439 40.9189 69.14C40.9027 69.1361 40.8661 69.091 40.8375 69.0397C40.8089 68.9885 40.772 68.9433 40.7556 68.9394C40.7392 68.9354 40.7023 68.8902 40.6737 68.839C40.6451 68.7878 40.6062 68.7421 40.5874 68.7375C40.5685 68.7329 40.5422 68.7024 40.529 68.6697C40.5157 68.6369 40.4895 68.6064 40.4705 68.6018C40.4517 68.5973 40.4128 68.5516 40.3842 68.5004C40.3556 68.4491 40.3167 68.4035 40.2978 68.3989C40.2789 68.3943 40.2526 68.3638 40.2394 68.3311C40.2262 68.2983 40.1979 68.2673 40.1765 68.2621C40.1551 68.257 40.1268 68.2259 40.1136 68.1932C40.1004 68.1605 40.0696 68.1289 40.0452 68.1229C40.0208 68.117 40.0035 68.1008 40.0068 68.0868C40.0101 68.0728 39.9928 68.0565 39.9684 68.0506C39.944 68.0447 39.9132 68.0131 39.9 67.9804C39.8867 67.9476 39.8584 67.9166 39.8371 67.9114C39.8157 67.9063 39.7874 67.8752 39.7742 67.8425C39.761 67.8098 39.7326 67.7788 39.7113 67.7736C39.6899 67.7684 39.6616 67.7374 39.6484 67.7046C39.6352 67.6719 39.6044 67.6403 39.58 67.6344C39.5556 67.6285 39.5383 67.6122 39.5415 67.5982C39.5448 67.5843 39.5251 67.5674 39.4976 67.5607C39.4702 67.5541 39.4504 67.5372 39.4537 67.5232C39.457 67.5093 39.4397 67.493 39.4153 67.4871C39.3909 67.4812 39.3601 67.4496 39.3469 67.4168C39.3337 67.3841 39.3029 67.3525 39.2785 67.3466C39.2541 67.3407 39.2368 67.3244 39.2401 67.3104C39.2433 67.2964 39.2236 67.2796 39.1961 67.2729C39.1687 67.2663 39.1489 67.2494 39.1522 67.2354C39.1555 67.2215 39.1357 67.2046 39.1083 67.198C39.0809 67.1913 39.0611 67.1744 39.0644 67.1605C39.0677 67.1465 39.0479 67.1296 39.0205 67.123C38.993 67.1163 38.9733 67.0995 38.9765 67.0855C38.9798 67.0715 38.9601 67.0547 38.9326 67.048C38.9052 67.0414 38.8854 67.0245 38.8887 67.0105C38.892 66.9965 38.8722 66.9797 38.8448 66.973C38.8173 66.9664 38.7976 66.9495 38.8008 66.9355C38.8041 66.9216 38.7844 66.9047 38.7569 66.8981C38.7295 66.8914 38.7097 66.8745 38.713 66.8606C38.7163 66.8466 38.6965 66.8297 38.6691 66.8231C38.6416 66.8164 38.6219 66.7996 38.6252 66.7856C38.6284 66.7716 38.6087 66.7548 38.5812 66.7481C38.5538 66.7415 38.534 66.7246 38.5373 66.7106C38.5406 66.6967 38.5208 66.6798 38.4934 66.6731C38.466 66.6665 38.4462 66.6496 38.4495 66.6356C38.4527 66.6217 38.433 66.6048 38.4055 66.5982C38.3781 66.5915 38.3583 66.5746 38.3616 66.5607C38.3649 66.5467 38.3451 66.5298 38.3177 66.5232C38.2903 66.5165 38.2705 66.4997 38.2738 66.4857C38.2771 66.4717 38.2573 66.4549 38.2299 66.4482C38.2024 66.4416 38.1827 66.4247 38.1859 66.4107C38.1892 66.3968 38.1582 66.3772 38.1171 66.3672C38.0759 66.3572 38.0449 66.3376 38.0482 66.3237C38.0515 66.3097 38.0317 66.2928 38.0043 66.2862C37.9768 66.2795 37.9571 66.2627 37.9604 66.2487C37.9636 66.2347 37.9439 66.2179 37.9164 66.2112C37.889 66.2046 37.8692 66.1877 37.8725 66.1737C37.8758 66.1597 37.8448 66.1402 37.8036 66.1302C37.7625 66.1202 37.7315 66.1006 37.7348 66.0867C37.7381 66.0727 37.7183 66.0558 37.6909 66.0492C37.6634 66.0425 37.6437 66.0257 37.6469 66.0117C37.6502 65.9977 37.6192 65.9781 37.5781 65.9682C37.5369 65.9582 37.5059 65.9386 37.5092 65.9246C37.5125 65.9107 37.4927 65.8938 37.4653 65.8871C37.4378 65.8805 37.4181 65.8636 37.4214 65.8496C37.4246 65.8357 37.3936 65.8161 37.3525 65.8061C37.3113 65.7961 37.2803 65.7766 37.2836 65.7626C37.2869 65.7486 37.2559 65.729 37.2148 65.7191C37.1736 65.7091 37.1426 65.6895 37.1459 65.6755C37.1492 65.6616 37.1182 65.642 37.077 65.632C37.0359 65.622 37.0049 65.6024 37.0082 65.5885C37.0114 65.5745 36.9804 65.5549 36.9393 65.5449C36.8981 65.535 36.8671 65.5154 36.8704 65.5014C36.8737 65.4874 36.8427 65.4679 36.8016 65.4579C36.7604 65.4479 36.7294 65.4283 36.7327 65.4143C36.736 65.4004 36.705 65.3808 36.6638 65.3708C36.6227 65.3608 36.5917 65.3413 36.5949 65.3273C36.5982 65.3133 36.556 65.291 36.5011 65.2777C36.4463 65.2644 36.404 65.2421 36.4073 65.2281C36.4106 65.2142 36.3796 65.1946 36.3385 65.1846C36.2803 65.1705 36.261 65.1778 36.2517 65.2173C36.2451 65.2452 36.251 65.2708 36.2647 65.2741C36.2809 65.2781 36.2081 65.6273 36.0569 66.2708C35.9057 66.9143 35.8154 67.2594 35.7992 67.2554C35.7842 67.2518 35.7503 67.351 35.7145 67.5034C35.6787 67.6558 35.6449 67.755 35.6299 67.7514C35.6156 67.7479 35.587 67.8215 35.5632 67.9231C35.5393 68.0247 35.5107 68.0983 35.4964 68.0949C35.4826 68.0915 35.4556 68.1566 35.4357 68.2413C35.4158 68.3259 35.3888 68.391 35.3749 68.3876C35.3611 68.3843 35.3341 68.4493 35.3142 68.534C35.2943 68.6186 35.2673 68.6837 35.2534 68.6803C35.2397 68.677 35.2177 68.72 35.2046 68.7759C35.1915 68.8318 35.1695 68.8748 35.1558 68.8715C35.1421 68.8681 35.1174 68.9226 35.101 68.9924C35.0846 69.0623 35.0599 69.1167 35.0462 69.1134C35.0325 69.1101 35.0105 69.1531 34.9974 69.209C34.9843 69.2648 34.9623 69.3078 34.9486 69.3045C34.9348 69.3012 34.9102 69.3556 34.8938 69.4255C34.8774 69.4953 34.8527 69.5498 34.839 69.5464C34.8253 69.5431 34.8033 69.5861 34.7902 69.642C34.777 69.6979 34.7551 69.7409 34.7414 69.7376C34.7276 69.7342 34.7083 69.7658 34.6985 69.8077C34.6887 69.8496 34.6694 69.8812 34.6557 69.8779C34.6419 69.8746 34.62 69.9176 34.6068 69.9735C34.5937 70.0293 34.5717 70.0723 34.558 70.069C34.5443 70.0657 34.525 70.0973 34.5152 70.1392C34.5053 70.1811 34.486 70.2127 34.4723 70.2093C34.4586 70.206 34.4393 70.2376 34.4295 70.2795C34.4196 70.3214 34.4003 70.353 34.3866 70.3497C34.3729 70.3463 34.3536 70.3779 34.3438 70.4198C34.3339 70.4617 34.3146 70.4933 34.3009 70.49C34.2872 70.4867 34.2679 70.5182 34.2581 70.5601C34.2482 70.602 34.2289 70.6336 34.2152 70.6303C34.2015 70.627 34.1822 70.6585 34.1724 70.7005C34.1625 70.7424 34.1432 70.7739 34.1295 70.7706C34.1158 70.7673 34.0938 70.8103 34.0807 70.8662C34.0676 70.9221 34.0456 70.9651 34.0319 70.9617C34.0181 70.9584 34.0016 70.9786 33.995 71.0065C33.9884 71.0344 33.9718 71.0546 33.9581 71.0513C33.9444 71.0479 33.9251 71.0795 33.9153 71.1214C33.9054 71.1633 33.8861 71.1949 33.8724 71.1916C33.8587 71.1883 33.8421 71.2084 33.8355 71.2363C33.829 71.2643 33.8124 71.2844 33.7986 71.2811C33.7849 71.2778 33.7683 71.2979 33.7618 71.3259C33.7552 71.3538 33.7386 71.3739 33.7249 71.3706C33.7112 71.3673 33.6946 71.3874 33.688 71.4154C33.6814 71.4433 33.6648 71.4635 33.6511 71.4601C33.6374 71.4568 33.6181 71.4884 33.6083 71.5303C33.5984 71.5722 33.5791 71.6038 33.5654 71.6005C33.5517 71.5971 33.5351 71.6173 33.5285 71.6452C33.522 71.6732 33.5054 71.6933 33.4916 71.69C33.4779 71.6867 33.4613 71.7068 33.4548 71.7347C33.4482 71.7627 33.4316 71.7828 33.4179 71.7795C33.4042 71.7762 33.3882 71.7938 33.3823 71.8186C33.3765 71.8435 33.3454 71.8749 33.3132 71.8884C33.281 71.9019 33.2499 71.9332 33.2441 71.9581C33.2382 71.983 33.2222 72.0006 33.2085 71.9973C33.1948 71.9939 33.1788 72.0116 33.173 72.0364C33.1671 72.0613 33.136 72.0926 33.1038 72.1061C33.0717 72.1196 33.0406 72.151 33.0347 72.1759C33.0289 72.2007 33.0129 72.2183 32.9992 72.215C32.9854 72.2117 32.9694 72.2293 32.9636 72.2542C32.9578 72.279 32.9267 72.3104 32.8945 72.3239C32.8623 72.3374 32.8312 72.3687 32.8254 72.3936C32.8195 72.4185 32.8035 72.4361 32.7898 72.4328C32.7761 72.4294 32.7595 72.4496 32.7529 72.4775C32.7464 72.5055 32.7298 72.5256 32.716 72.5223C32.7023 72.519 32.6863 72.5366 32.6805 72.5614C32.6746 72.5863 32.6435 72.6177 32.6114 72.6312C32.5792 72.6447 32.5481 72.676 32.5423 72.7009C32.5364 72.7257 32.5204 72.7434 32.5067 72.74C32.493 72.7367 32.4764 72.7569 32.4698 72.7848C32.4632 72.8127 32.4466 72.8329 32.4329 72.8296C32.4167 72.8256 32.4915 72.4679 32.6467 71.8075C32.8019 71.147 32.8767 70.7893 32.8605 70.7854C32.8451 70.7816 32.8674 70.6439 32.9191 70.4237C32.9709 70.2036 32.9932 70.0658 32.9777 70.0621C32.9628 70.0584 32.9767 69.9544 33.0125 69.802C33.0483 69.6496 33.0622 69.5456 33.0472 69.5419C33.0323 69.5383 33.0461 69.4343 33.082 69.2819C33.1178 69.1295 33.1317 69.0255 33.1167 69.0218C33.1022 69.0183 33.1116 68.9311 33.1395 68.8126C33.1674 68.694 33.1768 68.6069 33.1623 68.6033C33.1481 68.5999 33.1553 68.5211 33.1791 68.4195C33.203 68.3179 33.2102 68.2391 33.196 68.2356C33.1814 68.2321 33.1909 68.1449 33.2188 68.0264C33.2466 67.9078 33.2561 67.8206 33.2416 67.8171C33.2277 67.8138 33.2325 67.7433 33.2524 67.6587C33.2723 67.574 33.2772 67.5036 33.2633 67.5002C33.2494 67.4969 33.2543 67.4264 33.2742 67.3418C33.2941 67.2571 33.2989 67.1867 33.285 67.1833C33.2712 67.18 33.276 67.1095 33.2959 67.0249C33.3158 66.9402 33.3206 66.8698 33.3068 66.8664C33.293 66.8631 33.2953 66.8032 33.3117 66.7334C33.3281 66.6635 33.3303 66.6037 33.3166 66.6003C33.3027 66.597 33.3075 66.5265 33.3274 66.4419C33.3473 66.3572 33.3522 66.2868 33.3383 66.2834C33.3246 66.2801 33.3268 66.2202 33.3432 66.1504C33.3596 66.0805 33.3618 66.0207 33.3481 66.0173C33.3344 66.014 33.3366 65.9541 33.353 65.8843C33.3694 65.8144 33.3716 65.7546 33.3579 65.7512C33.3442 65.7479 33.3437 65.6995 33.3568 65.6436C33.3699 65.5877 33.3695 65.5393 33.3557 65.5359C33.342 65.5326 33.3415 65.4842 33.3547 65.4283C33.3678 65.3724 33.3673 65.324 33.3536 65.3206C33.3399 65.3173 33.3367 65.2803 33.3466 65.2384C33.3564 65.1965 33.3532 65.1595 33.3395 65.1562C33.3258 65.1528 33.3253 65.1044 33.3384 65.0485C33.3516 64.9926 33.3511 64.9442 33.3374 64.9409C33.3237 64.9375 33.3232 64.8891 33.3363 64.8332C33.3494 64.7773 33.349 64.7289 33.3352 64.7256C33.3215 64.7222 33.3183 64.6852 33.3282 64.6433C33.338 64.6014 33.3349 64.5644 33.3212 64.5611C33.3074 64.5577 33.307 64.5093 33.3201 64.4534C33.3332 64.3975 33.3327 64.3491 33.319 64.3458C33.3053 64.3424 33.3048 64.294 33.3179 64.2381C33.3311 64.1822 33.3306 64.1338 33.3169 64.1305C33.3031 64.1272 33.3027 64.0787 33.3158 64.0228C33.3289 63.9669 33.3284 63.9185 33.3147 63.9152C33.301 63.9119 33.2978 63.8748 33.3077 63.8329C33.3236 63.7652 33.3173 63.7547 33.2508 63.7386C33.2096 63.7286 33.1786 63.709 33.1819 63.6951C33.1852 63.6811 33.1317 63.6561 33.0631 63.6395C32.9945 63.6228 32.9411 63.5978 32.9444 63.5838C32.9477 63.5697 32.8838 63.5423 32.8007 63.5222C32.7175 63.502 32.6536 63.4746 32.657 63.4605C32.6608 63.4441 32.3553 63.3606 31.7899 63.2236C31.2244 63.0866 30.9147 63.0211 30.9108 63.0375Z" fill="#BFCCD6"/>
</svg>
