<svg width="200" height="147" viewBox="0 0 200 147" fill="none" xmlns="http://www.w3.org/2000/svg">
<path fill-rule="evenodd" clip-rule="evenodd" d="M30 19.9999C24.4772 19.9999 20 24.477 20 29.9999V170C20 175.523 24.4772 180 30 180H170C175.523 180 180 175.523 180 170V29.9999C180 24.477 175.523 19.9999 170 19.9999H30ZM0 29.9999C0 13.4313 13.4315 -0.00012207 30 -0.00012207H170C186.569 -0.00012207 200 13.4313 200 29.9999V170C200 186.568 186.569 200 170 200H30C13.4315 200 0 186.568 0 170V29.9999Z" fill="#8A9BA8" fill-opacity="0.15"/>
<path fill-rule="evenodd" clip-rule="evenodd" d="M65 60C62.2386 60 60 62.2386 60 65C60 67.7614 62.2386 70 65 70C67.7614 70 70 67.7614 70 65C70 62.2386 67.7614 60 65 60ZM40 65C40 51.1929 51.1929 40 65 40C78.8071 40 90 51.1929 90 65C90 78.8071 78.8071 90 65 90C51.1929 90 40 78.8071 40 65Z" fill="#8A9BA8" fill-opacity="0.15"/>
<path fill-rule="evenodd" clip-rule="evenodd" d="M132.929 72.9289C136.834 69.0237 143.166 69.0237 147.071 72.9289L197.071 122.929C200.976 126.834 200.976 133.166 197.071 137.071C193.166 140.976 186.834 140.976 182.929 137.071L140 94.1421L37.071 197.071C33.1658 200.976 26.8341 200.976 22.9289 197.071C19.0237 193.166 19.0237 186.834 22.9289 182.929L132.929 72.9289Z" fill="#8A9BA8" fill-opacity="0.15"/>
</svg>
