<svg width="56" height="56" viewBox="0 0 56 56" fill="none" xmlns="http://www.w3.org/2000/svg">
<path fill-rule="evenodd" clip-rule="evenodd" d="M11.6666 9.33342C10.378 9.33342 9.33329 10.3781 9.33329 11.6667V44.3334C9.33329 45.6221 10.378 46.6668 11.6666 46.6668H44.3333C45.622 46.6668 46.6666 45.6221 46.6666 44.3334V11.6667C46.6666 10.3781 45.622 9.33342 44.3333 9.33342H11.6666ZM4.66663 11.6667C4.66663 7.80076 7.80063 4.66675 11.6666 4.66675H44.3333C48.1993 4.66675 51.3333 7.80076 51.3333 11.6667V44.3334C51.3333 48.1994 48.1993 51.3334 44.3333 51.3334H11.6666C7.80063 51.3334 4.66663 48.1994 4.66663 44.3334V11.6667Z" fill="#E5EAEE"/>
<path fill-rule="evenodd" clip-rule="evenodd" d="M19.8333 18.6667C19.189 18.6667 18.6667 19.189 18.6667 19.8333C18.6667 20.4777 19.189 21 19.8333 21C20.4777 21 21 20.4777 21 19.8333C21 19.189 20.4777 18.6667 19.8333 18.6667ZM14 19.8333C14 16.6117 16.6117 14 19.8333 14C23.055 14 25.6667 16.6117 25.6667 19.8333C25.6667 23.055 23.055 25.6667 19.8333 25.6667C16.6117 25.6667 14 23.055 14 19.8333Z" fill="#E5EAEE"/>
<path fill-rule="evenodd" clip-rule="evenodd" d="M35.6835 21.6834C36.5947 20.7722 38.0721 20.7722 38.9833 21.6834L50.65 33.3501C51.5612 34.2613 51.5612 35.7387 50.65 36.6499C49.7387 37.5611 48.2613 37.5611 47.3501 36.6499L37.3334 26.6332L13.3166 50.6499C12.4054 51.5611 10.928 51.5611 10.0168 50.6499C9.10557 49.7387 9.10557 48.2613 10.0168 47.3501L35.6835 21.6834Z" fill="#E5EAEE"/>
</svg>
